<svg width="495" height="556" viewBox="0 0 495 556" fill="none" xmlns="http://www.w3.org/2000/svg">
<g clip-path="url(#clip0)">
<path d="M576.027 183.808H238.906V193.697H576.027V183.808Z" fill="#E6E6E6"/>
<path d="M352.178 101.101H266.774V186.505H352.178V101.101Z" fill="#E6E6E6"/>
<path d="M335.097 118.182H283.855V169.424H335.097V118.182Z" fill="#CCCCCC"/>
<path d="M479.835 101.101H458.259V186.505H479.835V101.101Z" fill="#E6E6E6"/>
<path d="M479.835 114.586H458.259V124.474H479.835V114.586Z" fill="#CCCCCC"/>
<path d="M479.835 157.737H458.259V167.626H479.835V157.737Z" fill="#CCCCCC"/>
<path d="M446.572 101.101H424.997V186.505H446.572V101.101Z" fill="#E6E6E6"/>
<path d="M446.572 114.586H424.997V124.474H446.572V114.586Z" fill="#CCCCCC"/>
<path d="M446.572 157.737H424.997V167.626H446.572V157.737Z" fill="#CCCCCC"/>
<path d="M498.425 100.748L479.089 110.321L516.982 186.858L536.318 177.285L498.425 100.748Z" fill="#E6E6E6"/>
<path d="M504.408 112.833L485.072 122.406L489.46 131.268L508.796 121.695L504.408 112.833Z" fill="#CCCCCC"/>
<path d="M298.688 135.382L309.554 154.201L320.419 173.02H298.688H276.958L287.823 154.201L298.688 135.382Z" fill="#E6E6E6"/>
<path d="M317.567 138.978L328.432 157.797L339.298 176.616H317.567H295.837L306.702 157.797L317.567 138.978Z" fill="#E6E6E6"/>
<path d="M325.208 133.464C328.684 133.464 331.501 130.647 331.501 127.171C331.501 123.696 328.684 120.879 325.208 120.879C321.733 120.879 318.916 123.696 318.916 127.171C318.916 130.647 321.733 133.464 325.208 133.464Z" fill="#E6E6E6"/>
<path d="M238.905 57.9492L576.027 57.9492V48.0603L238.905 48.0603V57.9492Z" fill="#E6E6E6"/>
<path d="M462.754 50.7573L548.158 50.7573V-34.6468L462.754 -34.6468V50.7573Z" fill="#E6E6E6"/>
<path d="M479.835 33.6765L531.077 33.6765V-17.5659L479.835 -17.5659V33.6765Z" fill="#CCCCCC"/>
<path d="M335.098 50.7573H356.673V-34.6468H335.098V50.7573Z" fill="#E6E6E6"/>
<path d="M335.098 31.8784L356.673 31.8784V21.9895H335.098V31.8784Z" fill="#CCCCCC"/>
<path d="M368.36 50.7573H389.936V-34.6468H368.36V50.7573Z" fill="#E6E6E6"/>
<path d="M368.36 31.8784L389.936 31.8784V21.9895H368.36V31.8784Z" fill="#CCCCCC"/>
<path d="M278.614 41.5375L297.95 51.1105L335.843 -25.427L316.507 -34.9999L278.614 41.5375Z" fill="#E6E6E6"/>
<path d="M286.991 24.6187L306.326 34.1917L310.714 25.3294L291.378 15.7565L286.991 24.6187Z" fill="#CCCCCC"/>
<path d="M516.244 -0.365967L505.379 18.453L494.514 37.272H516.244H537.975L527.109 18.453L516.244 -0.365967Z" fill="#E6E6E6"/>
<path d="M497.365 3.22998L486.5 22.049L475.635 40.868H497.365H519.096L508.231 22.049L497.365 3.22998Z" fill="#E6E6E6"/>
<path d="M238.905 329.444L576.027 329.444V319.555L238.905 319.555V329.444Z" fill="#E6E6E6"/>
<path d="M462.754 322.252H548.158V236.848H462.754V322.252Z" fill="#E6E6E6"/>
<path d="M479.835 305.172H531.077V253.929H479.835V305.172Z" fill="#CCCCCC"/>
<path d="M335.098 322.252H356.673V236.848H335.098V322.252Z" fill="#E6E6E6"/>
<path d="M335.098 260.222H356.673V250.333H335.098V260.222Z" fill="#CCCCCC"/>
<path d="M335.098 303.374H356.673V293.485H335.098V303.374Z" fill="#CCCCCC"/>
<path d="M368.36 322.252H389.936V236.848H368.36V322.252Z" fill="#E6E6E6"/>
<path d="M368.36 260.222H389.936V250.333H368.36V260.222Z" fill="#CCCCCC"/>
<path d="M368.36 303.374H389.936V293.485H368.36V303.374Z" fill="#CCCCCC"/>
<path d="M278.614 313.033L297.95 322.606L335.843 246.068L316.507 236.495L278.614 313.033Z" fill="#E6E6E6"/>
<path d="M306.137 257.442L325.472 267.015L329.86 258.153L310.524 248.58L306.137 257.442Z" fill="#CCCCCC"/>
<path d="M286.991 296.114L306.326 305.687L310.714 296.825L291.378 287.252L286.991 296.114Z" fill="#CCCCCC"/>
<path d="M516.244 271.129L505.379 289.948L494.514 308.768H516.244H537.975L527.109 289.948L516.244 271.129Z" fill="#E6E6E6"/>
<path d="M497.365 274.725L486.5 293.544L475.635 312.364H497.365H519.096L508.231 293.544L497.365 274.725Z" fill="#E6E6E6"/>
<path d="M489.724 269.212C493.199 269.212 496.017 266.395 496.017 262.919C496.017 259.444 493.199 256.626 489.724 256.626C486.248 256.626 483.431 259.444 483.431 262.919C483.431 266.395 486.248 269.212 489.724 269.212Z" fill="#E6E6E6"/>
<path d="M171.129 555.916C390.458 555.916 568.259 543.288 568.259 527.711C568.259 512.134 390.458 499.506 171.129 499.506C-48.1991 499.506 -226 512.134 -226 527.711C-226 543.288 -48.1991 555.916 171.129 555.916Z" fill="#E6E6E6"/>
<path d="M481.387 543.506C416.632 531.981 345.819 533.897 271.54 543.506C305.395 514.925 334.615 486.344 300.759 457.762C366.798 471.386 376.048 470.007 449.511 457.762C432.472 486.344 464.348 514.925 481.387 543.506Z" fill="#EBCB8B"/>
<path opacity="0.2" d="M481.387 543.506C416.632 531.981 345.819 533.897 271.54 543.506C305.395 514.925 334.615 486.344 300.759 457.762C366.798 471.386 376.048 470.007 449.511 457.762C432.472 486.344 464.348 514.925 481.387 543.506Z" fill="black"/>
<path d="M465.592 531.312C410.585 522.113 350.433 523.642 287.335 531.312C316.094 508.498 340.915 485.684 312.156 462.87C368.253 473.745 376.111 472.644 438.515 462.87C424.041 485.684 451.118 508.498 465.592 531.312Z" fill="#EBCB8B"/>
<path d="M311.591 431.249L331.899 434.634L342.053 463.967L312.72 482.019L278.873 431.249H310.463H311.591Z" fill="#FEB8B8"/>
<path d="M369.13 476.378C395.3 476.378 416.515 455.163 416.515 428.993C416.515 402.823 395.3 381.608 369.13 381.608C342.96 381.608 321.745 402.823 321.745 428.993C321.745 455.163 342.96 476.378 369.13 476.378Z" fill="#FEB8B8"/>
<path d="M107.386 256.377C107.386 256.377 -7.69175 268.787 -27.9995 266.531C-48.3072 264.274 -57.3329 262.018 -57.3329 262.018C-57.3329 262.018 -70.8714 280.069 -64.1022 287.967C-60.3111 292.518 -55.7235 296.341 -50.5637 299.249C-50.5637 299.249 -38.1534 295.864 -29.1276 299.249C-20.1019 302.634 71.2829 317.3 87.0779 303.762C102.873 290.223 107.386 256.377 107.386 256.377Z" fill="#4C566A"/>
<path d="M115.283 507.967C115.283 507.967 39.6931 486.531 26.1546 391.762V382.736C26.1546 382.736 11.1984 408.975 5.84683 414.326C-0.358318 420.531 -22.3584 476.378 -21.2302 482.019C-20.102 487.66 -21.2302 489.916 -21.2302 489.916L-53.9482 486.531V476.378C-53.9482 476.378 -36.461 423.916 -35.3328 411.506C-34.2046 399.095 8.10321 312.787 8.10321 312.787C8.10321 312.787 23.8981 280.069 50.9752 312.787C78.0522 345.505 80.3086 368.07 80.3086 368.07L115.283 435.762L115.283 507.967Z" fill="#4C566A"/>
<path d="M100.616 433.506C100.616 433.506 85.9495 496.685 110.77 510.224C135.591 523.762 309.335 526.019 322.873 501.198C336.412 476.378 329.643 476.378 329.643 476.378L293.54 435.762L322.873 433.506C322.873 433.506 322.873 424.48 312.719 423.352C302.566 422.224 270.976 410.942 243.899 418.839C216.822 426.736 201.027 403.044 201.027 403.044L100.616 433.506Z" fill="#88C0D0"/>
<path d="M81.4369 236.069L62.2568 340.993L194.258 325.198L217.95 230.428L81.4369 236.069Z" fill="black"/>
<path d="M85.386 240.018L69.5911 333.659L189.745 319.557L212.873 234.377L85.386 240.018Z" fill="white"/>
<path d="M66.77 342.121L62.257 340.993L60.001 345.505L96.104 445.916L99.499 444.618L100.616 438.019L66.77 342.121Z" fill="#B3B3B3"/>
<path d="M62.2568 339.864L98.3598 444.788L234.873 424.48L194.258 325.198L62.2568 339.864Z" fill="#D0CDE1"/>
<path d="M80.3091 336.48V342.121L180.719 330.839L179.591 325.198L80.3091 336.48Z" fill="black"/>
<path d="M82.5649 347.762L98.3599 391.762L201.027 379.352L182.976 337.608L82.5649 347.762Z" fill="black"/>
<path d="M211.181 409.813L207.796 400.788C207.796 400.788 181.847 355.659 168.309 364.685C154.77 373.711 196.514 417.711 196.514 417.711H210.052L211.181 409.813Z" fill="#FEB8B8"/>
<path d="M125.437 416.582L122.052 403.044C122.052 403.044 113.027 361.3 128.822 363.557C144.617 365.813 149.129 405.3 149.129 405.3L148.001 414.326L125.437 416.582Z" fill="#FEB8B8"/>
<path d="M152.514 410.941C152.514 410.941 123.181 406.429 122.052 413.198C120.924 419.967 115.283 521.506 143.488 524.891C171.694 528.275 311.591 542.942 296.925 507.967C282.258 472.993 259.694 477.506 259.694 477.506L163.796 487.66L152.514 410.941Z" fill="#88C0D0"/>
<path d="M241.078 423.916L211.181 403.044L191.437 418.275L216.258 445.352L241.078 423.916Z" fill="#88C0D0"/>
<path opacity="0.2" d="M160.976 444.224L165.488 487.096L243.335 482.583L175.642 481.455L160.976 444.224Z" fill="black"/>
<path d="M371.414 480C385.037 480 424.914 461.655 424.914 430.5C424.914 399.345 407.435 382 394.414 382C363.26 382 388.414 422 360.914 430.5C329.414 452 340.26 480 371.414 480Z" fill="black"/>
<path d="M102.309 272.736L172.258 270.301L179.027 244.531L106.822 246.71L102.309 272.736Z" fill="#EBCB8B"/>
<path d="M84.2581 287.403L190.309 284.018L191.437 279.505L85.386 283.239L84.2581 287.403Z" fill="#E6E6E6"/>
<path d="M82.001 298.685L188.053 295.3L189.181 290.787L83.129 294.521L82.001 298.685Z" fill="#E6E6E6"/>
<path d="M80.873 307.71L186.924 304.326L188.053 299.813L82.0011 303.546L80.873 307.71Z" fill="#E6E6E6"/>
</g>
<defs>
<clipPath id="clip0">
<rect width="495" height="556" fill="white"/>
</clipPath>
</defs>
</svg>
