<svg width="808" height="816" viewBox="0 0 808 816" fill="none" xmlns="http://www.w3.org/2000/svg">
<g clip-path="url(#clip0)">
<path d="M491.5 109.5C434.123 106.833 389.182 84.0984 337 57.0001C284.818 29.9018 237.503 8.85539 181.5 -5.49984C145.48 -14.7341 93.7032 -4.49026 64.6866 21.3278C36.7515 46.2213 27.7265 89.0736 22.8771 128.879C19.2245 158.823 17.0791 190.331 27.0882 218.365C34.0298 237.83 46.3617 254.188 54.8814 272.894C84.5541 337.759 63.5873 417.75 31.4323 481.086C16.361 510.804 -1.1483 539.171 -12.7798 570.774C-24.4113 602.377 -29.8015 638.638 -19.6239 670.905C-9.52616 702.911 14.5258 726.903 40.5725 743.795C93.4905 778.113 155.823 787.928 216.649 793.487C351.254 805.804 486.567 800.469 621.526 795.135C671.474 793.155 721.635 791.152 770.767 780.827C798.055 775.09 826.221 765.998 846.035 744.021C871.177 716.128 877.41 668.89 860.565 633.92C832.293 575.255 796.495 573.969 776.707 511C765.838 476.351 768.202 432.148 784 400C817.902 331.057 841.212 262.889 844.208 184.084C846.265 129.946 818.942 75.7497 776.707 50.1331C732.442 23.1889 656.143 22.0593 623.5 66.5001C589.864 112.292 542.157 111.847 491.5 109.5Z" fill="#F2F2F2"/>
<path d="M397.45 789.5L55.1699 787.83L21.1599 708.06L141.42 699.33L120.46 611.87L358.32 581.04L130.55 501.86L150.67 497.08L516.92 556.83L496.75 693.32L467.92 768.33L397.45 789.5Z" fill="#EBCB8B"/>
<path d="M60.4199 754.42C60.4199 754.42 81.4199 751.06 94.0199 765.9C94.0199 765.9 84.7799 773.18 64.8999 763.1L60.4199 754.42Z" fill="#EBCB8B"/>
<path d="M58.22 754.09C58.22 754.09 44.82 770.58 51.42 788.94C51.42 788.94 62.34 784.57 63.53 762.31L58.22 754.09Z" fill="#EBCB8B"/>
<path d="M46.1799 726.98C46.1799 726.98 54.5799 711.57 88.1799 733.14C88.1799 733.14 83.6999 743.5 68.8599 742.66C54.0199 741.82 50.0999 735.1 46.1799 726.98Z" fill="#EBCB8B"/>
<path d="M44.01 725.87C44.01 725.87 26.58 723.87 24.89 763.77C24.89 763.77 35.94 766.06 43.79 753.44C51.64 740.82 48.42 733.74 44.01 725.87Z" fill="#EBCB8B"/>
<path d="M33.86 694.04C33.86 694.04 43.66 666.88 79.22 686.2C79.22 686.2 71.1 711.12 37.5 703.28L33.86 694.04Z" fill="#EBCB8B"/>
<path d="M22.9399 653.44C22.9399 653.44 41.4199 626 74.1799 651.44C74.1799 651.44 62.6999 677.2 25.7399 663.2L22.9399 653.44Z" fill="#EBCB8B"/>
<path d="M19.02 614.8C19.02 614.8 40.58 589.59 73.02 614.8C73.02 614.8 52.58 636.92 19.02 621.24V614.8Z" fill="#EBCB8B"/>
<path d="M15.66 577.27C15.66 577.27 37.5 550.95 68.58 575.87C68.58 575.87 43.94 599.11 15.66 583.43V577.27Z" fill="#EBCB8B"/>
<path d="M17.62 543.95C17.62 543.95 40.62 510.07 69.7 533.03C69.7 533.03 45.06 562.15 17.62 550.39V543.95Z" fill="#EBCB8B"/>
<path d="M22.9399 505.03C22.9399 505.03 47.2999 471.43 75.5799 497.19C75.5799 497.19 46.7399 526.31 22.9399 511.19V505.03Z" fill="#EBCB8B"/>
<path d="M31.06 470.24C31.06 470.24 59.9 438.66 85.06 451.24C85.06 451.24 55.01 484.78 29.8 478.62L31.06 470.24Z" fill="#EBCB8B"/>
<path d="M41.14 437.26C41.14 437.26 74.42 398.58 93.78 411.5C93.78 411.5 69.26 441.5 38.78 444.5L41.14 437.26Z" fill="#EBCB8B"/>
<path d="M55.69 399.01C55.69 399.01 84.82 367.43 106.1 375.27C106.1 375.27 81.18 408.03 51.78 408.87L55.69 399.01Z" fill="#EBCB8B"/>
<path d="M68.86 363.23C68.86 363.23 101.06 332.99 115.06 338.31C115.06 338.31 91.82 371.91 67.46 369.95L68.86 363.23Z" fill="#EBCB8B"/>
<path d="M81.74 330.19C81.74 330.19 109.46 294.06 124.59 296.86C124.59 296.86 107.78 329.07 81.74 333.86V330.19Z" fill="#EBCB8B"/>
<path d="M95.72 285.64C95.72 285.64 120.22 257.95 133.46 258.01C133.46 258.01 114.12 295.01 94.71 294.67L95.72 285.64Z" fill="#EBCB8B"/>
<path d="M104 255.98L127.67 198.3C127.67 198.3 128.85 250.44 100.99 266.68L104 255.98Z" fill="#EBCB8B"/>
<path d="M113.61 192.37C113.61 192.37 117.53 144.2 115.01 140.28C115.01 140.28 131.93 180.33 113.45 213.65L113.61 192.37Z" fill="#EBCB8B"/>
<path d="M32.94 693.4C32.94 693.4 8.40001 678.19 -7.48999 715.4C-7.48999 715.4 14.35 729.9 35.83 702.89L32.94 693.4Z" fill="#EBCB8B"/>
<path d="M22.1499 651.89C22.1499 651.89 -7.95005 638.16 -22.55 677.01C-22.55 677.01 0.699953 693.01 24.89 661.71L22.1499 651.89Z" fill="#EBCB8B"/>
<path d="M17.62 617.11C17.62 617.11 -3.94001 591.9 -36.38 617.11C-36.38 617.11 -15.94 639.23 17.62 623.55V617.11Z" fill="#EBCB8B"/>
<path d="M14.92 577.27C14.92 577.27 -6.92 550.95 -38 575.87C-38 575.87 -13.36 599.11 14.92 583.43V577.27Z" fill="#EBCB8B"/>
<path d="M17.62 544.91C17.62 544.91 2.3 506.96 -31 523.28C-31 523.28 -13 556.93 16.26 551.21L17.62 544.91Z" fill="#EBCB8B"/>
<path d="M24.87 504.84C24.87 504.84 9.64 466.23 -24.13 484.13C-24.13 484.13 -3.45 519.52 23.37 510.8L24.87 504.84Z" fill="#EBCB8B"/>
<path d="M34.3101 470.43C34.3101 470.43 28.3101 428.1 0.310059 424.31C0.310059 424.31 6.25005 468.95 30.5401 478.06L34.3101 470.43Z" fill="#EBCB8B"/>
<path d="M41.85 437.34C41.85 437.34 39.51 386.34 16.36 384.56C16.36 384.56 17.14 423.27 39.24 444.56L41.85 437.34Z" fill="#EBCB8B"/>
<path d="M58.09 397.58C58.09 397.58 51.19 355.17 29.09 349.99C29.09 349.99 31.83 391.06 55.9 407.99L58.09 397.58Z" fill="#EBCB8B"/>
<path d="M71.48 363.58C71.48 363.58 71.25 319.4 57.75 312.91C57.75 312.91 49.38 352.91 67.57 369.22L71.48 363.58Z" fill="#EBCB8B"/>
<path d="M82.77 329.69C82.77 329.69 80.88 284.2 66.9 277.79C66.9 277.79 62.12 313.79 80.68 332.67L82.77 329.69Z" fill="#EBCB8B"/>
<path d="M97.67 289.27C97.67 289.27 97.59 252.27 87.61 243.59C87.61 243.59 77.69 284.12 92.46 296.71L97.67 289.27Z" fill="#EBCB8B"/>
<path d="M102.83 254.16L93.12 192.58C93.12 192.58 79.93 243.04 103.29 265.28L102.83 254.16Z" fill="#EBCB8B"/>
<path d="M104.72 192.95C104.72 192.95 79.8 151.55 80.31 146.95C80.31 146.95 82.96 190.34 114.31 211.95L104.72 192.95Z" fill="#EBCB8B"/>
<path d="M107.64 180.72C107.64 180.72 84.12 121.92 73.48 117.16C73.48 117.16 107.08 134.24 109.6 179.04L107.64 180.72Z" fill="#EBCB8B"/>
<path d="M94.59 295.02L92.98 294.53C112.83 229.8 117.78 188.53 106.93 178.18L108.08 176.96C119.59 187.88 114.92 228.7 94.59 295.02Z" fill="#444053"/>
<path d="M39.93 446.58L37.55 445.73C39.66 439.8 41.93 433.78 44.31 427.85C65.03 376.21 82.67 328.17 93.98 291.29L96.05 290.29C84.72 327.24 67.39 377.12 46.65 428.83C44.28 434.65 42.02 440.64 39.93 446.58Z" fill="#444053"/>
<path d="M90.01 802.86C89.69 802.51 57.52 766.28 35.09 704.43C21.9473 668.219 14.6331 630.153 13.42 591.65C11.88 543.52 21.98 489.78 39.28 440.96L41.16 443.16C2.31999 552.73 17.75 646.62 38.22 703.16C60.41 764.45 92.22 800.28 92.53 800.64L90.01 802.86Z" fill="#444053"/>
<path d="M592.73 725.94C592.73 725.94 570.06 753.61 588.06 795.44L407.06 873.94L389.69 877.58L381.69 842.58L387.04 798.41V774.27L592.73 725.94Z" fill="#D5D6DB"/>
<path d="M21.1599 708.06L271.68 662.39L603.63 715.27L397.45 789.5L21.1599 708.06Z" fill="#EBCB8B"/>
<path d="M21.1599 708.06L271.68 662.39L603.63 715.27L397.45 789.5L21.1599 708.06Z" fill="#EBCB8B"/>
<path d="M21.16 708.05C21.16 708.05 -2.26999 752.44 24.73 793.44L396.23 873.94C396.23 873.94 373.17 838.58 397.42 789.5L21.16 708.05Z" fill="#EBCB8B"/>
<path opacity="0.1" d="M21.16 708.05C21.16 708.05 -2.26999 752.44 24.73 793.44L396.23 873.94C396.23 873.94 373.17 838.58 397.42 789.5L21.16 708.05Z" fill="black"/>
<path opacity="0.1" d="M32.2299 723.44C32.2299 723.44 18.8399 755.92 32.2299 776.94Z" fill="black"/>
<path d="M396.23 873.94L603.63 785.44C603.63 785.44 615.23 787.94 607.73 796.44C600.23 804.94 400.23 882.44 400.23 882.44L24.73 793.44L396.23 873.94Z" fill="#EBCB8B"/>
<path opacity="0.1" d="M396.23 873.94L603.63 785.44C603.63 785.44 615.23 787.94 607.73 796.44C600.23 804.94 400.23 882.44 400.23 882.44L24.73 793.44L396.23 873.94Z" fill="black"/>
<path opacity="0.1" d="M379.23 798.44C379.23 798.44 359.23 822.44 379.23 858.44Z" fill="black"/>
<path opacity="0.1" d="M476.057 798.034L386.348 827.963L386.665 828.912L476.374 798.983L476.057 798.034Z" fill="black"/>
<path opacity="0.1" d="M494.026 795.056L386.32 836.012L386.675 836.947L494.381 795.991L494.026 795.056Z" fill="black"/>
<path opacity="0.1" d="M510.527 794.912L386.921 845.506L387.3 846.432L510.906 795.838L510.527 794.912Z" fill="black"/>
<path opacity="0.1" d="M528.472 790.58L388.364 853.871L388.775 854.782L528.883 791.491L528.472 790.58Z" fill="black"/>
<path opacity="0.1" d="M543.547 790.601L389.473 857.946L389.873 858.863L543.948 791.517L543.547 790.601Z" fill="black"/>
<path opacity="0.1" d="M576.522 785L391.796 864.786L392.193 865.704L576.919 785.919L576.522 785Z" fill="black"/>
<path opacity="0.3" d="M114.23 712.94L290.23 675.94L397.45 696.44L253.23 742.94L114.23 712.94Z" fill="white"/>
<path d="M603.63 715.27C603.63 715.27 612.73 718.94 607.39 724.61C602.05 730.28 397.42 789.5 397.42 789.5L603.63 715.27Z" fill="#EBCB8B"/>
<path d="M692.02 629.76C692.02 629.76 669.36 657.42 687.36 699.26L506.36 777.76L488.99 781.42L480.99 746.42L486.42 702.26V678.09L692.02 629.76Z" fill="#D5D6DB"/>
<path d="M120.46 611.87L370.97 566.21L702.93 619.09L496.75 693.32L120.46 611.87Z" fill="#88C0D0"/>
<path d="M120.42 611.87C120.42 611.87 96.9799 656.26 123.98 697.26L495.48 777.76C495.48 777.76 472.43 742.37 496.71 693.31L120.42 611.87Z" fill="#88C0D0"/>
<path opacity="0.1" d="M120.42 611.87C120.42 611.87 96.9799 656.26 123.98 697.26L495.48 777.76C495.48 777.76 472.43 742.37 496.71 693.31L379.23 667.88L120.42 611.87Z" fill="black"/>
<path opacity="0.1" d="M131.52 627.26C131.52 627.26 118.14 659.73 131.52 680.76Z" fill="black"/>
<path d="M495.52 777.76L702.93 689.26C702.93 689.26 714.52 691.76 707.02 700.26C699.52 708.76 499.52 786.26 499.52 786.26L124.02 697.26L495.52 777.76Z" fill="#88C0D0"/>
<path opacity="0.1" d="M495.52 777.76L702.93 689.26C702.93 689.26 714.52 691.76 707.02 700.26C699.52 708.76 499.52 786.26 499.52 786.26L124.02 697.26L495.52 777.76Z" fill="black"/>
<path opacity="0.1" d="M478.52 702.26C478.52 702.26 458.52 726.26 478.52 762.26Z" fill="black"/>
<path opacity="0.1" d="M575.355 701.865L485.646 731.794L485.962 732.743L575.671 702.813L575.355 701.865Z" fill="black"/>
<path opacity="0.1" d="M593.336 698.882L485.63 739.838L485.986 740.773L593.691 699.816L593.336 698.882Z" fill="black"/>
<path opacity="0.1" d="M609.823 698.724L486.216 749.318L486.595 750.244L610.202 699.65L609.823 698.724Z" fill="black"/>
<path opacity="0.1" d="M627.779 694.394L487.671 757.685L488.083 758.596L628.191 695.305L627.779 694.394Z" fill="black"/>
<path opacity="0.1" d="M642.84 694.402L488.766 761.747L489.166 762.664L643.241 695.318L642.84 694.402Z" fill="black"/>
<path opacity="0.1" d="M675.823 688.802L491.097 768.587L491.493 769.505L676.219 689.72L675.823 688.802Z" fill="black"/>
<path opacity="0.45" d="M213.53 616.76L389.53 579.76L496.75 600.26L352.53 646.76L213.53 616.76Z" fill="white"/>
<path d="M702.93 619.09C702.93 619.09 712.02 622.76 706.69 628.42C701.36 634.08 496.75 693.31 496.75 693.31L702.93 619.09Z" fill="#88C0D0"/>
<path d="M701.42 519.73C701.42 519.73 678.75 569.4 696.75 611.23L515.75 667.73L498.42 671.4L490.42 636.4L495.77 592.23V568.06L701.42 519.73Z" fill="#D5D6DB"/>
<path d="M129.89 501.85L380.41 456.18L712.37 509.06L506.18 583.29L129.89 501.85Z" fill="#EBCB8B"/>
<path d="M129.89 501.84C129.89 501.84 106.42 546.23 133.42 587.23L504.92 667.73C504.92 667.73 481.86 632.34 506.14 583.29L129.89 501.84Z" fill="#EBCB8B"/>
<path opacity="0.1" d="M129.89 501.84C129.89 501.84 106.42 546.23 133.42 587.23L504.92 667.73C504.92 667.73 481.86 632.34 506.14 583.29L129.89 501.84Z" fill="black"/>
<path opacity="0.1" d="M140.96 517.23C140.96 517.23 127.57 549.71 140.96 570.73Z" fill="black"/>
<path d="M504.96 667.73L712.36 601.23C712.36 601.23 723.96 603.73 716.46 612.23C708.96 620.73 508.96 676.23 508.96 676.23L133.46 587.23L504.96 667.73Z" fill="#EBCB8B"/>
<path opacity="0.1" d="M504.96 667.73L712.36 601.23C712.36 601.23 723.96 603.73 716.46 612.23C708.96 620.73 508.96 676.23 508.96 676.23L133.46 587.23L504.96 667.73Z" fill="black"/>
<path opacity="0.1" d="M487.96 592.23C487.96 592.23 467.96 616.23 487.96 652.23Z" fill="black"/>
<path opacity="0.1" d="M584.798 591.833L495.089 621.762L495.405 622.711L585.114 592.781L584.798 591.833Z" fill="black"/>
<path opacity="0.1" d="M602.772 588.855L495.066 629.812L495.421 630.746L603.127 589.79L602.772 588.855Z" fill="black"/>
<path opacity="0.1" d="M619.25 588.702L495.643 639.296L496.022 640.222L619.628 589.628L619.25 588.702Z" fill="black"/>
<path opacity="0.1" d="M637.22 584.363L497.111 647.654L497.523 648.565L637.631 585.274L637.22 584.363Z" fill="black"/>
<path opacity="0.1" d="M652.286 584.381L498.211 651.726L498.612 652.642L652.687 585.297L652.286 584.381Z" fill="black"/>
<path opacity="0.1" d="M685.265 578.787L500.539 658.572L500.936 659.49L685.662 579.705L685.265 578.787Z" fill="black"/>
<path opacity="0.3" d="M222.96 506.73L398.96 469.73L506.18 490.23L361.96 536.73L222.96 506.73Z" fill="white"/>
<path d="M712.36 509.06C712.36 509.06 721.46 512.73 716.12 518.4C710.78 524.07 506.18 583.29 506.18 583.29L712.36 509.06Z" fill="#EBCB8B"/>
<path d="M272.42 205.5C272.42 205.5 234.42 203.21 238.86 229.87C238.86 229.87 237.97 234.58 242.24 236.72C242.24 236.72 242.31 234.72 246.14 235.41C247.507 235.645 248.897 235.712 250.28 235.61C252.144 235.482 253.917 234.752 255.33 233.53V233.53C255.33 233.53 266.02 229.11 270.18 211.63C270.18 211.63 273.26 207.82 273.18 206.84L266.74 209.58C266.74 209.58 268.93 214.21 267.21 218.06C267.21 218.06 267 209.75 265.76 209.94C265.51 209.94 262.43 211.55 262.43 211.55C262.43 211.55 266.2 219.62 263.35 225.48C263.35 225.48 264.43 215.54 261.25 212.13L256.73 214.77C256.73 214.77 261.14 223.1 258.15 229.9C258.15 229.9 258.92 219.47 255.78 215.41L251.68 218.61C251.68 218.61 255.83 226.82 253.3 232.46C253.3 232.46 252.97 220.32 250.8 219.4C250.8 219.4 247.21 222.56 246.67 223.86C246.67 223.86 249.51 229.86 247.74 232.97C247.74 232.97 246.67 224.88 245.74 224.84C245.74 224.84 242.17 230.2 241.8 233.84C241.973 230.446 243.031 227.157 244.87 224.3C242.812 224.689 240.914 225.673 239.41 227.13C239.41 227.13 239.96 223.34 245.76 223.01C245.76 223.01 248.71 218.94 249.5 218.7C249.5 218.7 243.73 218.21 240.24 219.76C240.24 219.76 243.32 216.19 250.55 217.76L254.55 214.46C254.55 214.46 246.97 213.46 243.75 214.57C243.75 214.57 247.46 211.41 255.64 213.71L260.05 211.08C260.05 211.08 253.58 209.69 249.73 210.19C249.73 210.19 253.79 208 261.34 210.37L264.48 208.96C264.48 208.96 259.75 208.03 258.36 207.88C256.97 207.73 256.9 207.35 256.9 207.35C259.902 206.857 262.982 207.203 265.8 208.35C265.8 208.35 272.55 205.92 272.42 205.5Z" fill="#EBCB8B"/>
<path d="M763.921 351.049C763.921 351.049 725.921 348.759 730.361 375.419C730.361 375.419 729.471 380.129 733.741 382.269C733.741 382.269 733.811 380.269 737.641 380.959C739.008 381.189 740.398 381.256 741.781 381.159C743.628 381.023 745.382 380.294 746.781 379.079C746.781 379.079 757.481 374.659 761.631 357.179C761.631 357.179 764.711 353.369 764.631 352.389L758.211 355.129C758.211 355.129 760.401 359.759 758.681 363.609C758.681 363.609 758.471 355.299 757.241 355.489C756.991 355.489 753.901 357.099 753.901 357.099C753.901 357.099 757.671 365.169 754.831 371.029C754.831 371.029 755.911 361.089 752.721 357.679L748.201 360.319C748.201 360.319 752.611 368.649 749.621 375.449C749.621 375.449 750.391 365.019 747.251 360.959L743.161 364.159C743.161 364.159 747.301 372.369 744.771 378.009C744.771 378.009 744.441 365.869 742.271 364.949C742.271 364.949 738.691 368.109 738.141 369.409C738.141 369.409 740.981 375.409 739.221 378.519C739.221 378.519 738.141 370.429 737.221 370.389C737.221 370.389 733.651 375.749 733.281 379.389C733.454 375.994 734.516 372.704 736.361 369.849C734.301 370.239 732.4 371.223 730.891 372.679C730.891 372.679 731.451 368.889 737.241 368.559C737.241 368.559 740.191 364.489 740.981 364.239C740.981 364.239 735.221 363.759 731.721 365.309C731.721 365.309 734.801 361.739 742.031 363.309L746.031 360.009C746.031 360.009 738.441 359.009 735.231 360.119C735.231 360.119 738.931 356.959 747.121 359.259L751.521 356.629C751.521 356.629 745.051 355.239 741.201 355.739C741.201 355.739 745.261 353.549 752.811 355.919L755.961 354.509C755.961 354.509 751.221 353.579 749.831 353.429C748.441 353.279 748.371 352.899 748.371 352.899C751.373 352.4 754.455 352.746 757.271 353.899C757.271 353.899 764.041 351.469 763.921 351.049Z" fill="#EBCB8B"/>
<path opacity="0.4" d="M336.42 370.2C336.42 370.2 319.86 335.87 298.78 352.79C298.78 352.79 294.23 354.31 294.45 359.08C294.45 359.08 296.2 358.17 297.45 361.85C297.917 363.151 298.534 364.393 299.29 365.55C300.313 367.119 301.819 368.312 303.58 368.95C303.58 368.95 312.65 376.13 329.94 371.23C329.94 371.23 334.77 372.06 335.56 371.48L330.04 367.21C330.04 367.21 327.04 371.38 322.86 371.75C322.86 371.75 330.02 367.52 329.25 366.54C329.09 366.34 326.25 364.41 326.25 364.41C326.25 364.41 321.04 371.64 314.54 372.01C314.54 372.01 323.74 368.11 325.16 363.66L320.66 361C320.66 361 315.53 368.92 308.14 369.62C308.14 369.62 317.62 365.21 319.63 360.49L314.85 358.49C314.85 358.49 309.7 366.11 303.54 366.66C303.54 366.66 313.98 360.45 313.72 358.1C313.72 358.1 309.21 356.52 307.81 356.67C307.81 356.67 303.99 362.06 300.39 362.06C300.39 362.06 306.92 357.17 306.52 356.38C306.52 356.38 300.1 355.88 296.72 357.38C299.766 355.866 303.155 355.177 306.55 355.38C305.203 353.774 303.417 352.596 301.41 351.99C301.41 351.99 304.99 350.63 308.1 355.52C308.1 355.52 313.1 356.11 313.69 356.68C313.69 356.68 311.3 351.42 308.25 349.13C308.25 349.13 312.87 350.06 314.98 357.13L319.83 359.05C319.83 359.05 317.04 351.93 314.47 349.68C314.47 349.68 319.03 351.37 321.02 359.68L325.46 362.24C325.46 362.24 323.53 355.91 321.21 352.8C321.21 352.8 325.1 355.28 326.71 363.02L329.48 365.08C329.48 365.08 327.98 360.49 327.48 359.21C326.98 357.93 327.23 357.67 327.23 357.67C329.132 360.044 330.337 362.901 330.71 365.92C330.71 365.92 336.06 370.5 336.42 370.2Z" fill="#EBCB8B"/>
<path opacity="0.4" d="M698.977 209.097C698.977 209.097 682.427 174.767 661.337 191.687C661.337 191.687 656.797 193.207 657.007 197.977C657.007 197.977 658.767 197.077 660.007 200.747C660.473 202.053 661.094 203.299 661.857 204.457C662.877 206.023 664.379 207.213 666.137 207.847V207.847C666.137 207.847 675.217 215.027 692.497 210.137C692.497 210.137 697.327 210.957 698.127 210.377L692.637 206.097C692.637 206.097 689.637 210.277 685.467 210.647C685.467 210.647 692.617 206.407 691.847 205.427C691.687 205.227 688.847 203.297 688.847 203.297C688.847 203.297 683.647 210.527 677.137 210.897C677.137 210.897 686.347 206.997 687.767 202.557L683.197 199.917C683.197 199.917 678.077 207.827 670.677 208.537C670.677 208.537 680.157 204.117 682.177 199.397L677.387 197.397C677.387 197.397 672.237 205.027 666.087 205.567C666.087 205.567 676.517 199.357 676.257 197.017C676.257 197.017 671.757 195.427 670.357 195.587C670.357 195.587 666.537 200.967 662.927 200.967C662.927 200.967 669.467 196.077 669.067 195.287C669.067 195.287 662.647 194.787 659.257 196.287C662.303 194.773 665.692 194.083 669.087 194.287C667.745 192.68 665.962 191.501 663.957 190.897C663.957 190.897 667.537 189.537 670.647 194.427C670.647 194.427 675.647 195.027 676.237 195.597C676.237 195.597 673.847 190.327 670.787 188.037C670.787 188.037 675.407 188.977 677.517 196.087L682.377 198.007C682.377 198.007 679.587 190.877 677.017 188.627C677.017 188.627 681.577 190.317 683.557 198.627L688.007 201.187C688.007 201.187 686.067 194.867 683.747 191.747C683.747 191.747 687.647 194.227 689.247 201.967L692.017 204.027C692.017 204.027 690.527 199.437 690.017 198.157C689.507 196.877 689.767 196.627 689.767 196.627C691.664 199.004 692.865 201.859 693.237 204.877C693.237 204.877 698.667 209.417 698.977 209.097Z" fill="#EBCB8B"/>
<path d="M748.911 751C748.911 751 711.051 770.56 730.611 793.6C730.611 793.6 732.451 798.6 737.771 798.25C737.771 798.25 736.711 796.31 740.771 794.76C742.216 794.202 743.589 793.473 744.861 792.59C746.58 791.401 747.865 789.685 748.521 787.7V787.7C748.521 787.7 756.261 777.34 750.261 758.17C750.261 758.17 751.041 752.75 750.361 751.87L745.761 758.18C745.761 758.18 750.511 761.37 751.061 766.06C751.061 766.06 746.061 758.19 745.061 759.06C744.841 759.24 742.781 762.51 742.781 762.51C742.781 762.51 751.021 768.1 751.631 775.36C751.631 775.36 746.991 765.19 741.981 763.74L739.111 768.86C739.111 768.86 748.111 774.34 749.111 782.58C749.111 782.58 743.881 772.13 738.541 770.02L736.431 775.43C736.431 775.43 745.111 780.95 745.911 787.81C745.911 787.81 738.651 776.34 736.041 776.7C736.041 776.7 734.401 781.78 734.621 783.35C734.621 783.35 740.751 787.45 740.861 791.48C740.861 791.48 735.201 784.33 734.331 784.8C734.331 784.8 733.971 791.99 735.711 795.73C735.711 795.73 732.711 790.39 733.201 784.8C731.447 786.351 730.185 788.381 729.571 790.64C729.571 790.64 727.941 786.69 733.311 783.05C733.311 783.05 733.821 777.46 734.441 776.77C734.441 776.77 728.631 779.61 726.161 783.09C726.161 783.09 727.071 777.9 734.951 775.32L736.951 769.84C736.951 769.84 729.071 773.18 726.641 776.12C726.641 776.12 728.391 770.97 737.571 768.5L740.291 763.5C740.291 763.5 733.291 765.86 729.871 768.5C729.871 768.5 732.521 764.07 741.131 762.03L743.341 758.88C743.341 758.88 738.261 760.69 736.841 761.34C735.421 761.99 735.141 761.67 735.141 761.67C737.737 759.474 740.89 758.041 744.251 757.53C744.251 757.53 749.261 751.34 748.911 751Z" fill="#EBCB8B"/>
<path d="M676.96 476.29C670.42 458.52 634.42 456.85 618.8 461.38C607.7 464.61 584.3 468.25 571.8 470.08L570.99 469.31C572.61 468.83 572.65 467.65 572.45 465.9C572.334 463.594 572.367 461.282 572.55 458.98C580.21 461.36 587.03 455.73 587.03 455.73C596.03 451.73 593.61 434.61 595.33 429.93C596.62 426.43 598.01 405.81 598.63 395.53H598.76L598.83 392.08C598.92 390.59 598.96 389.72 598.96 389.72C598.96 389.72 599.84 364.58 601.56 359.49C603.16 354.81 604.46 331.23 604.66 327.49C604.66 327.17 604.66 327 604.66 327L604.53 324.82C604.62 323.23 604.66 321.46 604.65 319.6C604.65 311.05 603.76 300.28 603.65 298.54C603.65 298.29 603.65 297.99 603.65 297.63C603.72 293.98 603.26 275.7 587.71 268.79C581.98 266.23 575.09 263.18 568.42 260.21C566.7 245.36 562.77 230.59 563.11 215.63C563.11 213.38 563.31 211.13 563.53 208.89C563.53 209.54 563.46 210.2 563.45 210.89C563.45 212.34 563.45 213.8 563.45 215.25C564.04 196.54 571.11 177.73 570.45 159.42C570.39 161.21 570.26 163.01 570.09 164.81C570.435 158.617 569.787 152.408 568.17 146.42C567.57 144.31 566.76 142.13 565.03 140.72C563.395 139.584 561.519 138.842 559.55 138.55C554.818 137.339 550.011 136.443 545.16 135.87C544.423 133.614 543.329 131.49 541.92 129.58C531.78 115.66 516.76 102.58 499 99.58C490.09 98.08 479.84 99.33 473.78 105.7C473.147 106.26 472.552 106.861 472 107.5C468.74 111.39 467.34 116.5 464 120.38C463.78 120.64 463.53 120.88 463.29 121.13C456.75 126.98 446.56 128.2 439.29 133.45C438.009 134.392 436.808 135.439 435.7 136.58C432.771 139.483 430.144 142.676 427.86 146.11C424.59 150.71 421.23 155.5 420.19 160.99C418.1 171.99 425.59 182.42 426.98 193.49C430.08 218.26 402.67 240.24 407.86 264.68C409.245 270.684 412.303 276.173 416.68 280.51C405.99 290.19 396.89 299.58 396.89 299.58V300.14H395.2L395.37 302.14H395.2L396.13 312.99L395.2 328.79C395.2 328.79 395.2 328.96 395.2 329.28V329.36V329.79C395.2 329.79 395.2 329.96 395.2 330.28H395.26C395.57 336.07 396.8 356.89 398.26 361.28C399.98 366.37 400.85 391.51 400.85 391.51C400.85 391.51 402.75 427.04 404.49 431.74C406.23 436.44 403.76 453.51 412.79 457.54C415.432 459.566 418.559 460.863 421.86 461.3C421.4 465.04 421.69 467.75 423.18 468.6C423.818 468.975 424.54 469.181 425.28 469.2C424.667 470.109 424.122 471.061 423.65 472.05C420.066 471.676 416.544 470.846 413.17 469.58C403.47 465.58 371.28 456.58 361.93 462.91C352.58 469.24 330.08 474.98 340.47 500.46C350.86 525.94 355.7 526.58 355.7 526.58C358.898 528.902 361.704 531.721 364.01 534.93C367.13 539.62 396.2 550.35 403.47 550.35C406.56 550.302 409.65 550.456 412.72 550.81C412.72 550.81 404.83 557.73 405.88 561.75C406.93 565.77 403.48 597.95 403.48 597.95C403.48 597.95 411.48 606.01 414.9 595.44L415.02 595.6C415.66 596.47 419.12 600.4 425.63 595.44C428.294 593.419 431.124 591.626 434.09 590.08L465.61 585.62C468.896 585.415 472.191 585.391 475.48 585.55C480.48 585.96 485.39 583 488.48 580.71C495.01 583.19 502.35 585.9 505.84 586.89C512.92 588.89 545.46 597.62 553.07 594.89C554.652 594.261 556.058 593.259 557.17 591.97L564.43 592.2L561.03 592.88C561.03 592.88 567.65 592.99 576.65 593.11L576.27 593.33L587.56 593.23C604.08 593.38 622.64 593.43 625.08 592.88C628.9 592.03 648.75 592.63 654.6 592.88H656.23C656.23 592.88 678.04 588.53 669.04 566.4C662.12 549.4 640.85 544.46 631.41 543.1C634.07 542.57 636.36 542.16 637.88 541.92C644.47 540.92 657.27 534.92 658.31 532.87C659.35 530.82 670.08 524.87 672.85 521.48C675.62 518.09 683.53 494.06 676.96 476.29ZM496.31 526.02L495.24 526.37L494.52 526.61L493.14 527.97C492.04 527.23 490.86 526.45 489.63 525.65C491.8 525.78 494.03 525.91 496.31 526.02Z" fill="url(#paint0_linear)"/>
<path d="M560.07 420.58C560.07 420.58 575.37 460.58 584.07 456.58C592.77 452.58 590.41 435.58 592.07 430.92C593.73 426.26 595.57 390.92 595.57 390.92C595.57 390.92 596.41 365.92 598.07 360.86C599.61 356.21 600.86 332.76 601.07 329.07C601.07 328.75 601.07 328.58 601.07 328.58L599.42 299.58L590.08 297.25L568.42 305.25L565.42 322.38L564.25 329.07L563.75 331.92L560.07 420.58Z" fill="#BE6F72"/>
<path opacity="0.1" d="M565.11 413.88C565.11 413.88 579.71 425.83 584.11 426.88C588.51 427.93 591.21 437.25 591.21 437.25" fill="black"/>
<path d="M440.42 422.33C440.42 422.33 425.12 462.33 416.42 458.33C407.72 454.33 410.08 437.33 408.42 432.67C406.76 428.01 404.92 392.67 404.92 392.67C404.92 392.67 404.08 367.67 402.42 362.61C400.88 357.96 399.63 334.51 399.42 330.82C399.42 330.5 399.42 330.33 399.42 330.33L401.08 301.33L410.42 299L432.08 307L435.08 324.13L436.25 330.82L436.75 333.67L440.42 422.33Z" fill="#BE6F72"/>
<path d="M540.05 208.27H505.9V261.5H540.05V208.27Z" fill="#3E373A"/>
<path opacity="0.1" d="M540.05 208.27H505.9V261.5H540.05V208.27Z" fill="black"/>
<path d="M434.42 462.17C434.42 462.17 422.75 475 427.08 477.33C431.41 479.66 459.42 523.33 459.42 523.33C459.42 523.33 551.42 534.66 568.77 517.66C586.12 500.66 585.77 470.29 585.77 470.29C585.77 470.29 571.83 473.29 570.31 471.66C568.79 470.03 560.44 462.17 560.44 462.17C560.44 462.17 442.42 455.01 434.42 462.17Z" fill="#4B4B5B"/>
<path opacity="0.02" d="M434.42 462.17C434.42 462.17 422.75 475 427.08 477.33C431.41 479.66 459.42 523.33 459.42 523.33C459.42 523.33 551.42 534.66 568.77 517.66C586.12 500.66 585.77 470.29 585.77 470.29C585.77 470.29 571.83 473.29 570.31 471.66C568.79 470.03 560.44 462.17 560.44 462.17C560.44 462.17 442.42 455.01 434.42 462.17Z" fill="black"/>
<path d="M600.04 300L570.04 324L560.97 324.66L557.64 324.9L501.71 329L443.71 324.76L435.08 324.13L424.08 323.33L401.08 301.33C401.08 301.33 417.36 283.89 431.62 272.12C437.24 267.47 442.55 263.71 446.42 262.23L447.08 262C449.514 261.051 451.687 259.536 453.42 257.58C464.68 245.97 475.09 217.32 475.09 217.32C475.09 217.32 524.76 191.66 518.76 225.32C512.76 258.98 541.09 250.66 541.09 250.66L550.43 254.92L554.12 256.61L563.53 260.92L584.76 270.66C601.42 278.33 600.04 300 600.04 300Z" fill="#BE6F72"/>
<path opacity="0.1" d="M499.38 244.73C524.051 244.73 544.05 224.731 544.05 200.06C544.05 175.39 524.051 155.39 499.38 155.39C474.709 155.39 454.71 175.39 454.71 200.06C454.71 224.731 474.709 244.73 499.38 244.73Z" fill="black"/>
<path opacity="0.1" d="M600.11 331.82H399.42C399.42 331.5 399.42 331.33 399.42 331.33L401.08 302.33C401.08 302.33 417.36 284.89 431.62 273.12L557.62 268.12L563.48 261.94L584.71 271.68C601.38 279.34 600.04 301.01 600.04 301.01C600.04 301.01 602.32 326.12 600.11 331.82Z" fill="black"/>
<path d="M600.11 330.82H399.42C399.42 330.5 399.42 330.33 399.42 330.33L401.08 301.33C401.08 301.33 417.36 283.89 431.62 272.12L557.62 267.12L563.48 260.94L584.71 270.68C601.38 278.34 600.04 300.01 600.04 300.01C600.04 300.01 602.32 325.12 600.11 330.82Z" fill="#E7C7CA"/>
<path opacity="0.1" d="M467.21 249.5C467.21 249.5 498.87 289.84 541.04 248.67C583.21 207.5 545.71 340.5 545.71 340.5L454.71 351.3L467.21 249.5Z" fill="black"/>
<path d="M467.21 251.5C467.21 251.5 498.87 291.84 541.04 250.67C583.21 209.5 545.71 342.5 545.71 342.5L454.71 353.3L467.21 251.5Z" fill="#E7C7CA"/>
<path opacity="0.1" d="M554.07 258.58L557.42 309.67L561.01 326.67L563.75 339.67C563.75 339.67 570.75 439.67 568.75 444.67C566.75 449.67 569.75 453.67 570.17 456.33C570.59 458.99 569.75 465.67 570.08 468.67C570.41 471.67 570.08 473 562.42 471.93C554.76 470.86 544.08 469 544.08 469C544.08 469 517.08 471 507.75 467.67C498.42 464.34 480.75 464.33 480.75 464.33C480.75 464.33 454.08 465 445.42 464C436.76 463 432.08 474.67 426.42 471.33C420.76 467.99 433.08 435.67 437.08 426.33C441.08 416.99 431.75 393.33 431.75 393.33L443.75 326.76L446.42 311.67V264.23L447.08 264C449.514 263.051 451.687 261.536 453.42 259.58L456.42 307.32L550.42 310.66V256.93" fill="black"/>
<path d="M554.07 256.58L557.42 307.67L561.01 324.67L563.75 337.67C563.75 337.67 570.75 437.67 568.75 442.67C566.75 447.67 569.75 451.67 570.17 454.33C570.59 456.99 569.75 463.67 570.08 466.67C570.41 469.67 570.08 471 562.42 469.93C554.76 468.86 544.08 467 544.08 467C544.08 467 517.08 469 507.75 465.67C498.42 462.34 480.75 462.33 480.75 462.33C480.75 462.33 454.08 463 445.42 462C436.76 461 432.08 472.67 426.42 469.33C420.76 465.99 433.08 433.67 437.08 424.33C441.08 414.99 431.75 391.33 431.75 391.33L443.75 324.76L446.42 309.67V262.23L447.08 262C449.514 261.051 451.687 259.536 453.42 257.58L456.42 305.32L550.42 308.66V254.93" fill="#E7C7CA"/>
<path opacity="0.1" d="M564.88 149.96C564.31 147.87 563.52 145.7 561.88 144.3C560.314 143.175 558.505 142.435 556.6 142.14C552.039 140.941 547.401 140.052 542.72 139.48C542.051 137.259 541.039 135.157 539.72 133.25C529.92 119.41 515.42 106.36 498.36 103.41C489.43 101.86 479.08 103.25 473.36 110.29C470.22 114.16 468.87 119.29 465.7 123.09C459.59 130.47 448.56 131.38 440.86 137.09C436.75 140.09 433.77 144.44 430.86 148.66C427.71 153.23 424.47 157.99 423.47 163.45C421.47 174.36 428.68 184.76 430.01 195.77C433.01 220.4 406.61 242.25 411.6 266.55C414.51 280.72 427.6 290.7 441.14 295.76C445.91 297.55 451.36 299.33 453.59 303.91C454.59 305.91 454.76 308.22 455.7 310.24C458.86 316.98 469.25 317.24 474.83 312.33C480.41 307.42 482.17 299.48 482.83 292.07C485.51 259.71 472.55 227.74 474.06 195.3C474.51 185.49 477.27 174.36 486.06 169.92C497.89 163.92 512.12 173.92 525.14 172.01C531.301 187.001 532.609 203.547 528.88 219.32C526.81 227.95 523.23 236.32 522.97 245.22C522.58 258.77 529.89 271.15 536.21 283.13C537.566 285.37 538.473 287.853 538.88 290.44C538.98 293.065 538.491 295.678 537.45 298.09C533.88 307.7 527.72 316.62 527.02 326.85C526.815 328.044 527.084 329.271 527.77 330.27C528.475 330.937 529.384 331.345 530.35 331.43C541.15 333.28 550.49 323.71 555.76 314.1C561.636 303.486 565.059 291.69 565.78 279.58C566.87 259.22 559.57 239.19 560.02 218.81C560.54 195.64 571.01 172.31 564.88 149.96Z" fill="black"/>
<path d="M565.88 148.96C565.31 146.87 564.52 144.7 562.88 143.3C561.314 142.175 559.505 141.435 557.6 141.14C553.039 139.941 548.401 139.052 543.72 138.48C543.051 136.259 542.039 134.157 540.72 132.25C530.92 118.41 516.42 105.36 499.36 102.41C490.43 100.86 480.08 102.25 474.36 109.29C471.22 113.16 469.87 118.29 466.7 122.09C460.59 129.47 449.56 130.38 441.86 136.09C437.75 139.09 434.77 143.44 431.86 147.66C428.71 152.23 425.47 156.99 424.47 162.45C422.47 173.36 429.68 183.76 431.01 194.77C434.01 219.4 407.61 241.25 412.6 265.55C415.51 279.72 428.6 289.7 442.14 294.76C446.91 296.55 452.36 298.33 454.59 302.91C455.59 304.91 455.76 307.22 456.7 309.24C459.86 315.98 470.25 316.24 475.83 311.33C481.41 306.42 483.17 298.48 483.83 291.07C486.51 258.71 473.55 226.74 475.06 194.3C475.51 184.49 478.27 173.36 487.06 168.92C498.89 162.92 513.12 172.92 526.14 171.01C532.301 186.001 533.609 202.547 529.88 218.32C527.81 226.95 524.23 235.32 523.97 244.22C523.58 257.77 530.89 270.15 537.21 282.13C538.566 284.37 539.473 286.853 539.88 289.44C539.98 292.065 539.491 294.678 538.45 297.09C534.88 306.7 528.72 315.62 528.02 325.85C527.815 327.044 528.084 328.271 528.77 329.27C529.475 329.937 530.384 330.345 531.35 330.43C542.15 332.28 551.49 322.71 556.76 313.1C562.636 302.486 566.059 290.69 566.78 278.58C567.87 258.22 560.57 238.19 561.02 217.81C561.54 194.64 572.01 171.31 565.88 148.96Z" fill="#3E373A"/>
<path d="M543.79 591.73L583.46 593L577.77 563.58L547.38 566.47L543.79 591.73Z" fill="#C3C7D9"/>
<path d="M666.71 522C664.04 525.33 653.71 531.33 652.71 533.33C651.71 535.33 639.38 541.33 633.04 542.33C626.7 543.33 606.71 547.67 603.04 550C600.41 551.68 579.3 557 565.43 559.95C561.673 560.839 557.871 561.523 554.04 562C548.04 562.33 482.38 540 482.38 540L495.04 527L495.74 526.76C499.32 525.55 515.86 519.96 525.04 517.3C535.38 514.3 547.38 501.97 547.38 501.97C547.38 501.97 565.04 495.97 567.38 495.3C569.72 494.63 561.38 471.97 561.38 471.97C561.38 471.97 599.71 466.65 614.71 462.14C629.71 457.63 664.38 459.3 670.71 476.97C677.04 494.64 669.42 518.67 666.71 522Z" fill="#4B4B5B"/>
<path d="M492.04 578.33C492.04 578.33 484.38 586.33 476.71 585.67C469.04 585.01 442.22 587.67 442.22 587.67C437.36 589.609 432.808 592.246 428.71 595.5C422.44 600.44 419.11 596.5 418.49 595.66L418.38 595.5C415.04 606.01 407.38 598 407.38 598C407.38 598 410.71 566 409.69 562C408.67 558 416.28 551.13 416.28 551.13L425.28 548.84L448.08 543L480.75 554.33L492.04 578.33Z" fill="#E7C7CA"/>
<path opacity="0.1" d="M425.24 548.84L418.49 595.66L418.38 595.5C415.04 606.01 407.38 598 407.38 598C407.38 598 410.71 566 409.69 562C408.67 558 416.28 551.13 416.28 551.13L425.24 548.84Z" fill="black"/>
<path opacity="0.1" d="M472.42 415.66C472.42 415.66 490.08 421.66 505.42 415.66Z" fill="black"/>
<path opacity="0.1" d="M532.71 427C532.71 427 540.04 430.66 545.71 427Z" fill="black"/>
<path opacity="0.1" d="M532.71 435.68C532.71 435.68 545.04 437.33 547.38 434Z" fill="black"/>
<path opacity="0.1" d="M528.71 454.33C528.71 454.33 551.87 451.33 557.62 447.33Z" fill="black"/>
<path opacity="0.1" d="M458.04 447.33C458.04 447.33 471.04 454.66 480.71 454.33Z" fill="black"/>
<path opacity="0.1" d="M565.42 559.95C561.663 560.839 557.861 561.523 554.03 562C548.03 562.33 482.37 540 482.37 540L495.03 527L495.73 526.76C497.73 528.17 499.37 529.38 500.54 530.3C506.05 534.64 511.37 528.97 513.37 528.97C515.37 528.97 532.7 543.3 532.7 543.3C532.7 543.3 548.7 546.97 551.37 550.3C554.04 553.63 563.37 552.97 565.03 555.3C565.53 556.02 565.59 557.79 565.42 559.95Z" fill="black"/>
<path d="M442.22 473.33C442.22 473.33 426.04 474.26 416.71 470.33C407.38 466.4 376.38 457.33 367.38 463.7C358.38 470.07 336.71 475.7 346.71 501.04C356.71 526.38 361.38 527.04 361.38 527.04C364.474 529.36 367.175 532.163 369.38 535.34C372.38 540.01 400.38 550.67 407.38 550.67C414.38 550.67 426.71 550.67 444.04 562.67C461.37 574.67 477.04 576.01 477.04 576.01C477.04 576.01 499.04 585.01 505.89 587.01C512.74 589.01 544.04 597.67 551.38 595.01C558.72 592.35 563.38 575.67 563.38 575.67C563.38 575.67 566.71 560.67 565.04 558.34C563.37 556.01 554.04 556.67 551.38 553.34C548.72 550.01 532.71 546.34 532.71 546.34C532.71 546.34 515.42 532 513.42 532C511.42 532 506.1 537.66 500.59 533.33C489.614 525.2 478.083 517.849 466.08 511.33C453.42 504.66 442.22 473.33 442.22 473.33Z" fill="#4B4B5B"/>
<path opacity="0.1" d="M409.69 483C412.571 482.412 415.549 482.496 418.392 483.247C421.235 483.998 423.866 485.395 426.08 487.33C434.08 494 461 507.39 461 507.39" fill="black"/>
<path opacity="0.1" d="M609.71 482.58C609.71 482.58 574.04 487.98 567.38 495.31Z" fill="black"/>
<path d="M650.71 593H649.14C643.5 592.8 624.39 592.2 620.71 593C616.38 594 559.04 593 559.04 593L570.25 590.67C570.25 590.67 566.09 576.09 568.73 574.88C568.73 574.88 553.73 565 565.04 558.33C576.35 551.66 588.54 554.47 588.54 554.47L616.93 544.85L622.38 543C622.38 543 654.38 544.67 663.04 566.67C671.7 588.67 650.71 593 650.71 593Z" fill="#E7C7CA"/>
<path opacity="0.1" d="M650.71 593H649.14C658.45 585.32 679.51 561.94 616.93 544.9L622.38 543.05C622.38 543.05 654.38 544.72 663.04 566.72C671.7 588.72 650.71 593 650.71 593Z" fill="black"/>
<path d="M591.88 567.08C592.847 567.08 593.63 566.297 593.63 565.33C593.63 564.364 592.847 563.58 591.88 563.58C590.914 563.58 590.13 564.364 590.13 565.33C590.13 566.297 590.914 567.08 591.88 567.08Z" fill="#4B4B5B"/>
<path d="M581.71 569.97C582.677 569.97 583.46 569.186 583.46 568.22C583.46 567.253 582.677 566.47 581.71 566.47C580.744 566.47 579.96 567.253 579.96 568.22C579.96 569.186 580.744 569.97 581.71 569.97Z" fill="#4B4B5B"/>
<g opacity="0.1">
<path opacity="0.1" d="M532.16 198.41C532.548 187.411 530.591 176.455 526.42 166.27C513.42 168.21 499.18 158.18 487.34 164.18C478.58 168.62 475.83 179.75 475.34 189.56C475.22 192.15 475.2 194.74 475.25 197.33C475.25 196.41 475.25 195.48 475.34 194.56C475.8 184.75 478.55 173.62 487.34 169.18C499.18 163.18 513.4 173.18 526.42 171.27C529.953 179.897 531.897 189.091 532.16 198.41V198.41Z" fill="black"/>
<path opacity="0.1" d="M431.42 196.58C431.591 194.401 431.548 192.21 431.29 190.04C430.23 181.24 425.42 172.83 424.55 164.25C423.43 174.6 430.02 184.54 431.29 195.04C431.42 195.58 431.42 196.06 431.42 196.58Z" fill="black"/>
<path opacity="0.1" d="M484.11 286.32C483.49 293.74 481.74 301.67 476.11 306.59C470.48 311.51 460.11 311.24 456.98 304.5C455.98 302.5 455.83 300.17 454.86 298.17C452.64 293.59 447.18 291.81 442.41 290.02C428.86 284.95 415.79 275.02 412.88 260.81C412.62 259.523 412.443 258.22 412.35 256.91C412.104 259.887 412.283 262.884 412.88 265.81C415.79 279.98 428.88 289.95 442.41 295.02C447.18 296.81 452.64 298.59 454.86 303.17C455.86 305.17 456.03 307.48 456.98 309.5C460.13 316.24 470.52 316.5 476.11 311.59C481.7 306.68 483.44 298.74 484.11 291.32C484.415 287.415 484.518 283.496 484.42 279.58C484.42 281.85 484.29 284.09 484.11 286.32Z" fill="black"/>
<path opacity="0.1" d="M561.35 213.07C561.35 214.52 561.35 215.96 561.35 217.4C561.91 198.8 568.73 180.1 568.06 161.89C567.54 178.73 561.73 195.95 561.35 213.07Z" fill="black"/>
<path opacity="0.1" d="M539.89 288.31C540.136 287.124 540.213 285.908 540.12 284.7C539.717 282.112 538.81 279.629 537.45 277.39C531.67 266.39 525.08 255.13 524.3 242.92C524.3 243.44 524.23 243.92 524.22 244.48C523.82 258.02 531.13 270.41 537.45 282.39C538.524 284.246 539.345 286.237 539.89 288.31V288.31Z" fill="black"/>
<path opacity="0.1" d="M567.1 273.84C566.354 285.955 562.906 297.75 557.01 308.36C551.73 317.97 542.4 327.54 531.59 325.69C530.622 325.607 529.711 325.194 529.01 324.52C528.807 324.291 528.648 324.027 528.54 323.74C528.42 324.52 528.32 325.31 528.26 326.11C528.053 327.301 528.323 328.526 529.01 329.52C529.711 330.194 530.622 330.607 531.59 330.69C542.4 332.54 551.73 322.97 557.01 313.36C562.906 302.75 566.354 290.955 567.1 278.84C567.22 276.5 567.23 274.17 567.16 271.84C567.14 272.51 567.14 273.17 567.1 273.84Z" fill="black"/>
</g>
<path opacity="0.1" d="M568.73 574.88C568.73 574.88 594.04 585.5 610.73 562" stroke="black" stroke-miterlimit="10"/>
<path opacity="0.1" d="M573.71 593.44C573.71 593.44 594.38 580 620.71 593" stroke="black" stroke-miterlimit="10"/>
<path opacity="0.1" d="M435.35 590.39C435.35 590.39 444.03 570.81 467.21 585.74" stroke="black" stroke-miterlimit="10"/>
<path opacity="0.1" d="M407.21 300.83L424.91 284.83C424.91 284.83 493.54 280.33 496.38 303.66C496.38 303.66 520.71 276 571.88 282.16L593.53 299.4L533.69 325.66L475.54 345.83L432.71 326.66L407.21 300.83Z" fill="black"/>
<path d="M407.21 301.83L424.91 285.83C424.91 285.83 493.54 281.33 496.38 304.66C496.38 304.66 520.71 277 571.88 283.16L593.53 300.4L533.69 326.66L475.54 346.83L432.71 327.66L407.21 301.83Z" fill="#D5D6DB"/>
<path opacity="0.1" d="M399.38 303.83L407.21 397.5L490.21 401.67L486.61 308.4L486.54 306.83L399.38 303.83Z" fill="black"/>
<path d="M399.38 301.83L407.21 395.5L490.21 399.67L486.61 306.4L486.54 304.83L399.38 301.83Z" fill="#EBCB8B"/>
<path opacity="0.1" d="M597.33 301.83L511.71 314.67V408.76L595.38 396.67L597.33 301.83Z" fill="black"/>
<path d="M597.33 299.83L511.71 312.67V406.76L595.38 394.67L597.33 299.83Z" fill="#EBCB8B"/>
<path opacity="0.3" d="M577.14 322.79L530.89 327.93L531.9 343.69L577.11 338.75L577.14 322.79Z" fill="white"/>
<path d="M411.71 445.66L416.42 458.33C416.42 458.33 423.42 464.33 431.08 461.33C438.74 458.33 445.42 456.84 448.75 453.92C452.08 451 456.75 436.33 456.75 436.33C456.75 436.33 461.42 420.33 466.08 416.33C470.74 412.33 483.08 357.22 466.08 362.61C449.08 368 436.08 418 436.08 418C436.08 418 433.08 421.66 428.75 422C424.42 422.34 415.75 421.33 414.08 425C412.41 428.67 406.71 438.33 411.71 445.66Z" fill="#BE6F72"/>
<path opacity="0.1" d="M511.71 314.66C507.326 315.648 502.772 315.596 498.412 314.509C494.052 313.422 490.007 311.33 486.6 308.4L490.21 401.66C490.21 401.66 498.71 410.86 511.71 408.76V314.66Z" fill="black"/>
<path d="M511.71 312.66C507.326 313.648 502.772 313.596 498.412 312.509C494.052 311.422 490.007 309.33 486.6 306.4L490.21 399.66C490.21 399.66 498.71 408.86 511.71 406.76V312.66Z" fill="#EBCB8B"/>
<path opacity="0.1" d="M511.71 312.66C507.326 313.648 502.772 313.596 498.412 312.509C494.052 311.422 490.007 309.33 486.6 306.4L490.21 399.66C490.21 399.66 498.71 408.86 511.71 406.76V312.66Z" fill="black"/>
<path opacity="0.1" d="M513.71 302.15C513.71 302.15 548.54 291.5 557.62 293Z" fill="black"/>
<path opacity="0.1" d="M474.75 297.5C474.75 297.5 440.99 289.5 435.35 291.77Z" fill="black"/>
<path opacity="0.1" d="M535.67 303.48C535.67 303.48 558.96 294.94 567.38 299Z" fill="black"/>
<path opacity="0.1" d="M523.94 517.71C527.549 515 531.391 512.614 535.42 510.58C541.42 507.69 552.42 500.19 552.42 500.19" fill="black"/>
<path opacity="0.1" d="M435.35 415.66C435.35 415.66 420.74 427.61 416.35 428.66C411.96 429.71 409.25 439.03 409.25 439.03" fill="black"/>
<path d="M588.74 443.88L584.08 456.58C584.08 456.58 577.08 462.58 569.41 459.58C561.74 456.58 555.08 455.09 551.74 452.17C548.4 449.25 543.74 434.58 543.74 434.58C543.74 434.58 539.08 418.58 534.41 414.58C529.74 410.58 517.41 355.47 534.41 360.86C551.41 366.25 564.41 416.25 564.41 416.25C564.41 416.25 567.41 419.91 571.74 420.25C576.07 420.59 584.74 419.58 586.41 423.25C588.08 426.92 593.74 436.58 588.74 443.88Z" fill="#BE6F72"/>
<path opacity="0.1" d="M580.57 420.52C580.57 420.52 590.12 426.66 590.08 434Z" fill="black"/>
<path d="M499.54 242.54C524.211 242.54 544.21 222.541 544.21 197.87C544.21 173.199 524.211 153.2 499.54 153.2C474.869 153.2 454.87 173.199 454.87 197.87C454.87 222.541 474.869 242.54 499.54 242.54Z" fill="#BE6F72"/>
<path d="M471.49 185.88C476.91 185.03 481.66 181.88 486.84 180.07C498.43 176 511.25 178.79 522.98 182.46C527.48 183.87 532.05 185.46 536.77 185.46C541.49 185.46 546.5 183.53 548.91 179.46C551.13 175.72 550.7 170.86 548.83 166.93C546.96 163 543.83 159.84 540.67 156.86C530.27 147.04 517.37 137.86 503.1 138.86C497.36 139.27 491.87 141.32 486.59 143.59C479.942 146.455 473.47 149.714 467.21 153.35C462.4 156.14 453.49 159.87 450.72 164.97C444.42 176.46 461.69 187.42 471.49 185.88Z" fill="#3E373A"/>
<path opacity="0.1" d="M548.91 175.26C546.5 179.33 541.49 181.26 536.77 181.26C532.05 181.26 527.48 179.73 522.97 178.32C511.24 174.65 498.43 171.85 486.83 175.93C481.66 177.74 476.9 180.93 471.48 181.73C463.58 182.97 450.86 176.09 449.48 167.34C447.93 177.45 462.68 186.11 471.48 184.73C476.9 183.88 481.66 180.73 486.83 178.93C498.43 174.85 511.24 177.65 522.97 181.32C527.48 182.73 532.04 184.32 536.77 184.26C541.5 184.2 546.5 182.34 548.91 178.26C550.159 176.041 550.651 173.474 550.31 170.95C550.154 172.47 549.677 173.939 548.91 175.26Z" fill="black"/>
</g>
<defs>
<linearGradient id="paint0_linear" x1="508.64" y1="600.92" x2="508.64" y2="99" gradientUnits="userSpaceOnUse">
<stop stop-color="#808080" stop-opacity="0.25"/>
<stop offset="0.54" stop-color="#808080" stop-opacity="0.12"/>
<stop offset="1" stop-color="#808080" stop-opacity="0.1"/>
</linearGradient>
<clipPath id="clip0">
<rect width="808" height="816" fill="white"/>
</clipPath>
</defs>
</svg>
