<svg width="1200" height="802" viewBox="0 0 1200 802" fill="none" xmlns="http://www.w3.org/2000/svg">
<path d="M1094.2 336.037C1047.86 395.297 960.423 408.867 888.073 388.227C864.4 381.308 841.562 371.801 819.973 359.877C807.433 353.067 795.193 345.597 783.203 337.637C780.253 335.687 777.303 333.707 774.383 331.687C772.393 330.327 770.409 328.95 768.433 327.557C743.673 310.137 719.883 291.027 696.493 272.027C638.103 224.597 578.113 175.707 506.373 153.077C491.593 148.417 472.473 146.237 463.333 158.757C455.403 169.627 460.243 185.017 466.953 196.677C491.843 239.867 537.023 267.137 582.243 288.107C627.462 309.077 675.363 326.067 714.672 356.727C753.983 387.387 783.993 436.117 775.953 485.307C769.023 527.697 734.413 562.137 694.172 577.147C653.933 592.147 609.053 590.057 567.223 580.317C525.393 570.567 485.683 553.557 445.313 538.897C420.973 530.047 389.153 523.927 373.003 544.177C359.363 561.287 367.203 588.277 383.813 602.517C400.422 616.757 422.903 621.527 444.353 625.807C510.953 639.107 577.553 652.403 644.153 665.697C664.583 669.767 685.493 674.027 703.293 684.867C721.093 695.697 735.453 714.617 734.943 735.447C734.433 755.977 719.403 774.117 700.983 783.207C682.573 792.287 661.313 793.687 640.803 792.707C563.943 789.027 343.593 666.917 290.743 651.307C256.783 641.287 219.653 626.567 205.333 594.187C187.503 553.877 216.843 505.107 256.893 486.697C296.933 468.277 343.353 472.357 386.993 478.557C430.633 484.757 475.712 492.647 518.193 480.867C560.672 469.087 599.593 430.687 595.403 386.807C591.753 348.627 557.363 319.857 521.172 307.177C492.843 297.247 462.703 294.547 432.943 290.077C424.683 288.847 416.453 287.467 408.303 285.767C387.431 281.394 367.071 274.858 347.553 266.267C327.071 257.27 307.613 246.103 289.513 232.957C275.076 222.487 261.585 210.772 249.193 197.947C247.303 195.987 245.433 193.983 243.583 191.937C241.823 189.977 240.083 187.977 238.383 185.937C216.263 159.507 199.923 126.957 204.823 93.4167C209.713 59.9667 235.783 32.1167 266.823 18.7367C284.763 11.0067 304.113 7.54668 323.703 7.04668C338.027 6.7604 352.347 7.79141 366.483 10.1267C431.893 20.5867 491.833 52.3667 548.443 86.7767C605.043 121.187 660.203 158.957 721.733 183.487C783.263 208.027 853.303 218.417 915.723 196.227C978.143 174.047 1029.42 113.527 1026.37 47.3567C1067.77 83.0067 1102.95 127.817 1118.53 180.177C1134.11 232.537 1127.85 292.997 1094.2 336.037Z" fill="#4C566A"/>
<path d="M795.911 267.652C799.93 267.652 803.188 264.393 803.188 260.374C803.188 256.355 799.93 253.096 795.911 253.096C791.891 253.096 788.633 256.355 788.633 260.374C788.633 264.393 791.891 267.652 795.911 267.652Z" fill="#EBCB8B"/>
<path d="M1052.91 175.626C1059.12 175.626 1064.16 170.588 1064.16 164.374C1064.16 158.16 1059.12 153.122 1052.91 153.122C1046.7 153.122 1041.66 158.16 1041.66 164.374C1041.66 170.588 1046.7 175.626 1052.91 175.626Z" fill="#FF6F61"/>
<path d="M314.911 522.531C317.207 522.531 319.068 520.67 319.068 518.374C319.068 516.078 317.207 514.217 314.911 514.217C312.615 514.217 310.753 516.078 310.753 518.374C310.753 520.67 312.615 522.531 314.911 522.531Z" fill="#FF6F61"/>
<path d="M434.243 279.376C434.245 282.983 433.809 286.576 432.943 290.076C424.683 288.846 416.453 287.466 408.303 285.766C387.431 281.393 367.071 274.858 347.553 266.266C350.691 256.132 357.36 247.46 366.347 241.823C375.335 236.186 386.045 233.959 396.535 235.545C407.025 237.131 416.598 242.426 423.516 250.469C430.435 258.511 434.241 268.768 434.243 279.376V279.376Z" fill="#FF6F61"/>
<path d="M980.911 241.626C983.259 241.626 985.163 239.722 985.163 237.374C985.163 235.026 983.259 233.122 980.911 233.122C978.562 233.122 976.659 235.026 976.659 237.374C976.659 239.722 978.562 241.626 980.911 241.626Z" fill="#F0F0F0"/>
<path d="M591.911 709.626C594.259 709.626 596.163 707.722 596.163 705.374C596.163 703.026 594.259 701.122 591.911 701.122C589.562 701.122 587.659 703.026 587.659 705.374C587.659 707.722 589.562 709.626 591.911 709.626Z" fill="#F0F0F0"/>
<path d="M652.911 768.626C655.259 768.626 657.163 766.722 657.163 764.374C657.163 762.026 655.259 760.122 652.911 760.122C650.562 760.122 648.659 762.026 648.659 764.374C648.659 766.722 650.562 768.626 652.911 768.626Z" fill="#F0F0F0"/>
<path d="M275.911 600.626C278.259 600.626 280.163 598.722 280.163 596.374C280.163 594.026 278.259 592.122 275.911 592.122C273.562 592.122 271.659 594.026 271.659 596.374C271.659 598.722 273.562 600.626 275.911 600.626Z" fill="#F0F0F0"/>
<path d="M484.911 521.626C487.259 521.626 489.163 519.722 489.163 517.374C489.163 515.026 487.259 513.122 484.911 513.122C482.562 513.122 480.659 515.026 480.659 517.374C480.659 519.722 482.562 521.626 484.911 521.626Z" fill="#F0F0F0"/>
<path d="M463.911 99.626C466.259 99.626 468.163 97.7223 468.163 95.374C468.163 93.0257 466.259 91.1221 463.911 91.1221C461.562 91.1221 459.659 93.0257 459.659 95.374C459.659 97.7223 461.562 99.626 463.911 99.626Z" fill="#F0F0F0"/>
<path d="M720.911 432.626C723.259 432.626 725.163 430.722 725.163 428.374C725.163 426.026 723.259 424.122 720.911 424.122C718.562 424.122 716.659 426.026 716.659 428.374C716.659 430.722 718.562 432.626 720.911 432.626Z" fill="#F0F0F0"/>
<path d="M752.911 506.626C755.259 506.626 757.163 504.722 757.163 502.374C757.163 500.026 755.259 498.122 752.911 498.122C750.562 498.122 748.659 500.026 748.659 502.374C748.659 504.722 750.562 506.626 752.911 506.626Z" fill="#F0F0F0"/>
<path d="M369.643 108.946C369.674 130.415 364.601 151.584 354.843 170.706C353.553 173.226 352.186 175.703 350.743 178.136C336.452 202.269 315.072 221.411 289.513 232.956C275.076 222.487 261.584 210.772 249.193 197.946C247.303 195.986 245.433 193.983 243.583 191.936C241.823 189.976 240.083 187.976 238.383 185.936C216.263 159.506 199.922 126.956 204.823 93.4165C209.712 59.9665 235.783 32.1165 266.823 18.7365C284.763 11.0065 304.113 7.54651 323.703 7.04651C339.02 20.5736 351.095 37.3757 359.033 56.2065C360.033 58.5765 360.953 60.9765 361.823 63.4065C367.012 78.0281 369.657 93.4312 369.643 108.946Z" fill="#EBCB8B"/>
<path d="M431.643 115.946C431.643 136.776 411.303 156.096 374.363 170.366C366.973 173.226 359.063 175.816 350.743 178.136C319.603 186.816 282.542 191.626 243.583 191.936C241.823 189.976 240.083 187.976 238.383 185.936C238.803 185.946 239.223 185.946 239.643 185.946C281.953 185.946 322.093 180.586 354.843 170.706C360.893 168.876 366.693 166.896 372.203 164.766C406.163 151.656 425.643 133.856 425.643 115.946C425.643 98.0365 406.163 80.2465 372.203 67.1265C368.843 65.8265 365.383 64.5865 361.823 63.4065C360.953 60.9765 360.033 58.5765 359.033 56.2065C364.353 57.8665 369.463 59.6398 374.363 61.5265C411.303 75.7965 431.643 95.1265 431.643 115.946Z" fill="#E4E4E4"/>
<path d="M245.911 41.626C248.259 41.626 250.163 39.7223 250.163 37.374C250.163 35.0257 248.259 33.1221 245.911 33.1221C243.562 33.1221 241.659 35.0257 241.659 37.374C241.659 39.7223 243.562 41.626 245.911 41.626Z" fill="#F0F0F0"/>
<path d="M334.911 68.626C337.259 68.626 339.163 66.7223 339.163 64.374C339.163 62.0257 337.259 60.1221 334.911 60.1221C332.562 60.1221 330.659 62.0257 330.659 64.374C330.659 66.7223 332.562 68.626 334.911 68.626Z" fill="#F0F0F0"/>
<path d="M288.911 148.722C311.747 148.722 330.259 130.21 330.259 107.374C330.259 84.5379 311.747 66.0256 288.911 66.0256C266.075 66.0256 247.562 84.5379 247.562 107.374C247.562 130.21 266.075 148.722 288.911 148.722Z" fill="#F0F0F0"/>
<path opacity="0.3" d="M1052.51 326.216C1043.23 328.956 1022.77 330.976 1000.27 332.216C977.783 333.446 953.113 333.986 928.752 334.506C886.113 335.426 843.476 336.35 800.843 337.276C794.982 337.406 789.102 337.526 783.203 337.636C780.252 335.686 777.303 333.706 774.383 331.686C779.613 331.716 784.843 331.686 790.033 331.586C812.203 331.146 830.973 329.416 852.353 328.596C885.252 327.326 920.772 328.326 955.063 328.836C989.353 329.356 1028.42 329.166 1052.51 326.216Z" fill="#F0F0F0"/>
<path opacity="0.3" d="M398.083 641.447L262.163 528.217L394.208 645.983C394.463 646.413 394.818 646.777 395.242 647.043C395.666 647.309 396.148 647.471 396.647 647.514C397.146 647.556 397.648 647.48 398.112 647.29C398.575 647.1 398.987 646.802 399.312 646.421C399.638 646.041 399.868 645.588 399.983 645.1C400.098 644.613 400.096 644.105 399.976 643.619C399.856 643.132 399.621 642.682 399.292 642.304C398.963 641.926 398.549 641.633 398.084 641.447H398.083Z" fill="#F0F0F0"/>
<path d="M294.911 212.626C297.259 212.626 299.163 210.722 299.163 208.374C299.163 206.026 297.259 204.122 294.911 204.122C292.562 204.122 290.659 206.026 290.659 208.374C290.659 210.722 292.562 212.626 294.911 212.626Z" fill="#F0F0F0"/>
<path d="M652.017 701.054L669.604 701.053L677.971 633.216L652.014 633.217L652.017 701.054Z" fill="#FFB6B6"/>
<path d="M647.531 695.312L652.481 695.312L671.808 687.452L682.166 695.31H682.168C688.022 695.311 693.636 697.636 697.775 701.776C701.914 705.915 704.24 711.529 704.24 717.383V718.1L647.532 718.102L647.531 695.312Z" fill="#2F2E41"/>
<path d="M520.308 701.054L502.721 701.053L494.354 633.216L520.311 633.217L520.308 701.054Z" fill="#FFB6B6"/>
<path d="M524.793 718.102L468.085 718.1V717.383C468.085 711.529 470.411 705.915 474.55 701.776C478.69 697.636 484.304 695.311 490.158 695.31H490.159L500.517 687.452L519.844 695.312L524.795 695.312L524.793 718.102Z" fill="#2F2E41"/>
<path d="M583.325 181.168L565.517 194.728L518.212 207.256C518.212 207.256 535.163 326.216 527.163 334.216C519.163 342.216 526.378 342.431 524.77 352.824C523.163 363.217 516.757 390.655 516.757 390.655H657.945C657.945 390.655 659.082 373.602 652.122 369.909C645.163 366.216 658.538 348.98 652.85 346.098C647.163 343.216 655.163 318.216 655.163 318.216L672.5 236.367L626.386 200.287L619.373 183.39L583.325 181.168Z" fill="#EBCB8B"/>
<path d="M605.545 287.47C608.948 287.47 611.707 284.711 611.707 281.309C611.707 277.906 608.948 275.147 605.545 275.147C602.142 275.147 599.384 277.906 599.384 281.309C599.384 284.711 602.142 287.47 605.545 287.47Z" fill="#F2F2F2"/>
<path d="M516.757 390.655L510.935 540.576C510.935 540.576 485.796 651.305 490.163 654.217C494.529 657.128 496.379 674.486 496.379 674.486L521.124 677.397C521.124 677.397 521.124 665.752 526.946 661.386C532.768 657.019 586.623 451.788 586.623 451.788L639.163 650.217C639.163 650.217 640.478 661.386 644.845 661.386C649.211 661.386 650.667 677.397 650.667 677.397H675.411V661.386C675.411 661.386 686.529 657.861 682.163 646.217C677.796 634.572 657.945 390.655 657.945 390.655H516.757Z" fill="#2F2E41"/>
<path d="M601.817 172.234C618.297 172.234 631.656 158.875 631.656 142.396C631.656 125.916 618.297 112.557 601.817 112.557C585.338 112.557 571.979 125.916 571.979 142.396C571.979 158.875 585.338 172.234 601.817 172.234Z" fill="#FFB6B6"/>
<path opacity="0.1" d="M652.85 276.394L658.672 280.761L661.583 260.383L652.85 276.394Z" fill="black"/>
<path d="M521.003 207.14C521.003 207.14 513.725 205.685 509.358 218.785C504.992 231.885 488.981 281.373 488.981 290.106C488.981 298.839 588.691 337.373 588.691 337.373L578.316 300.977L532.647 277.006L521.003 207.14Z" fill="#EBCB8B"/>
<path d="M593.316 331.977C602.705 331.977 610.316 324.366 610.316 314.977C610.316 305.588 602.705 297.977 593.316 297.977C583.927 297.977 576.316 305.588 576.316 314.977C576.316 324.366 583.927 331.977 593.316 331.977Z" fill="#FFB6B6"/>
<path opacity="0.1" d="M531.316 258.977L532.647 277.006L574.878 299.172L537.316 273.977L531.316 258.977Z" fill="black"/>
<path d="M632.839 261.547H632.291V246.539C632.291 245.398 632.067 244.269 631.63 243.215C631.194 242.161 630.554 241.204 629.747 240.397C628.941 239.59 627.983 238.951 626.929 238.514C625.875 238.077 624.746 237.853 623.605 237.853H591.808C590.667 237.853 589.538 238.077 588.484 238.514C587.43 238.951 586.472 239.59 585.666 240.397C584.859 241.204 584.219 242.161 583.783 243.215C583.346 244.269 583.122 245.398 583.122 246.539V328.876C583.122 330.016 583.346 331.146 583.783 332.2C584.219 333.254 584.859 334.211 585.666 335.018C586.472 335.825 587.43 336.464 588.484 336.901C589.538 337.337 590.667 337.562 591.808 337.562H623.605C624.746 337.562 625.875 337.337 626.929 336.901C627.983 336.464 628.941 335.825 629.747 335.018C630.554 334.211 631.194 333.254 631.63 332.2C632.067 331.146 632.291 330.016 632.291 328.876V272.231H632.839V261.547Z" fill="#F0F0F0"/>
<path d="M672.5 236.367C672.5 236.367 676.867 239.278 679.778 252.378C682.689 265.478 701.611 314.966 694.333 326.611C687.055 338.255 684.907 350.683 660.163 333.216L625.923 301.866L650.667 278.578L660.856 285.855L672.5 236.367Z" fill="#EBCB8B"/>
<path d="M608.095 274.55C612.114 274.55 615.373 271.292 615.373 267.273C615.373 263.253 612.114 259.995 608.095 259.995C604.075 259.995 600.817 263.253 600.817 267.273C600.817 271.292 604.075 274.55 608.095 274.55Z" fill="#EBCB8B"/>
<path d="M629.163 300.217C638.551 300.217 646.163 292.605 646.163 283.217C646.163 273.828 638.551 266.217 629.163 266.217C619.774 266.217 612.163 273.828 612.163 283.217C612.163 292.605 619.774 300.217 629.163 300.217Z" fill="#FFB6B6"/>
<path opacity="0.1" d="M530.514 313.39L579.316 334.977L529.158 325.174L530.514 313.39Z" fill="black"/>
<path d="M571.713 148.342L567.617 132.75C566.548 128.682 565.47 124.531 565.71 120.332C565.95 116.132 567.731 111.799 571.269 109.524C574.807 107.249 580.208 107.786 582.485 111.323C582.918 105.675 588.055 101.331 593.507 99.7921C598.958 98.2531 604.745 98.8617 610.404 99.1214C616.062 99.381 622.035 99.1998 626.918 96.3301C627.29 97.4467 627.266 98.6575 626.849 99.7581C626.432 100.859 625.648 101.782 624.629 102.371C625.843 102.703 627.138 102.56 628.251 101.973C629.364 101.386 630.212 100.398 630.624 99.2094C630.661 102.48 629.453 105.643 627.243 108.055C629.351 107.009 631.772 106.785 634.035 107.426C636.299 108.067 638.243 109.527 639.489 111.522C641.981 115.843 640.585 121.269 639.127 126.039L631.643 150.522C630.508 146.8 630.294 142.871 629.687 139.028C629.08 135.184 628 131.259 625.463 128.309C622.926 125.359 618.616 123.651 615.012 125.116C612.989 125.937 611.447 127.605 609.621 128.801C605.875 131.257 601.109 131.609 596.658 131.109C592.207 130.609 587.869 129.342 583.418 128.836C580.632 128.519 577.522 128.603 575.419 130.459C573.973 131.961 573.018 133.868 572.681 135.926C571.689 140.028 571.298 144.252 571.523 148.467" fill="#2F2E41"/>
<path d="M492.554 440.577H516.416V466.285H492.554V509H460.518V466.285H377.593L376.67 446.773L459.463 317.047H492.554V440.577ZM410.288 440.577H460.518V360.421L458.145 364.64L410.288 440.577ZM662.754 428.185C662.754 455.782 657.568 476.612 647.197 490.675C636.914 504.649 621.226 511.637 600.132 511.637C579.39 511.637 563.745 504.825 553.198 491.202C542.739 477.491 537.378 457.232 537.114 430.426V397.203C537.114 369.605 542.256 348.907 552.539 335.108C562.91 321.31 578.687 314.41 599.868 314.41C620.874 314.41 636.519 321.134 646.802 334.581C657.173 348.028 662.49 368.155 662.754 394.962V428.185ZM630.718 392.325C630.718 374.308 628.257 361.124 623.335 352.774C618.413 344.337 610.591 340.118 599.868 340.118C589.409 340.118 581.719 344.117 576.797 352.115C571.875 360.025 569.282 372.418 569.019 389.293V432.799C569.019 450.729 571.523 464.088 576.533 472.877C581.543 481.666 589.409 486.061 600.132 486.061C610.415 486.061 618.018 482.018 622.939 473.932C627.861 465.758 630.454 453.014 630.718 435.699V392.325ZM799.468 440.577H823.33V466.285H799.468V509H767.432V466.285H684.507L683.584 446.773L766.377 317.047H799.468V440.577ZM717.202 440.577H767.432V360.421L765.059 364.64L717.202 440.577Z" fill="#FF6F61"/>
</svg>
