<svg width="900" height="778" viewBox="0 0 900 778" fill="none" xmlns="http://www.w3.org/2000/svg">
<path d="M386.26 518.445H513.76C513.76 521.918 513.076 525.356 511.747 528.564C510.419 531.771 508.471 534.686 506.016 537.141C503.561 539.596 500.646 541.544 497.438 542.873C494.23 544.201 490.792 544.885 487.32 544.885H412.7C409.228 544.885 405.79 544.201 402.582 542.873C399.374 541.544 396.459 539.596 394.004 537.141C391.549 534.686 389.601 531.771 388.273 528.564C386.944 525.356 386.26 521.918 386.26 518.445V518.445Z" fill="#ECF2FA"/>
<path d="M514.3 520.665C514.019 525.168 512.591 529.524 510.151 533.319C507.711 537.114 504.34 540.221 500.36 542.345C498.788 543.098 497.142 543.688 495.45 544.105L495.54 543.865C496.11 542.244 496.288 540.512 496.061 538.809C495.833 537.106 495.206 535.481 494.231 534.066C493.257 532.652 491.961 531.488 490.451 530.669C488.94 529.85 487.257 529.4 485.54 529.355L389.32 526.605C388.692 524.659 388.296 522.645 388.14 520.605C388.846 520.706 389.557 520.756 390.27 520.755H423.89V523.105H430.94V520.755H448.94C448.75 521.165 448.54 521.575 448.35 521.985L475.05 521.965V520.785H512.37C513.015 520.788 513.66 520.748 514.3 520.665Z" fill="#8BBACC"/>
<path d="M405.65 521.975H403.3V543.125H405.65V521.975Z" fill="#274B5B"/>
<path opacity="0.2" d="M407.41 521.975H405.06V540.185H407.41V521.975Z" fill="#274B5B"/>
<path opacity="0.2" d="M422.1 521.975H419.75V540.185H422.1V521.975Z" fill="#274B5B"/>
<path opacity="0.2" d="M451.48 521.975H449.13V540.185H451.48V521.975Z" fill="#274B5B"/>
<path opacity="0.2" d="M466.17 521.975H463.82V540.185H466.17V521.975Z" fill="#274B5B"/>
<path opacity="0.2" d="M480.86 521.975H478.51V540.185H480.86V521.975Z" fill="#274B5B"/>
<path opacity="0.3" d="M476.16 521.975H473.81V540.185H476.16V521.975Z" fill="white"/>
<path opacity="0.3" d="M462.06 521.975H459.71V540.185H462.06V521.975Z" fill="white"/>
<path opacity="0.3" d="M447.37 521.975H445.02V540.185H447.37V521.975Z" fill="white"/>
<path opacity="0.3" d="M432.68 521.975H430.33V540.185H432.68V521.975Z" fill="white"/>
<path opacity="0.3" d="M417.99 521.975H415.64V540.185H417.99V521.975Z" fill="white"/>
<path opacity="0.3" d="M403.3 521.975H400.95V540.185H403.3V521.975Z" fill="white"/>
<path opacity="0.2" d="M436.79 521.975H434.44V540.185H436.79V521.975Z" fill="#274B5B"/>
<path d="M420.24 521.975H417.89V543.125H420.24V521.975Z" fill="#274B5B"/>
<path d="M434.84 521.975H432.49V543.125H434.84V521.975Z" fill="#274B5B"/>
<path d="M449.43 521.975H447.08V543.125H449.43V521.975Z" fill="#274B5B"/>
<path d="M478.61 521.975H476.26V543.125H478.61V521.975Z" fill="#274B5B"/>
<path d="M493.2 521.975H490.85V543.125H493.2V521.975Z" fill="#274B5B"/>
<path d="M464.01 521.975H461.66V543.125H464.01V521.975Z" fill="#274B5B"/>
<path opacity="0.4" d="M842.66 322.785H698.77C698.583 320.045 698.357 317.302 698.09 314.555H754.5C757.226 314.555 759.841 313.472 761.769 311.544C763.697 309.616 764.78 307.002 764.78 304.275C764.78 301.549 763.697 298.934 761.769 297.006C759.841 295.078 757.226 293.995 754.5 293.995H695.05C692.14 279.855 687.52 266.615 680.42 255.425C666.51 233.505 644.8 222.605 623.42 220.325C602.04 218.045 580.62 223.475 559.58 229.325C531.58 237.155 498.63 244.205 477.52 218.325C465.03 202.985 460.05 177.855 464.52 155.955C465.705 150.587 467.167 145.283 468.9 140.065H543.05C545.776 140.065 548.391 138.982 550.319 137.054C552.247 135.126 553.33 132.512 553.33 129.785C553.33 127.059 552.247 124.444 550.319 122.516C548.391 120.588 545.776 119.505 543.05 119.505H474.32C474.838 116.338 475.092 113.134 475.08 109.925C474.942 102.199 473.109 94.5972 469.712 87.6564C466.315 80.7156 461.436 74.6048 455.42 69.7553C444.63 61.2653 432 58.2653 419.58 56.1253C391.84 51.2653 363.23 49.7953 336.21 59.2653C310.64 31.6753 274.63 22.3453 243.21 35.3953C234.24 38.9754 226.25 44.6379 219.9 51.9153H281.2C283.852 51.9153 286.396 52.9689 288.271 54.8442C290.146 56.7196 291.2 59.2631 291.2 61.9153C291.2 64.5675 290.146 67.111 288.271 68.9864C286.396 70.8617 283.852 71.9153 281.2 71.9153H209.2C204.58 86.9153 204.62 104.435 204.85 120.985C204.85 122.845 204.9 124.705 204.93 126.565H233.95C236.676 126.565 239.291 127.648 241.219 129.576C243.147 131.504 244.23 134.119 244.23 136.845C244.23 139.572 243.147 142.186 241.219 144.114C239.291 146.042 236.676 147.125 233.95 147.125H205.3L205.46 158.285H272.73C275.456 158.285 278.071 159.368 279.999 161.296C281.927 163.224 283.01 165.839 283.01 168.565C283.01 171.292 281.927 173.906 279.999 175.834C278.071 177.762 275.456 178.845 272.73 178.845H205.73C205.73 181.195 205.79 183.585 205.83 185.965C206.07 202.665 206.25 219.825 201.91 235.465C188.52 283.635 141.05 295.265 115.39 333.365H223.39C226.116 333.365 228.731 334.448 230.659 336.376C232.587 338.304 233.67 340.919 233.67 343.645C233.67 346.372 232.587 348.986 230.659 350.914C228.731 352.842 226.116 353.925 223.39 353.925H104.92C103.987 356.419 103.137 358.965 102.37 361.565H178.72C181.446 361.565 184.061 362.648 185.989 364.576C187.917 366.504 189 369.119 189 371.845C189 374.572 187.917 377.187 185.989 379.114C184.061 381.042 181.446 382.125 178.72 382.125H98.05C95.303 404.304 97.9654 426.819 105.81 447.745C123.25 493.195 163.81 516.235 201.89 515.515C239.97 514.795 276.31 494.365 310.48 471.695C336.3 454.545 363.33 435.395 392.07 438.105C421.38 440.865 446.47 465.765 472.99 482.725C516.18 510.345 566.49 517.395 612.99 502.355C633.55 495.705 653.93 484.355 668.99 464.435C683.6 445.045 691.9 419.435 695.99 392.165H735.36C738.012 392.165 740.556 391.112 742.431 389.236C744.306 387.361 745.36 384.817 745.36 382.165C745.36 379.513 744.306 376.97 742.431 375.094C740.556 373.219 738.012 372.165 735.36 372.165H698.35C699.09 362.965 699.43 353.705 699.45 344.545V343.365H842.66C845.386 343.365 848.001 342.282 849.929 340.354C851.857 338.426 852.94 335.812 852.94 333.085C852.94 330.359 851.857 327.744 849.929 325.816C848.001 323.888 845.386 322.805 842.66 322.805V322.785Z" fill="url(#paint0_linear)"/>
<path d="M363.95 493.175C363.95 493.175 315.95 552.955 309.44 636.785C309.378 637.636 309.022 638.439 308.434 639.057C307.845 639.674 307.06 640.068 306.213 640.171C305.366 640.274 304.51 640.079 303.79 639.62C303.071 639.161 302.534 638.467 302.27 637.655C285.82 587.585 250.89 442.825 359.85 354.515" fill="#EBCB8B"/>
<path d="M308.73 641.765C308.975 642.552 309.479 643.232 310.16 643.695C309.687 644.012 309.148 644.215 308.583 644.288C308.019 644.36 307.446 644.3 306.908 644.113C306.371 643.926 305.884 643.616 305.487 643.209C305.09 642.802 304.793 642.307 304.62 641.765C288.17 591.695 253.24 446.935 362.2 358.625L362.3 361.955C258.22 450.535 292.49 592.325 308.73 641.765Z" fill="#FFE2A9"/>
<path opacity="0.8" d="M297.99 622.405C297.71 599.165 303.64 574.815 311.41 553.005C315.41 541.845 319.85 531.355 324.22 522.005C337.907 492.811 344.284 460.725 342.8 428.515C341.94 409.875 341.24 388.965 341.24 370.345C349.85 359.685 346.92 358.725 358.68 349.195L362.79 487.855C362.79 487.855 314.79 547.635 308.28 631.465C308.252 631.981 308.112 632.483 307.87 632.939C307.629 633.395 304.461 634.953 304.05 635.265" fill="#B6A279"/>
<path d="M297.83 543.705C297.423 543.705 297.024 543.585 296.686 543.358C296.347 543.132 296.083 542.81 295.927 542.434C295.771 542.057 295.73 541.643 295.81 541.243C295.889 540.844 296.085 540.477 296.373 540.189C296.661 539.901 297.029 539.704 297.428 539.625C297.828 539.545 298.242 539.586 298.618 539.742C298.995 539.898 299.316 540.162 299.543 540.501C299.769 540.84 299.89 541.238 299.89 541.645C299.89 542.192 299.673 542.716 299.287 543.102C298.9 543.488 298.376 543.705 297.83 543.705V543.705ZM297.83 540.765C297.656 540.765 297.486 540.817 297.341 540.914C297.196 541.01 297.084 541.148 297.017 541.309C296.95 541.469 296.933 541.646 296.967 541.817C297.001 541.988 297.085 542.145 297.208 542.268C297.331 542.391 297.488 542.475 297.658 542.509C297.829 542.542 298.006 542.525 298.167 542.458C298.328 542.392 298.465 542.279 298.562 542.134C298.658 541.99 298.71 541.819 298.71 541.645C298.707 541.414 298.613 541.193 298.449 541.03C298.284 540.867 298.062 540.775 297.83 540.775V540.765Z" fill="#274B5B"/>
<path opacity="0.2" d="M297.83 545.475C297.074 545.475 296.336 545.251 295.708 544.832C295.079 544.412 294.59 543.815 294.301 543.117C294.012 542.419 293.936 541.651 294.083 540.91C294.231 540.169 294.595 539.488 295.129 538.954C295.663 538.42 296.344 538.056 297.085 537.909C297.826 537.761 298.594 537.837 299.292 538.126C299.99 538.415 300.586 538.905 301.006 539.533C301.426 540.161 301.65 540.9 301.65 541.655C301.65 542.668 301.248 543.64 300.531 544.356C299.815 545.073 298.843 545.475 297.83 545.475V545.475ZM297.83 540.185C297.539 540.185 297.255 540.272 297.013 540.433C296.772 540.595 296.583 540.824 296.472 541.093C296.361 541.361 296.332 541.657 296.388 541.942C296.445 542.227 296.585 542.489 296.791 542.695C296.996 542.9 297.258 543.04 297.543 543.097C297.828 543.154 298.124 543.125 298.393 543.013C298.661 542.902 298.891 542.714 299.052 542.472C299.214 542.23 299.3 541.946 299.3 541.655C299.3 541.462 299.262 541.271 299.188 541.093C299.114 540.914 299.006 540.752 298.869 540.616C298.733 540.479 298.571 540.371 298.393 540.297C298.214 540.223 298.023 540.185 297.83 540.185V540.185Z" fill="#274B5B"/>
<path d="M306.05 467.915C305.643 467.915 305.244 467.795 304.906 467.568C304.567 467.342 304.303 467.02 304.147 466.644C303.991 466.267 303.95 465.853 304.03 465.453C304.109 465.054 304.305 464.687 304.593 464.399C304.881 464.111 305.249 463.914 305.648 463.835C306.048 463.755 306.462 463.796 306.838 463.952C307.215 464.108 307.536 464.372 307.763 464.711C307.989 465.05 308.11 465.448 308.11 465.855C308.11 466.402 307.893 466.926 307.507 467.312C307.12 467.698 306.596 467.915 306.05 467.915V467.915ZM306.05 464.975C305.876 464.975 305.706 465.027 305.561 465.124C305.416 465.22 305.304 465.358 305.237 465.519C305.17 465.679 305.153 465.856 305.187 466.027C305.221 466.198 305.305 466.355 305.428 466.478C305.551 466.601 305.708 466.684 305.878 466.718C306.049 466.752 306.226 466.735 306.387 466.668C306.548 466.602 306.685 466.489 306.782 466.344C306.878 466.199 306.93 466.029 306.93 465.855C306.93 465.622 306.837 465.398 306.672 465.233C306.507 465.068 306.283 464.975 306.05 464.975Z" fill="#274B5B"/>
<path opacity="0.2" d="M306.05 469.675C305.294 469.675 304.556 469.451 303.928 469.032C303.3 468.612 302.81 468.015 302.521 467.317C302.232 466.619 302.156 465.851 302.303 465.11C302.451 464.369 302.815 463.688 303.349 463.154C303.883 462.62 304.564 462.256 305.305 462.109C306.046 461.961 306.814 462.037 307.512 462.326C308.21 462.615 308.806 463.105 309.226 463.733C309.646 464.361 309.87 465.1 309.87 465.855C309.87 466.868 309.468 467.84 308.751 468.556C308.035 469.273 307.063 469.675 306.05 469.675V469.675ZM306.05 464.385C305.759 464.385 305.475 464.472 305.233 464.633C304.992 464.795 304.803 465.024 304.692 465.293C304.581 465.561 304.552 465.857 304.608 466.142C304.665 466.427 304.805 466.689 305.011 466.895C305.216 467.1 305.478 467.24 305.763 467.297C306.048 467.354 306.344 467.325 306.613 467.213C306.881 467.102 307.111 466.914 307.272 466.672C307.434 466.43 307.52 466.146 307.52 465.855C307.52 465.662 307.482 465.471 307.408 465.293C307.334 465.114 307.226 464.952 307.089 464.816C306.953 464.679 306.791 464.571 306.613 464.497C306.434 464.423 306.243 464.385 306.05 464.385V464.385Z" fill="#274B5B"/>
<path d="M594.55 467.915C594.143 467.915 593.744 467.795 593.406 467.568C593.067 467.342 592.803 467.02 592.647 466.644C592.491 466.267 592.45 465.853 592.53 465.453C592.609 465.054 592.805 464.687 593.093 464.399C593.381 464.111 593.749 463.914 594.148 463.835C594.548 463.755 594.962 463.796 595.338 463.952C595.715 464.108 596.036 464.372 596.263 464.711C596.489 465.05 596.61 465.448 596.61 465.855C596.61 466.402 596.393 466.926 596.007 467.312C595.62 467.698 595.096 467.915 594.55 467.915V467.915ZM594.55 464.975C594.376 464.975 594.206 465.027 594.061 465.124C593.916 465.22 593.804 465.358 593.737 465.519C593.67 465.679 593.653 465.856 593.687 466.027C593.721 466.198 593.805 466.355 593.928 466.478C594.051 466.601 594.208 466.684 594.378 466.718C594.549 466.752 594.726 466.735 594.887 466.668C595.048 466.602 595.185 466.489 595.282 466.344C595.378 466.199 595.43 466.029 595.43 465.855C595.43 465.622 595.337 465.398 595.172 465.233C595.007 465.068 594.783 464.975 594.55 464.975V464.975Z" fill="#274B5B"/>
<path opacity="0.2" d="M594.55 469.675C593.794 469.675 593.056 469.451 592.428 469.032C591.8 468.612 591.31 468.015 591.021 467.317C590.732 466.619 590.656 465.851 590.803 465.11C590.951 464.369 591.315 463.688 591.849 463.154C592.383 462.62 593.064 462.256 593.805 462.109C594.546 461.961 595.314 462.037 596.012 462.326C596.71 462.615 597.306 463.105 597.726 463.733C598.146 464.361 598.37 465.1 598.37 465.855C598.37 466.868 597.968 467.84 597.251 468.556C596.535 469.273 595.563 469.675 594.55 469.675V469.675ZM594.55 464.385C594.259 464.385 593.975 464.472 593.733 464.633C593.492 464.795 593.303 465.024 593.192 465.293C593.081 465.561 593.052 465.857 593.108 466.142C593.165 466.427 593.305 466.689 593.511 466.895C593.716 467.1 593.978 467.24 594.263 467.297C594.548 467.354 594.844 467.325 595.113 467.213C595.381 467.102 595.611 466.914 595.772 466.672C595.934 466.43 596.02 466.146 596.02 465.855C596.02 465.662 595.982 465.471 595.908 465.293C595.834 465.114 595.726 464.952 595.589 464.816C595.453 464.679 595.291 464.571 595.113 464.497C594.934 464.423 594.743 464.385 594.55 464.385V464.385Z" fill="#274B5B"/>
<path d="M592.79 467.915C592.383 467.915 591.984 467.795 591.646 467.568C591.307 467.342 591.043 467.02 590.887 466.644C590.731 466.267 590.69 465.853 590.77 465.453C590.849 465.054 591.045 464.687 591.333 464.399C591.621 464.111 591.989 463.914 592.388 463.835C592.788 463.755 593.202 463.796 593.578 463.952C593.955 464.108 594.276 464.372 594.503 464.711C594.729 465.05 594.85 465.448 594.85 465.855C594.85 466.402 594.633 466.926 594.247 467.312C593.86 467.698 593.336 467.915 592.79 467.915V467.915ZM592.79 464.975C592.616 464.975 592.446 465.027 592.301 465.124C592.156 465.22 592.044 465.358 591.977 465.519C591.91 465.679 591.893 465.856 591.927 466.027C591.961 466.198 592.045 466.355 592.168 466.478C592.291 466.601 592.448 466.684 592.618 466.718C592.789 466.752 592.966 466.735 593.127 466.668C593.288 466.602 593.425 466.489 593.522 466.344C593.618 466.199 593.67 466.029 593.67 465.855C593.67 465.622 593.577 465.398 593.412 465.233C593.247 465.068 593.023 464.975 592.79 464.975V464.975Z" fill="#274B5B"/>
<path opacity="0.2" d="M592.79 469.675C592.034 469.675 591.296 469.451 590.668 469.032C590.04 468.612 589.55 468.015 589.261 467.317C588.972 466.619 588.896 465.851 589.043 465.11C589.191 464.369 589.555 463.688 590.089 463.154C590.623 462.62 591.304 462.256 592.045 462.109C592.786 461.961 593.554 462.037 594.252 462.326C594.95 462.615 595.546 463.105 595.966 463.733C596.386 464.361 596.61 465.1 596.61 465.855C596.61 466.868 596.208 467.84 595.491 468.556C594.775 469.273 593.803 469.675 592.79 469.675V469.675ZM592.79 464.385C592.499 464.385 592.215 464.472 591.973 464.633C591.732 464.795 591.543 465.024 591.432 465.293C591.321 465.561 591.292 465.857 591.348 466.142C591.405 466.427 591.545 466.689 591.751 466.895C591.956 467.1 592.218 467.24 592.503 467.297C592.788 467.354 593.084 467.325 593.353 467.213C593.621 467.102 593.851 466.914 594.012 466.672C594.174 466.43 594.26 466.146 594.26 465.855C594.26 465.662 594.222 465.471 594.148 465.293C594.074 465.114 593.966 464.952 593.829 464.816C593.693 464.679 593.531 464.571 593.353 464.497C593.174 464.423 592.983 464.385 592.79 464.385V464.385Z" fill="#274B5B"/>
<path d="M318.11 407.985H315.76V600.705H318.11V407.985Z" fill="#274B5B"/>
<path opacity="0.2" d="M320.46 403.285H318.11V600.705H320.46V403.285Z" fill="#274B5B"/>
<path opacity="0.3" d="M315.76 407.985H313.41V600.705H315.76V407.985Z" fill="white"/>
<path d="M331.62 382.715H329.27V556.635H331.62V382.715Z" fill="#274B5B"/>
<path opacity="0.2" d="M333.97 382.715H331.62V556.635H333.97V382.715Z" fill="#274B5B"/>
<path opacity="0.3" d="M329.27 382.715H326.92V556.635H329.27V382.715Z" fill="white"/>
<path opacity="0.2" d="M571.3 701.775C558.682 701.754 546.587 696.727 537.672 687.797C528.757 678.867 523.75 666.764 523.75 654.145V607.755H536.68V654.135C536.68 659.961 538.146 665.693 540.944 670.802C543.741 675.912 547.781 680.235 552.689 683.373C557.597 686.511 563.216 688.363 569.028 688.758C574.84 689.153 580.658 688.078 585.946 685.632C591.233 683.187 595.82 679.45 599.283 674.766C602.746 670.081 604.974 664.6 605.762 658.828C606.549 653.056 605.871 647.179 603.789 641.738C601.707 636.297 598.289 631.468 593.85 627.695L602.22 617.845C609.396 623.947 614.602 632.039 617.179 641.099C619.756 650.159 619.589 659.78 616.7 668.745C613.81 677.71 608.327 685.616 600.943 691.466C593.56 697.315 584.608 700.843 575.22 701.605C573.913 701.719 572.607 701.775 571.3 701.775Z" fill="#A7594E"/>
<path opacity="0.2" d="M565.91 681.645C564.511 681.644 563.114 681.54 561.73 681.335L563.61 668.545C566.118 668.91 568.677 668.65 571.06 667.789C573.444 666.929 575.578 665.493 577.275 663.611C578.971 661.728 580.177 659.456 580.785 656.996C581.394 654.536 581.386 651.964 580.763 649.507C580.14 647.051 578.921 644.786 577.214 642.913C575.506 641.041 573.363 639.618 570.975 638.771C568.586 637.924 566.026 637.68 563.52 638.059C561.014 638.438 558.641 639.43 556.61 640.945L548.89 630.575C552.485 627.901 556.663 626.118 561.081 625.371C565.498 624.625 570.03 624.937 574.304 626.282C578.578 627.627 582.472 629.967 585.666 633.109C588.86 636.251 591.263 640.105 592.679 644.356C594.094 648.607 594.481 653.133 593.808 657.563C593.134 661.993 591.42 666.199 588.805 669.838C586.191 673.476 582.751 676.443 578.767 678.493C574.784 680.544 570.37 681.621 565.89 681.635L565.91 681.645Z" fill="#F08778"/>
<path opacity="0.2" d="M570.17 600.705C575.361 600.705 579.57 596.497 579.57 591.305C579.57 586.114 575.361 581.905 570.17 581.905C564.979 581.905 560.77 586.114 560.77 591.305C560.77 596.497 564.979 600.705 570.17 600.705Z" fill="#F08778"/>
<path d="M533.93 499.055C533.93 499.055 581.93 558.835 588.44 642.665C588.502 643.516 588.858 644.319 589.446 644.937C590.035 645.554 590.82 645.948 591.667 646.051C592.514 646.154 593.37 645.959 594.09 645.5C594.809 645.041 595.346 644.347 595.61 643.535C612.05 593.465 646.99 448.705 538.05 360.395" fill="#EBCB8B"/>
<path opacity="0.8" d="M599.9 628.265C600.18 605.025 594.25 580.675 586.48 558.865C582.48 547.705 578.04 537.215 573.67 527.865C559.977 498.69 553.587 466.621 555.05 434.425C555.91 415.785 556.61 394.875 556.61 376.255C548 365.595 550.93 364.635 539.17 355.105L535.05 493.765C535.05 493.765 583.05 553.545 589.56 637.375C589.588 637.891 589.728 638.393 589.97 638.849C590.211 639.305 590.549 639.703 590.96 640.015" fill="#B6A279"/>
<path d="M599.84 544.265C599.433 544.265 599.034 544.145 598.696 543.918C598.357 543.692 598.093 543.37 597.937 542.994C597.781 542.617 597.74 542.203 597.82 541.803C597.899 541.404 598.095 541.037 598.383 540.749C598.671 540.461 599.039 540.264 599.438 540.185C599.838 540.105 600.252 540.146 600.628 540.302C601.005 540.458 601.327 540.722 601.553 541.061C601.779 541.4 601.9 541.798 601.9 542.205C601.9 542.752 601.683 543.276 601.297 543.662C600.91 544.048 600.386 544.265 599.84 544.265V544.265ZM599.84 541.325C599.666 541.325 599.496 541.377 599.351 541.474C599.206 541.57 599.094 541.708 599.027 541.869C598.96 542.029 598.943 542.206 598.977 542.377C599.011 542.548 599.095 542.705 599.218 542.828C599.341 542.951 599.498 543.035 599.668 543.069C599.839 543.102 600.016 543.085 600.177 543.018C600.338 542.952 600.475 542.839 600.572 542.694C600.668 542.55 600.72 542.379 600.72 542.205C600.712 541.977 600.616 541.761 600.452 541.602C600.288 541.444 600.068 541.355 599.84 541.355V541.325Z" fill="#274B5B"/>
<path opacity="0.2" d="M599.84 546.065C599.085 546.065 598.346 545.841 597.718 545.422C597.09 545.002 596.6 544.405 596.311 543.707C596.022 543.009 595.946 542.241 596.093 541.5C596.241 540.759 596.605 540.078 597.139 539.544C597.673 539.01 598.354 538.646 599.095 538.499C599.836 538.351 600.604 538.427 601.302 538.716C602 539.005 602.596 539.495 603.016 540.123C603.436 540.751 603.66 541.49 603.66 542.245C603.66 543.258 603.258 544.23 602.541 544.947C601.825 545.663 600.853 546.065 599.84 546.065V546.065ZM599.84 540.775C599.549 540.775 599.265 540.862 599.023 541.023C598.782 541.185 598.593 541.414 598.482 541.683C598.371 541.951 598.342 542.247 598.398 542.532C598.455 542.817 598.595 543.079 598.801 543.285C599.006 543.49 599.268 543.63 599.553 543.687C599.838 543.744 600.134 543.715 600.403 543.603C600.671 543.492 600.901 543.304 601.062 543.062C601.224 542.82 601.31 542.536 601.31 542.245C601.31 541.855 601.155 541.482 600.879 541.206C600.604 540.93 600.23 540.775 599.84 540.775V540.775Z" fill="#274B5B"/>
<path d="M581.92 407.395H579.57V605.995H581.92V407.395Z" fill="#274B5B"/>
<path opacity="0.2" d="M579.57 406.805H577.22V589.535H579.57V406.805Z" fill="#274B5B"/>
<path opacity="0.3" d="M584.27 413.275H581.92V605.995H584.27V413.275Z" fill="white"/>
<path d="M568.41 388.005H566.06V561.925H568.41V388.005Z" fill="#274B5B"/>
<path opacity="0.2" d="M566.06 388.005H563.71V556.045H566.06V388.005Z" fill="#274B5B"/>
<path opacity="0.3" d="M570.76 388.005H568.41V561.925H570.76V388.005Z" fill="white"/>
<path d="M592.15 646.365C591.816 646.365 591.482 646.345 591.15 646.305C589.286 646.099 587.553 645.243 586.255 643.889C584.957 642.534 584.177 640.767 584.05 638.895C577.75 557.365 530.97 498.295 530.5 497.705L537.37 492.185C537.87 492.805 549.82 507.785 562.69 533.325C574.24 556.235 588.62 592.155 592.53 634.615C600.53 609.495 612.13 563.055 609.45 512.425C606.05 448.265 581.05 396.845 535.26 359.705L540.81 352.855C566.149 373.155 586.228 399.257 599.35 428.955C610.3 453.815 616.66 481.735 618.26 511.955C621.14 566.415 607.94 616.055 599.81 640.795C599.293 642.418 598.271 643.834 596.893 644.836C595.515 645.838 593.854 646.373 592.15 646.365V646.365Z" fill="#274B5B"/>
<path opacity="0.2" d="M190.6 776.385H148.89C147.175 776.385 145.531 775.704 144.319 774.492C143.106 773.279 142.425 771.635 142.425 769.92C142.425 768.206 143.106 766.561 144.319 765.349C145.531 764.137 147.175 763.455 148.89 763.455H190.6C192.315 763.455 193.959 764.137 195.171 765.349C196.384 766.561 197.065 768.206 197.065 769.92C197.065 771.635 196.384 773.279 195.171 774.492C193.959 775.704 192.315 776.385 190.6 776.385V776.385Z" fill="#F08778"/>
<path opacity="0.2" d="M374.55 718.775C363.473 718.809 352.654 715.436 343.559 709.114C334.465 702.791 327.534 693.824 323.708 683.429C319.882 673.034 319.345 661.714 322.17 651.004C324.994 640.294 331.045 630.711 339.5 623.555L347.87 633.405C342.61 637.877 338.56 643.602 336.093 650.051C333.627 656.5 332.824 663.466 333.758 670.306C334.692 677.147 337.333 683.643 341.438 689.195C345.543 694.746 350.979 699.176 357.246 702.074C363.513 704.972 370.408 706.245 377.297 705.778C384.185 705.31 390.845 703.115 396.663 699.396C402.48 695.678 407.268 690.554 410.584 684.499C413.901 678.443 415.639 671.65 415.64 664.745V563.095H428.57V664.745C428.57 679.067 422.881 692.802 412.754 702.929C402.627 713.056 388.892 718.745 374.57 718.745L374.55 718.775Z" fill="#A7594E"/>
<path opacity="0.2" d="M473.49 743.505C465.477 743.492 457.796 740.301 452.132 734.632C446.469 728.963 443.285 721.279 443.28 713.265V613.065H456.21V713.265C456.212 716.174 456.946 719.035 458.344 721.585C459.742 724.136 461.76 726.293 464.211 727.859C466.662 729.425 469.467 730.348 472.369 730.545C475.271 730.741 478.175 730.204 480.815 728.983C483.455 727.762 485.745 725.897 487.474 723.558C489.203 721.22 490.316 718.484 490.71 715.602C491.104 712.72 490.767 709.786 489.729 707.069C488.69 704.352 486.985 701.94 484.77 700.055L493.14 690.205C497.701 694.081 501.01 699.222 502.649 704.979C504.288 710.735 504.183 716.849 502.347 722.546C500.511 728.242 497.027 733.267 492.336 736.983C487.644 740.7 481.956 742.942 475.99 743.425C475.15 743.479 474.317 743.505 473.49 743.505Z" fill="#F08778"/>
<path opacity="0.2" d="M455.01 563.685H442.08V594.825H455.01V563.685Z" fill="#F08778"/>
<path opacity="0.2" d="M377.89 692.815C376.491 692.814 375.094 692.711 373.71 692.505L375.59 679.715C378.098 680.08 380.657 679.82 383.04 678.96C385.424 678.099 387.558 676.663 389.255 674.781C390.951 672.898 392.157 670.626 392.765 668.166C393.374 665.706 393.366 663.134 392.743 660.677C392.12 658.221 390.901 655.956 389.194 654.083C387.486 652.211 385.344 650.788 382.955 649.941C380.566 649.094 378.006 648.85 375.5 649.229C372.994 649.608 370.621 650.6 368.59 652.115L360.87 641.745C364.465 639.071 368.643 637.288 373.061 636.541C377.478 635.795 382.01 636.107 386.284 637.452C390.558 638.797 394.452 641.137 397.646 644.279C400.84 647.421 403.243 651.275 404.659 655.526C406.074 659.777 406.461 664.303 405.788 668.733C405.114 673.163 403.4 677.369 400.785 681.008C398.171 684.646 394.731 687.613 390.747 689.663C386.764 691.714 382.35 692.791 377.87 692.805L377.89 692.815Z" fill="#F08778"/>
<path opacity="0.2" d="M486.74 675.325C482.674 675.325 478.699 674.12 475.318 671.86C471.936 669.601 469.301 666.39 467.745 662.633C466.189 658.876 465.782 654.743 466.575 650.754C467.368 646.766 469.327 643.103 472.202 640.227C475.077 637.352 478.741 635.394 482.729 634.6C486.717 633.807 490.851 634.214 494.608 635.77C498.365 637.327 501.576 639.962 503.835 643.343C506.094 646.724 507.3 650.699 507.3 654.765C507.292 660.216 505.123 665.441 501.269 669.295C497.415 673.149 492.19 675.317 486.74 675.325ZM486.74 647.125C485.229 647.125 483.752 647.573 482.495 648.413C481.239 649.252 480.26 650.446 479.682 651.842C479.103 653.238 478.952 654.774 479.247 656.256C479.542 657.738 480.269 659.099 481.338 660.168C482.406 661.236 483.768 661.964 485.25 662.259C486.732 662.553 488.268 662.402 489.664 661.824C491.06 661.246 492.253 660.266 493.092 659.01C493.932 657.754 494.38 656.276 494.38 654.765C494.377 652.74 493.572 650.798 492.139 649.366C490.707 647.934 488.765 647.128 486.74 647.125V647.125Z" fill="#F08778"/>
<path opacity="0.2" d="M385.05 623.035C380.986 623.027 377.015 621.815 373.639 619.552C370.264 617.288 367.635 614.075 366.085 610.318C364.534 606.561 364.132 602.429 364.929 598.444C365.726 594.458 367.687 590.798 370.563 587.927C373.438 585.055 377.101 583.1 381.088 582.309C385.074 581.518 389.206 581.926 392.96 583.481C396.715 585.037 399.924 587.671 402.183 591.05C404.442 594.429 405.648 598.401 405.65 602.465C405.645 607.924 403.472 613.158 399.609 617.015C395.746 620.873 390.509 623.038 385.05 623.035V623.035ZM385.05 594.835C383.539 594.835 382.062 595.283 380.805 596.123C379.549 596.962 378.57 598.156 377.992 599.552C377.413 600.948 377.262 602.484 377.557 603.966C377.852 605.448 378.579 606.809 379.648 607.878C380.716 608.946 382.078 609.674 383.56 609.969C385.042 610.263 386.578 610.112 387.974 609.534C389.37 608.956 390.563 607.976 391.402 606.72C392.242 605.464 392.69 603.986 392.69 602.475C392.69 600.448 391.885 598.504 390.453 597.07C389.02 595.635 387.077 594.828 385.05 594.825V594.835Z" fill="#F08778"/>
<path opacity="0.2" d="M664.18 623.035C660.114 623.035 656.139 621.83 652.757 619.57C649.376 617.311 646.741 614.1 645.185 610.343C643.629 606.586 643.222 602.453 644.015 598.464C644.808 594.476 646.766 590.813 649.642 587.937C652.517 585.062 656.181 583.104 660.169 582.31C664.157 581.517 668.291 581.924 672.048 583.48C675.805 585.037 679.016 587.672 681.275 591.053C683.534 594.434 684.74 598.409 684.74 602.475C684.732 607.926 682.563 613.151 678.709 617.005C674.855 620.859 669.63 623.027 664.18 623.035ZM664.18 594.835C662.669 594.835 661.192 595.283 659.935 596.123C658.679 596.962 657.7 598.156 657.122 599.552C656.543 600.948 656.392 602.484 656.687 603.966C656.982 605.448 657.709 606.809 658.778 607.878C659.846 608.946 661.207 609.674 662.689 609.969C664.172 610.263 665.708 610.112 667.104 609.534C668.5 608.956 669.693 607.976 670.532 606.72C671.372 605.464 671.82 603.986 671.82 602.475C671.82 600.448 671.015 598.504 669.583 597.07C668.15 595.635 666.207 594.828 664.18 594.825V594.835Z" fill="#F08778"/>
<path opacity="0.2" d="M261.7 650.055C264.296 650.055 266.4 647.951 266.4 645.355C266.4 642.76 264.296 640.655 261.7 640.655C259.104 640.655 257 642.76 257 645.355C257 647.951 259.104 650.055 261.7 650.055Z" fill="#F08778"/>
<path opacity="0.2" d="M523.75 730.555C526.346 730.555 528.45 728.451 528.45 725.855C528.45 723.26 526.346 721.155 523.75 721.155C521.154 721.155 519.05 723.26 519.05 725.855C519.05 728.451 521.154 730.555 523.75 730.555Z" fill="#F08778"/>
<path opacity="0.2" d="M681.81 748.185H668.88C668.869 738.994 665.213 730.181 658.714 723.682C652.214 717.182 643.402 713.526 634.21 713.515H625.4V700.585H634.21C646.83 700.599 658.93 705.618 667.854 714.542C676.778 723.466 681.797 735.565 681.81 748.185V748.185Z" fill="#A7594E"/>
<path opacity="0.2" d="M211.17 750.675H198.24C198.269 725.871 208.136 702.09 225.675 684.551C243.215 667.011 266.995 657.144 291.8 657.115H310.46V670.045H291.81C270.432 670.069 249.936 678.571 234.819 693.687C219.701 708.803 211.196 729.297 211.17 750.675V750.675Z" fill="#F08778"/>
<path opacity="0.2" d="M775.05 748.185H762.17C762.149 721.697 751.619 696.298 732.891 677.565C714.164 658.832 688.769 648.295 662.28 648.265H639.5V635.365H662.28C692.183 635.41 720.848 647.313 741.988 668.462C763.129 689.612 775.018 718.282 775.05 748.185V748.185Z" fill="#F08778"/>
<path opacity="0.2" d="M274.63 748.185H261.7C261.716 735.569 266.735 723.473 275.656 714.552C284.578 705.63 296.673 700.611 309.29 700.595H318.1V713.525H309.29C300.102 713.539 291.293 717.195 284.796 723.692C278.299 730.189 274.643 738.997 274.63 748.185Z" fill="#A7594E"/>
<path opacity="0.2" d="M704.13 776.385H212.34C210.625 776.385 208.981 775.704 207.769 774.492C206.556 773.279 205.875 771.635 205.875 769.92C205.875 768.206 206.556 766.561 207.769 765.349C208.981 764.137 210.625 763.455 212.34 763.455H704.13C705.845 763.455 707.489 764.137 708.701 765.349C709.914 766.561 710.595 768.206 710.595 769.92C710.595 771.635 709.914 773.279 708.701 774.492C707.489 775.704 705.845 776.385 704.13 776.385V776.385Z" fill="#F08778"/>
<path opacity="0.2" d="M125.97 776.385C125.547 776.386 125.124 776.342 124.71 776.255C124.296 776.173 123.891 776.053 123.5 775.895C123.11 775.732 122.735 775.534 122.38 775.305C122.022 775.067 121.687 774.796 121.38 774.495C120.778 773.895 120.302 773.181 119.98 772.395C119.823 772.004 119.702 771.599 119.62 771.185C119.447 770.351 119.447 769.49 119.62 768.655C119.702 768.242 119.823 767.837 119.98 767.445C120.144 767.056 120.341 766.681 120.57 766.325C121.043 765.617 121.651 765.008 122.36 764.535C122.715 764.306 123.09 764.109 123.48 763.945C123.871 763.788 124.276 763.667 124.69 763.585C125.525 763.415 126.385 763.415 127.22 763.585C127.634 763.668 128.039 763.788 128.43 763.945C128.82 764.109 129.195 764.306 129.55 764.535C130.259 765.008 130.867 765.617 131.34 766.325C131.569 766.681 131.766 767.056 131.93 767.445C132.088 767.837 132.211 768.242 132.3 768.655C132.465 769.491 132.465 770.35 132.3 771.185C132.211 771.598 132.088 772.003 131.93 772.395C131.766 772.785 131.569 773.16 131.34 773.515C131.104 773.875 130.833 774.21 130.53 774.515C130.223 774.816 129.888 775.087 129.53 775.325C129.175 775.554 128.8 775.752 128.41 775.915C128.019 776.073 127.614 776.193 127.2 776.275C126.795 776.354 126.383 776.39 125.97 776.385V776.385Z" fill="#F08778"/>
<path opacity="0.2" d="M769.93 776.385H728.22C726.505 776.385 724.861 775.704 723.649 774.492C722.436 773.279 721.755 771.635 721.755 769.92C721.755 768.206 722.436 766.561 723.649 765.349C724.861 764.137 726.505 763.455 728.22 763.455H769.93C771.645 763.455 773.289 764.137 774.501 765.349C775.714 766.561 776.395 768.206 776.395 769.92C776.395 771.635 775.714 773.279 774.501 774.492C773.289 775.704 771.645 776.385 769.93 776.385V776.385Z" fill="#F08778"/>
<path opacity="0.2" d="M792.85 776.385C792.427 776.386 792.004 776.342 791.59 776.255C791.176 776.173 790.771 776.053 790.38 775.895C789.99 775.732 789.615 775.534 789.26 775.305C788.902 775.068 788.567 774.796 788.26 774.495C787.957 774.19 787.686 773.855 787.45 773.495C787.221 773.14 787.024 772.765 786.86 772.375C786.702 771.983 786.579 771.579 786.49 771.165C786.325 770.33 786.325 769.471 786.49 768.635C786.579 768.222 786.702 767.817 786.86 767.425C787.024 767.035 787.221 766.661 787.45 766.305C787.923 765.597 788.531 764.988 789.24 764.515C789.595 764.286 789.97 764.089 790.36 763.925C790.751 763.768 791.156 763.647 791.57 763.565C792.405 763.395 793.265 763.395 794.1 763.565C794.514 763.647 794.919 763.768 795.31 763.925C795.7 764.089 796.075 764.286 796.43 764.515C797.139 764.988 797.747 765.597 798.22 766.305C798.449 766.661 798.646 767.036 798.81 767.425C798.967 767.817 799.088 768.222 799.17 768.635C799.343 769.47 799.343 770.331 799.17 771.165C799.088 771.579 798.967 771.984 798.81 772.375C798.646 772.765 798.449 773.14 798.22 773.495C797.984 773.855 797.713 774.19 797.41 774.495C797.103 774.796 796.768 775.067 796.41 775.305C796.055 775.534 795.68 775.732 795.29 775.895C794.899 776.053 794.494 776.173 794.08 776.255C793.675 776.34 793.263 776.384 792.85 776.385Z" fill="#F08778"/>
<path d="M305.15 645.775C303.45 645.779 301.793 645.241 300.419 644.24C299.045 643.238 298.026 641.825 297.51 640.205C289.37 615.465 276.17 565.835 279.05 511.365C280.65 481.145 287.05 453.225 297.96 428.365C311.082 398.667 331.161 372.565 356.5 352.265L362.05 359.115C316.22 396.265 291.25 447.645 287.85 511.835C285.17 562.465 296.85 608.905 304.77 634.025C308.68 591.575 323.06 555.645 334.61 532.735C347.49 507.195 359.43 492.215 359.93 491.595L366.8 497.115C366.62 497.345 354.8 512.215 342.36 536.935C330.89 559.735 316.53 595.825 313.25 638.305C313.123 640.177 312.343 641.944 311.045 643.299C309.747 644.653 308.014 645.509 306.15 645.715C305.818 645.755 305.484 645.775 305.15 645.775Z" fill="#274B5B"/>
<path d="M459.32 7.76532C458.094 6.37874 456.587 5.26849 454.899 4.50809C453.211 3.74768 451.381 3.35446 449.53 3.35446C447.679 3.35446 445.849 3.74768 444.161 4.50809C442.473 5.26849 440.966 6.37874 439.74 7.76532C411.53 39.6953 332.05 142.385 332.05 285.915C332.05 426.405 362.52 489.495 374.4 508.745C376.94 512.855 382.47 515.505 388.5 515.505H510.57C516.63 515.505 522.15 512.875 524.67 508.745C536.55 489.495 567.05 426.405 567.05 285.915C567.05 142.385 487.54 39.6953 459.32 7.76532Z" fill="#EBCB8B"/>
<path d="M450.31 126.545H447.96V514.335H450.31V126.545Z" fill="#274B5B"/>
<path opacity="0.2" d="M447.96 126.545H445.61V514.335H447.96V126.545Z" fill="#274B5B"/>
<path opacity="0.3" d="M452.66 126.545H450.31V514.335H452.66V126.545Z" fill="white"/>
<path d="M527.28 123.015H369.28C378.914 99.835 390.22 77.3859 403.11 55.8453C404.237 53.9653 405.353 52.1286 406.46 50.3353C428.98 16.6253 434.87 11.7653 446.05 8.76532C457.23 5.76533 470.23 23.7953 498.52 69.9453L498.93 70.6253C508.22 85.9853 517.89 103.505 527.28 123.015Z" fill="#ECF2FA"/>
<path d="M526.1 121.315L517.46 120.075C503.19 99.2053 463.72 56.6153 409.32 50.7453C410.32 48.8653 414.32 45.0253 415.32 43.2353C423.13 30.3953 430.24 21.7653 436.05 13.5453C437.597 11.3436 439.644 9.54051 442.024 8.28437C444.404 7.02822 447.047 6.35489 449.738 6.31975C452.429 6.2846 455.089 6.88865 457.501 8.0822C459.912 9.27576 462.006 11.0247 463.61 13.1853C475.887 29.5804 487.059 46.7751 497.05 64.6553C497.17 64.8753 498.47 65.1053 498.6 65.3353C507.05 80.6953 522.58 90.1753 526.1 121.315Z" fill="#8BBACC"/>
<path d="M393.05 107.995C392.541 107.994 392.041 107.861 391.599 107.609C391.157 107.357 390.788 106.995 390.528 106.558C390.268 106.12 390.126 105.623 390.116 105.114C390.106 104.605 390.228 104.103 390.47 103.655C393.33 98.3953 396.47 93.1053 399.6 87.9953C402.6 82.9953 405.68 77.9053 408.44 72.8653C408.829 72.2127 409.456 71.7361 410.189 71.5354C410.922 71.3348 411.704 71.4257 412.371 71.7891C413.039 72.1525 413.539 72.7602 413.768 73.4847C413.997 74.2092 413.937 74.9943 413.6 75.6753C410.79 80.8353 407.66 86.0153 404.6 91.0253C401.54 96.0353 398.4 101.305 395.6 106.455C395.351 106.916 394.983 107.301 394.535 107.572C394.086 107.843 393.574 107.989 393.05 107.995V107.995Z" fill="white"/>
<g opacity="0.4">
<path opacity="0.4" d="M478.86 229.325C482.64 223.205 485.32 218.015 485.73 218.195C486.14 218.375 483.97 223.895 480.13 230.105C476.29 236.315 472.34 240.735 472.03 240.485C471.72 240.235 475.11 235.465 478.86 229.325Z" fill="#426270"/>
<path opacity="0.4" d="M485.646 234.848C488.094 230.72 489.79 227.203 489.433 226.991C489.077 226.78 486.804 229.955 484.356 234.083C481.907 238.211 480.212 241.729 480.568 241.94C480.924 242.152 483.198 238.976 485.646 234.848Z" fill="#426270"/>
<path opacity="0.4" d="M480.35 233.395C485.87 235.625 490.48 237.165 490.35 237.575C490.22 237.985 485.35 237.065 479.77 234.785C474.19 232.505 470 229.785 470.2 229.465C470.4 229.145 474.82 231.185 480.35 233.395Z" fill="#426270"/>
<path opacity="0.4" d="M485.57 231.895C490.57 234.245 494.8 235.725 494.68 236.135C494.56 236.545 490.06 235.645 484.94 233.255C479.82 230.865 476.23 227.965 476.46 227.665C476.69 227.365 480.57 229.585 485.57 231.895Z" fill="#426270"/>
</g>
<path d="M411.67 518.445H390.24C384.18 518.445 378.66 515.805 376.14 511.675C364.27 492.375 333.8 429.135 333.8 288.305C333.8 150.395 406.8 50.0953 437.8 13.8253C410.03 46.7253 349.9 133.825 349.9 271.075L385.15 221.615C384.42 223.535 313.23 430.615 411.67 518.445Z" fill="#FFE2A9"/>
<path d="M397.29 515.795H391.41C385.35 515.795 379.83 513.155 377.31 509.025C365.44 489.725 334.97 426.485 334.97 285.655C334.97 147.745 407.97 47.4453 438.91 11.1953C423.14 29.8853 396.83 66.1953 377.11 119.195C356.88 164.585 340.83 220.965 340.83 285.595C340.83 426.435 371.3 489.675 383.17 508.965C385.72 513.155 391.24 515.795 397.29 515.795Z" fill="white"/>
<path opacity="0.8" d="M483.82 515.505H505.25C511.31 515.505 516.83 512.875 519.35 508.755C531.22 489.515 561.69 426.455 561.69 286.025C561.69 148.535 488.69 48.5053 457.69 12.3353C485.46 45.1353 552.06 131.965 552.06 268.845L521.55 219.525C522.24 221.445 582.27 427.925 483.82 515.505Z" fill="#A99774"/>
<g opacity="0.9">
<path opacity="0.9" d="M374.66 169.455C375.663 165.529 376.868 161.657 378.27 157.855C379.428 154.745 380.764 151.703 382.27 148.745C384.86 143.745 387.1 140.895 388.03 141.285C388.96 141.675 388.51 145.195 387.24 150.565C386.61 153.255 385.81 156.445 384.89 159.915L381.92 171.265L379.05 182.695C378.19 186.225 377.38 189.365 376.66 192.035C375.21 197.365 373.97 200.675 372.93 200.575C371.89 200.475 371.28 196.945 371.41 191.275C371.508 187.965 371.795 184.663 372.27 181.385C372.861 177.37 373.659 173.388 374.66 169.455V169.455Z" fill="white"/>
</g>
<g opacity="0.9">
<path opacity="0.9" d="M372.074 215.12C372.938 210.332 371.986 206.152 369.948 205.784C367.91 205.416 365.557 209 364.693 213.788C363.829 218.576 364.78 222.756 366.818 223.124C368.857 223.492 371.209 219.908 372.074 215.12Z" fill="white"/>
</g>
<g opacity="0.2">
<path opacity="0.2" d="M431.4 34.9853C436.27 31.4553 440.8 28.3853 444.12 26.2753C447.44 24.1653 449.58 22.9453 449.7 23.1353C449.82 23.3253 447.89 24.8053 444.7 27.1353L432.26 36.1353L419.85 45.2653C416.65 47.5653 414.63 48.9453 414.5 48.7953C414.37 48.6453 416.16 46.9653 419.2 44.4453C422.24 41.9253 426.53 38.5353 431.4 34.9853Z" fill="#426270"/>
<path opacity="0.2" d="M433.2 40.7053C443.91 36.5953 452.54 33.1453 452.71 33.5353C452.79 33.7253 450.71 34.8353 447.32 36.4153C443.93 37.9953 439.09 40.0453 433.74 42.1053C428.39 44.1653 423.43 45.8553 419.83 46.9453C416.23 48.0353 413.95 48.5953 413.89 48.4053C413.74 48.0053 422.5 44.8153 433.2 40.7053Z" fill="#426270"/>
</g>
<path d="M438.85 193.815C438.443 193.815 438.044 193.694 437.706 193.468C437.367 193.242 437.103 192.92 436.947 192.544C436.791 192.167 436.75 191.753 436.83 191.353C436.909 190.954 437.105 190.587 437.393 190.299C437.681 190.011 438.049 189.814 438.448 189.735C438.848 189.655 439.262 189.696 439.638 189.852C440.015 190.008 440.336 190.272 440.563 190.611C440.789 190.95 440.91 191.348 440.91 191.755C440.91 192.302 440.693 192.826 440.307 193.212C439.92 193.598 439.396 193.815 438.85 193.815ZM438.85 190.875C438.676 190.875 438.506 190.927 438.361 191.024C438.216 191.12 438.104 191.258 438.037 191.419C437.97 191.579 437.953 191.756 437.987 191.927C438.021 192.098 438.105 192.254 438.228 192.378C438.351 192.501 438.508 192.584 438.678 192.618C438.849 192.652 439.026 192.635 439.187 192.568C439.348 192.502 439.485 192.389 439.582 192.244C439.678 192.099 439.73 191.929 439.73 191.755C439.73 191.522 439.637 191.298 439.472 191.133C439.307 190.968 439.083 190.875 438.85 190.875V190.875Z" fill="#274B5B"/>
<path opacity="0.2" d="M438.85 195.575C438.094 195.575 437.356 195.351 436.728 194.932C436.1 194.512 435.61 193.915 435.321 193.217C435.032 192.519 434.956 191.751 435.103 191.01C435.251 190.269 435.615 189.588 436.149 189.054C436.683 188.52 437.364 188.156 438.105 188.009C438.846 187.861 439.614 187.937 440.312 188.226C441.01 188.515 441.607 189.005 442.026 189.633C442.446 190.261 442.67 191 442.67 191.755C442.67 192.768 442.268 193.74 441.551 194.456C440.835 195.173 439.863 195.575 438.85 195.575V195.575ZM438.85 190.285C438.559 190.285 438.275 190.372 438.033 190.533C437.792 190.695 437.603 190.924 437.492 191.193C437.381 191.461 437.352 191.757 437.408 192.042C437.465 192.327 437.605 192.589 437.811 192.795C438.016 193 438.278 193.14 438.563 193.197C438.848 193.254 439.144 193.225 439.413 193.113C439.681 193.002 439.911 192.814 440.072 192.572C440.234 192.33 440.32 192.046 440.32 191.755C440.323 191.561 440.287 191.367 440.214 191.187C440.141 191.006 440.033 190.842 439.897 190.703C439.76 190.564 439.597 190.454 439.417 190.379C439.238 190.304 439.045 190.265 438.85 190.265V190.285Z" fill="#274B5B"/>
<path d="M438.85 153.565C438.443 153.565 438.044 153.444 437.706 153.218C437.367 152.992 437.103 152.67 436.947 152.294C436.791 151.917 436.75 151.503 436.83 151.103C436.909 150.704 437.105 150.337 437.393 150.049C437.681 149.761 438.049 149.564 438.448 149.485C438.848 149.405 439.262 149.446 439.638 149.602C440.015 149.758 440.336 150.022 440.563 150.361C440.789 150.7 440.91 151.098 440.91 151.505C440.91 152.052 440.693 152.576 440.307 152.962C439.92 153.348 439.396 153.565 438.85 153.565V153.565ZM438.85 150.625C438.676 150.625 438.506 150.677 438.361 150.774C438.216 150.87 438.104 151.008 438.037 151.169C437.97 151.329 437.953 151.506 437.987 151.677C438.021 151.848 438.105 152.004 438.228 152.128C438.351 152.251 438.508 152.334 438.678 152.368C438.849 152.402 439.026 152.385 439.187 152.318C439.348 152.252 439.485 152.139 439.582 151.994C439.678 151.849 439.73 151.679 439.73 151.505C439.727 151.274 439.633 151.052 439.469 150.89C439.304 150.727 439.082 150.635 438.85 150.635V150.625Z" fill="#274B5B"/>
<path opacity="0.2" d="M438.85 155.335C438.094 155.335 437.356 155.111 436.728 154.692C436.1 154.272 435.61 153.675 435.321 152.977C435.032 152.279 434.956 151.511 435.103 150.77C435.251 150.029 435.615 149.348 436.149 148.814C436.683 148.28 437.364 147.916 438.105 147.769C438.846 147.621 439.614 147.697 440.312 147.986C441.01 148.275 441.607 148.765 442.026 149.393C442.446 150.021 442.67 150.76 442.67 151.515C442.67 152.528 442.268 153.5 441.551 154.216C440.835 154.933 439.863 155.335 438.85 155.335V155.335ZM438.85 150.045C438.559 150.045 438.275 150.132 438.033 150.293C437.792 150.455 437.603 150.684 437.492 150.953C437.381 151.221 437.352 151.517 437.408 151.802C437.465 152.087 437.605 152.349 437.811 152.555C438.016 152.76 438.278 152.9 438.563 152.957C438.848 153.014 439.144 152.985 439.413 152.873C439.681 152.762 439.911 152.574 440.072 152.332C440.234 152.09 440.32 151.806 440.32 151.515C440.32 151.125 440.165 150.752 439.889 150.476C439.614 150.2 439.24 150.045 438.85 150.045V150.045Z" fill="#274B5B"/>
<path d="M459.41 166.495C459.003 166.495 458.604 166.374 458.266 166.148C457.927 165.922 457.663 165.6 457.507 165.224C457.351 164.847 457.31 164.433 457.39 164.033C457.469 163.634 457.665 163.267 457.953 162.979C458.241 162.691 458.609 162.494 459.008 162.415C459.408 162.335 459.822 162.376 460.198 162.532C460.575 162.688 460.896 162.952 461.123 163.291C461.349 163.63 461.47 164.028 461.47 164.435C461.47 164.706 461.417 164.974 461.313 165.224C461.21 165.474 461.058 165.701 460.867 165.892C460.675 166.083 460.448 166.235 460.198 166.339C459.948 166.442 459.681 166.495 459.41 166.495V166.495ZM459.41 163.555C459.236 163.555 459.066 163.607 458.921 163.704C458.776 163.8 458.664 163.938 458.597 164.099C458.53 164.259 458.513 164.436 458.547 164.607C458.581 164.778 458.665 164.934 458.788 165.058C458.911 165.181 459.068 165.264 459.238 165.298C459.409 165.332 459.586 165.315 459.747 165.248C459.908 165.182 460.045 165.069 460.142 164.924C460.238 164.779 460.29 164.609 460.29 164.435C460.29 164.202 460.197 163.978 460.032 163.813C459.867 163.648 459.643 163.555 459.41 163.555Z" fill="#274B5B"/>
<path opacity="0.2" d="M459.41 168.265C458.654 168.265 457.916 168.041 457.288 167.622C456.66 167.202 456.17 166.605 455.881 165.907C455.592 165.209 455.516 164.441 455.663 163.7C455.811 162.959 456.175 162.278 456.709 161.744C457.243 161.21 457.924 160.846 458.665 160.699C459.406 160.551 460.174 160.627 460.872 160.916C461.57 161.205 462.167 161.695 462.586 162.323C463.006 162.951 463.23 163.69 463.23 164.445C463.23 165.458 462.828 166.43 462.111 167.146C461.395 167.863 460.423 168.265 459.41 168.265V168.265ZM459.41 162.975C459.119 162.975 458.835 163.062 458.593 163.223C458.352 163.385 458.163 163.614 458.052 163.883C457.941 164.151 457.912 164.447 457.968 164.732C458.025 165.017 458.165 165.279 458.371 165.485C458.576 165.69 458.838 165.83 459.123 165.887C459.408 165.944 459.704 165.915 459.973 165.803C460.241 165.692 460.471 165.504 460.632 165.262C460.794 165.02 460.88 164.736 460.88 164.445C460.88 164.055 460.725 163.682 460.449 163.406C460.174 163.13 459.8 162.975 459.41 162.975V162.975Z" fill="#274B5B"/>
<path d="M459.41 312.795C459.003 312.795 458.604 312.675 458.266 312.448C457.927 312.222 457.663 311.9 457.507 311.524C457.351 311.147 457.31 310.733 457.39 310.333C457.469 309.934 457.665 309.567 457.953 309.279C458.241 308.991 458.609 308.794 459.008 308.715C459.408 308.635 459.822 308.676 460.198 308.832C460.575 308.988 460.896 309.252 461.123 309.591C461.349 309.93 461.47 310.328 461.47 310.735C461.47 311.282 461.253 311.806 460.867 312.192C460.48 312.578 459.956 312.795 459.41 312.795ZM459.41 309.855C459.236 309.855 459.066 309.907 458.921 310.004C458.776 310.1 458.664 310.238 458.597 310.399C458.53 310.559 458.513 310.736 458.547 310.907C458.581 311.078 458.665 311.235 458.788 311.358C458.911 311.481 459.068 311.564 459.238 311.598C459.409 311.632 459.586 311.615 459.747 311.548C459.908 311.482 460.045 311.369 460.142 311.224C460.238 311.08 460.29 310.909 460.29 310.735C460.287 310.504 460.194 310.282 460.029 310.12C459.864 309.957 459.642 309.865 459.41 309.865V309.855Z" fill="#274B5B"/>
<path opacity="0.2" d="M459.41 314.565C458.654 314.565 457.916 314.341 457.288 313.922C456.66 313.502 456.17 312.905 455.881 312.207C455.592 311.509 455.516 310.741 455.663 310C455.811 309.259 456.175 308.578 456.709 308.044C457.243 307.51 457.924 307.146 458.665 306.999C459.406 306.851 460.174 306.927 460.872 307.216C461.57 307.505 462.167 307.995 462.586 308.623C463.006 309.251 463.23 309.99 463.23 310.745C463.23 311.758 462.828 312.73 462.111 313.446C461.395 314.163 460.423 314.565 459.41 314.565V314.565ZM459.41 309.275C459.119 309.275 458.835 309.362 458.593 309.523C458.352 309.685 458.163 309.914 458.052 310.183C457.941 310.451 457.912 310.747 457.968 311.032C458.025 311.317 458.165 311.579 458.371 311.785C458.576 311.99 458.838 312.13 459.123 312.187C459.408 312.244 459.704 312.215 459.973 312.103C460.241 311.992 460.471 311.804 460.632 311.562C460.794 311.32 460.88 311.036 460.88 310.745C460.881 310.551 460.844 310.359 460.771 310.18C460.698 310 460.59 309.837 460.453 309.699C460.316 309.562 460.154 309.453 459.975 309.378C459.796 309.304 459.604 309.265 459.41 309.265V309.275Z" fill="#274B5B"/>
<path d="M460.05 342.765C459.643 342.765 459.244 342.645 458.906 342.418C458.567 342.192 458.303 341.87 458.147 341.494C457.991 341.117 457.95 340.703 458.03 340.303C458.109 339.904 458.305 339.537 458.593 339.249C458.881 338.961 459.249 338.764 459.648 338.685C460.048 338.605 460.462 338.646 460.838 338.802C461.215 338.958 461.536 339.222 461.763 339.561C461.989 339.9 462.11 340.298 462.11 340.705C462.11 341.252 461.893 341.776 461.507 342.162C461.12 342.548 460.596 342.765 460.05 342.765ZM460.05 339.825C459.876 339.825 459.706 339.877 459.561 339.974C459.416 340.07 459.304 340.208 459.237 340.369C459.17 340.529 459.153 340.706 459.187 340.877C459.221 341.048 459.305 341.205 459.428 341.328C459.551 341.451 459.708 341.534 459.878 341.568C460.049 341.602 460.226 341.585 460.387 341.518C460.548 341.452 460.685 341.339 460.782 341.194C460.878 341.05 460.93 340.879 460.93 340.705C460.93 340.472 460.837 340.248 460.672 340.083C460.507 339.918 460.283 339.825 460.05 339.825Z" fill="#274B5B"/>
<path opacity="0.2" d="M460.05 344.525C459.294 344.525 458.556 344.301 457.928 343.882C457.3 343.462 456.81 342.865 456.521 342.167C456.232 341.469 456.156 340.701 456.303 339.96C456.451 339.219 456.815 338.538 457.349 338.004C457.883 337.47 458.564 337.106 459.305 336.959C460.046 336.811 460.814 336.887 461.512 337.176C462.21 337.465 462.806 337.955 463.226 338.583C463.646 339.211 463.87 339.95 463.87 340.705C463.87 341.718 463.468 342.69 462.751 343.406C462.035 344.123 461.063 344.525 460.05 344.525ZM460.05 339.235C459.759 339.235 459.475 339.322 459.233 339.483C458.992 339.645 458.803 339.874 458.692 340.143C458.581 340.411 458.552 340.707 458.608 340.992C458.665 341.277 458.805 341.539 459.011 341.745C459.216 341.95 459.478 342.09 459.763 342.147C460.048 342.204 460.344 342.175 460.613 342.063C460.881 341.952 461.111 341.764 461.272 341.522C461.434 341.28 461.52 340.996 461.52 340.705C461.512 340.321 461.354 339.954 461.079 339.685C460.804 339.416 460.435 339.265 460.05 339.265V339.235Z" fill="#274B5B"/>
<path d="M437.05 304.575C436.643 304.575 436.244 304.455 435.906 304.228C435.567 304.002 435.303 303.68 435.147 303.304C434.991 302.927 434.95 302.513 435.03 302.113C435.109 301.714 435.305 301.347 435.593 301.059C435.881 300.771 436.249 300.574 436.648 300.495C437.048 300.415 437.462 300.456 437.838 300.612C438.215 300.768 438.536 301.032 438.763 301.371C438.989 301.71 439.11 302.108 439.11 302.515C439.11 303.062 438.893 303.586 438.507 303.972C438.12 304.358 437.596 304.575 437.05 304.575ZM437.05 301.635C436.876 301.635 436.706 301.687 436.561 301.784C436.416 301.88 436.304 302.018 436.237 302.179C436.17 302.339 436.153 302.516 436.187 302.687C436.221 302.858 436.305 303.015 436.428 303.138C436.551 303.261 436.708 303.344 436.878 303.378C437.049 303.412 437.226 303.395 437.387 303.328C437.548 303.262 437.685 303.149 437.782 303.004C437.878 302.86 437.93 302.689 437.93 302.515C437.93 302.282 437.837 302.058 437.672 301.893C437.507 301.728 437.283 301.635 437.05 301.635V301.635Z" fill="#274B5B"/>
<path opacity="0.2" d="M437.05 306.335C436.294 306.335 435.556 306.111 434.928 305.692C434.3 305.272 433.81 304.675 433.521 303.977C433.232 303.279 433.156 302.511 433.303 301.77C433.451 301.029 433.815 300.348 434.349 299.814C434.883 299.28 435.564 298.916 436.305 298.769C437.046 298.621 437.814 298.697 438.512 298.986C439.21 299.275 439.806 299.765 440.226 300.393C440.646 301.021 440.87 301.76 440.87 302.515C440.87 303.528 440.468 304.5 439.751 305.216C439.035 305.933 438.063 306.335 437.05 306.335V306.335ZM437.05 301.045C436.759 301.045 436.475 301.132 436.233 301.293C435.992 301.455 435.803 301.684 435.692 301.953C435.581 302.221 435.552 302.517 435.608 302.802C435.665 303.087 435.805 303.349 436.011 303.555C436.216 303.76 436.478 303.9 436.763 303.957C437.048 304.014 437.344 303.985 437.613 303.873C437.881 303.762 438.111 303.574 438.272 303.332C438.434 303.09 438.52 302.806 438.52 302.515C438.52 302.125 438.365 301.752 438.089 301.476C437.814 301.2 437.44 301.045 437.05 301.045V301.045Z" fill="#274B5B"/>
<path d="M437.05 334.535C436.643 334.535 436.244 334.415 435.906 334.188C435.567 333.962 435.303 333.64 435.147 333.264C434.991 332.887 434.95 332.473 435.03 332.073C435.109 331.674 435.305 331.307 435.593 331.019C435.881 330.731 436.249 330.534 436.648 330.455C437.048 330.375 437.462 330.416 437.838 330.572C438.215 330.728 438.536 330.992 438.763 331.331C438.989 331.67 439.11 332.068 439.11 332.475C439.11 333.022 438.893 333.546 438.507 333.932C438.12 334.318 437.596 334.535 437.05 334.535ZM437.05 331.595C436.876 331.595 436.706 331.647 436.561 331.744C436.416 331.84 436.304 331.978 436.237 332.139C436.17 332.299 436.153 332.476 436.187 332.647C436.221 332.818 436.305 332.974 436.428 333.098C436.551 333.221 436.708 333.304 436.878 333.338C437.049 333.372 437.226 333.355 437.387 333.288C437.548 333.222 437.685 333.109 437.782 332.964C437.878 332.82 437.93 332.649 437.93 332.475C437.927 332.244 437.834 332.022 437.669 331.86C437.504 331.697 437.282 331.605 437.05 331.605V331.595Z" fill="#274B5B"/>
<path opacity="0.2" d="M437.05 336.265C436.294 336.265 435.556 336.041 434.928 335.622C434.3 335.202 433.81 334.605 433.521 333.907C433.232 333.209 433.156 332.441 433.303 331.7C433.451 330.959 433.815 330.278 434.349 329.744C434.883 329.21 435.564 328.846 436.305 328.699C437.046 328.551 437.814 328.627 438.512 328.916C439.21 329.205 439.806 329.695 440.226 330.323C440.646 330.951 440.87 331.69 440.87 332.445C440.87 333.458 440.468 334.43 439.751 335.146C439.035 335.863 438.063 336.265 437.05 336.265V336.265ZM437.05 330.975C436.759 330.975 436.475 331.062 436.233 331.223C435.992 331.385 435.803 331.614 435.692 331.883C435.581 332.151 435.552 332.447 435.608 332.732C435.665 333.017 435.805 333.279 436.011 333.485C436.216 333.69 436.478 333.83 436.763 333.887C437.048 333.944 437.344 333.915 437.613 333.803C437.881 333.692 438.111 333.504 438.272 333.262C438.434 333.02 438.52 332.736 438.52 332.445C438.51 332.062 438.35 331.699 438.076 331.432C437.801 331.165 437.433 331.015 437.05 331.015V330.975Z" fill="#274B5B"/>
<path d="M438.85 234.065C438.443 234.065 438.044 233.944 437.706 233.718C437.367 233.492 437.103 233.17 436.947 232.794C436.791 232.417 436.75 232.003 436.83 231.603C436.909 231.204 437.105 230.837 437.393 230.549C437.681 230.261 438.049 230.064 438.448 229.985C438.848 229.905 439.262 229.946 439.638 230.102C440.015 230.258 440.336 230.522 440.563 230.861C440.789 231.2 440.91 231.598 440.91 232.005C440.91 232.552 440.693 233.076 440.307 233.462C439.92 233.848 439.396 234.065 438.85 234.065ZM438.85 231.125C438.676 231.125 438.506 231.177 438.361 231.274C438.216 231.37 438.104 231.508 438.037 231.669C437.97 231.829 437.953 232.006 437.987 232.177C438.021 232.348 438.105 232.504 438.228 232.628C438.351 232.751 438.508 232.834 438.678 232.868C438.849 232.902 439.026 232.885 439.187 232.818C439.348 232.752 439.485 232.639 439.582 232.494C439.678 232.349 439.73 232.179 439.73 232.005C439.73 231.772 439.637 231.548 439.472 231.383C439.307 231.218 439.083 231.125 438.85 231.125V231.125Z" fill="#274B5B"/>
<path opacity="0.2" d="M438.85 235.825C438.094 235.825 437.356 235.601 436.728 235.182C436.1 234.762 435.61 234.165 435.321 233.467C435.032 232.769 434.956 232.001 435.103 231.26C435.251 230.519 435.615 229.838 436.149 229.304C436.683 228.77 437.364 228.406 438.105 228.259C438.846 228.111 439.614 228.187 440.312 228.476C441.01 228.765 441.607 229.255 442.026 229.883C442.446 230.511 442.67 231.25 442.67 232.005C442.67 233.018 442.268 233.99 441.551 234.706C440.835 235.423 439.863 235.825 438.85 235.825V235.825ZM438.85 230.535C438.559 230.535 438.275 230.622 438.033 230.783C437.792 230.945 437.603 231.174 437.492 231.443C437.381 231.711 437.352 232.007 437.408 232.292C437.465 232.577 437.605 232.839 437.811 233.045C438.016 233.25 438.278 233.39 438.563 233.447C438.848 233.504 439.144 233.475 439.413 233.363C439.681 233.252 439.911 233.064 440.072 232.822C440.234 232.58 440.32 232.296 440.32 232.005C440.32 231.615 440.165 231.242 439.889 230.966C439.614 230.69 439.24 230.535 438.85 230.535V230.535Z" fill="#274B5B"/>
<path d="M485.85 111.265C485.443 111.265 485.044 111.145 484.706 110.918C484.367 110.692 484.103 110.37 483.947 109.994C483.791 109.617 483.75 109.203 483.83 108.803C483.909 108.404 484.105 108.037 484.393 107.749C484.681 107.461 485.049 107.264 485.448 107.185C485.848 107.105 486.262 107.146 486.638 107.302C487.015 107.458 487.336 107.722 487.563 108.061C487.789 108.4 487.91 108.798 487.91 109.205C487.91 109.476 487.857 109.744 487.753 109.994C487.65 110.244 487.498 110.471 487.307 110.662C487.115 110.853 486.888 111.005 486.638 111.109C486.388 111.212 486.121 111.265 485.85 111.265ZM485.85 108.325C485.676 108.325 485.506 108.377 485.361 108.474C485.216 108.57 485.104 108.708 485.037 108.869C484.97 109.029 484.953 109.206 484.987 109.377C485.021 109.548 485.105 109.705 485.228 109.828C485.351 109.951 485.508 110.034 485.678 110.068C485.849 110.102 486.026 110.085 486.187 110.018C486.348 109.952 486.485 109.839 486.582 109.694C486.678 109.55 486.73 109.379 486.73 109.205C486.73 108.972 486.637 108.748 486.472 108.583C486.307 108.418 486.083 108.325 485.85 108.325Z" fill="#274B5B"/>
<path opacity="0.2" d="M485.85 113.025C485.094 113.025 484.356 112.801 483.728 112.382C483.1 111.962 482.61 111.365 482.321 110.667C482.032 109.969 481.956 109.201 482.103 108.46C482.251 107.719 482.615 107.038 483.149 106.504C483.683 105.97 484.364 105.606 485.105 105.459C485.846 105.311 486.614 105.387 487.312 105.676C488.01 105.965 488.607 106.455 489.026 107.083C489.446 107.711 489.67 108.45 489.67 109.205C489.67 110.218 489.268 111.19 488.551 111.906C487.835 112.623 486.863 113.025 485.85 113.025V113.025ZM485.85 107.735C485.559 107.735 485.275 107.822 485.033 107.983C484.792 108.145 484.603 108.374 484.492 108.643C484.381 108.911 484.352 109.207 484.408 109.492C484.465 109.777 484.605 110.039 484.811 110.245C485.016 110.45 485.278 110.59 485.563 110.647C485.848 110.704 486.144 110.675 486.413 110.563C486.681 110.452 486.911 110.264 487.072 110.022C487.234 109.78 487.32 109.496 487.32 109.205C487.32 108.815 487.165 108.442 486.889 108.166C486.614 107.89 486.24 107.735 485.85 107.735V107.735Z" fill="#274B5B"/>
<path d="M411.82 111.265C411.413 111.265 411.014 111.145 410.676 110.918C410.337 110.692 410.073 110.37 409.917 109.994C409.761 109.617 409.72 109.203 409.8 108.803C409.879 108.404 410.075 108.037 410.363 107.749C410.651 107.461 411.019 107.264 411.418 107.185C411.818 107.105 412.232 107.146 412.608 107.302C412.985 107.458 413.306 107.722 413.533 108.061C413.759 108.4 413.88 108.798 413.88 109.205C413.88 109.476 413.827 109.744 413.723 109.994C413.62 110.244 413.468 110.471 413.277 110.662C413.085 110.853 412.858 111.005 412.608 111.109C412.358 111.212 412.091 111.265 411.82 111.265V111.265ZM411.82 108.325C411.646 108.325 411.476 108.377 411.331 108.474C411.186 108.57 411.074 108.708 411.007 108.869C410.94 109.029 410.923 109.206 410.957 109.377C410.991 109.548 411.075 109.705 411.198 109.828C411.321 109.951 411.478 110.034 411.648 110.068C411.819 110.102 411.996 110.085 412.157 110.018C412.318 109.952 412.455 109.839 412.552 109.694C412.648 109.55 412.7 109.379 412.7 109.205C412.7 108.972 412.607 108.748 412.442 108.583C412.277 108.418 412.053 108.325 411.82 108.325Z" fill="#274B5B"/>
<path opacity="0.2" d="M411.82 113.025C411.064 113.025 410.326 112.801 409.698 112.382C409.07 111.962 408.58 111.365 408.291 110.667C408.002 109.969 407.926 109.201 408.073 108.46C408.221 107.719 408.585 107.038 409.119 106.504C409.653 105.97 410.334 105.606 411.075 105.459C411.816 105.311 412.584 105.387 413.282 105.676C413.98 105.965 414.577 106.455 414.996 107.083C415.416 107.711 415.64 108.45 415.64 109.205C415.64 110.218 415.238 111.19 414.521 111.906C413.805 112.623 412.833 113.025 411.82 113.025V113.025ZM411.82 107.735C411.529 107.735 411.245 107.822 411.003 107.983C410.762 108.145 410.573 108.374 410.462 108.643C410.351 108.911 410.322 109.207 410.378 109.492C410.435 109.777 410.575 110.039 410.781 110.245C410.986 110.45 411.248 110.59 411.533 110.647C411.818 110.704 412.114 110.675 412.383 110.563C412.651 110.452 412.881 110.264 413.042 110.022C413.204 109.78 413.29 109.496 413.29 109.205C413.29 108.815 413.135 108.442 412.859 108.166C412.584 107.89 412.21 107.735 411.82 107.735Z" fill="#274B5B"/>
<path d="M448.84 111.265C448.433 111.265 448.034 111.145 447.696 110.918C447.357 110.692 447.093 110.37 446.937 109.994C446.781 109.617 446.74 109.203 446.82 108.803C446.899 108.404 447.095 108.037 447.383 107.749C447.671 107.461 448.039 107.264 448.438 107.185C448.838 107.105 449.252 107.146 449.628 107.302C450.005 107.458 450.327 107.722 450.553 108.061C450.779 108.4 450.9 108.798 450.9 109.205C450.9 109.476 450.847 109.744 450.743 109.994C450.64 110.244 450.488 110.471 450.297 110.662C450.105 110.853 449.878 111.005 449.628 111.109C449.378 111.212 449.111 111.265 448.84 111.265ZM448.84 108.325C448.666 108.325 448.496 108.377 448.351 108.474C448.206 108.57 448.094 108.708 448.027 108.869C447.96 109.029 447.943 109.206 447.977 109.377C448.011 109.548 448.095 109.705 448.218 109.828C448.341 109.951 448.498 110.034 448.668 110.068C448.839 110.102 449.016 110.085 449.177 110.018C449.338 109.952 449.475 109.839 449.572 109.694C449.668 109.55 449.72 109.379 449.72 109.205C449.72 108.972 449.627 108.748 449.462 108.583C449.297 108.418 449.073 108.325 448.84 108.325Z" fill="#274B5B"/>
<path opacity="0.2" d="M448.84 113.025C448.085 113.025 447.346 112.801 446.718 112.382C446.09 111.962 445.6 111.365 445.311 110.667C445.022 109.969 444.946 109.201 445.093 108.46C445.241 107.719 445.605 107.038 446.139 106.504C446.673 105.97 447.354 105.606 448.095 105.459C448.836 105.311 449.604 105.387 450.302 105.676C451 105.965 451.596 106.455 452.016 107.083C452.436 107.711 452.66 108.45 452.66 109.205C452.66 110.218 452.258 111.19 451.541 111.906C450.825 112.623 449.853 113.025 448.84 113.025V113.025ZM448.84 107.735C448.549 107.735 448.265 107.822 448.023 107.983C447.782 108.145 447.593 108.374 447.482 108.643C447.371 108.911 447.342 109.207 447.398 109.492C447.455 109.777 447.595 110.039 447.801 110.245C448.006 110.45 448.268 110.59 448.553 110.647C448.838 110.704 449.134 110.675 449.403 110.563C449.671 110.452 449.901 110.264 450.062 110.022C450.224 109.78 450.31 109.496 450.31 109.205C450.31 108.815 450.155 108.442 449.879 108.166C449.604 107.89 449.23 107.735 448.84 107.735V107.735Z" fill="#274B5B"/>
<path d="M438.85 379.195C438.443 379.195 438.044 379.075 437.706 378.848C437.367 378.622 437.103 378.3 436.947 377.924C436.791 377.547 436.75 377.133 436.83 376.733C436.909 376.334 437.105 375.967 437.393 375.679C437.681 375.391 438.049 375.194 438.448 375.115C438.848 375.035 439.262 375.076 439.638 375.232C440.015 375.388 440.336 375.652 440.563 375.991C440.789 376.33 440.91 376.728 440.91 377.135C440.91 377.682 440.693 378.206 440.307 378.592C439.92 378.978 439.396 379.195 438.85 379.195V379.195ZM438.85 376.255C438.676 376.255 438.506 376.307 438.361 376.404C438.216 376.5 438.104 376.638 438.037 376.799C437.97 376.959 437.953 377.136 437.987 377.307C438.021 377.478 438.105 377.635 438.228 377.758C438.351 377.881 438.508 377.964 438.678 377.998C438.849 378.032 439.026 378.015 439.187 377.948C439.348 377.882 439.485 377.769 439.582 377.624C439.678 377.479 439.73 377.309 439.73 377.135C439.727 376.904 439.633 376.682 439.469 376.52C439.304 376.357 439.082 376.265 438.85 376.265V376.255Z" fill="#274B5B"/>
<path opacity="0.2" d="M438.85 380.955C438.094 380.955 437.356 380.731 436.728 380.312C436.1 379.892 435.61 379.295 435.321 378.597C435.032 377.899 434.956 377.131 435.103 376.39C435.251 375.649 435.615 374.968 436.149 374.434C436.683 373.9 437.364 373.536 438.105 373.389C438.846 373.241 439.614 373.317 440.312 373.606C441.01 373.895 441.607 374.385 442.026 375.013C442.446 375.641 442.67 376.38 442.67 377.135C442.67 378.148 442.268 379.12 441.551 379.836C440.835 380.553 439.863 380.955 438.85 380.955V380.955ZM438.85 375.665C438.559 375.665 438.275 375.752 438.033 375.913C437.792 376.075 437.603 376.304 437.492 376.573C437.381 376.841 437.352 377.137 437.408 377.422C437.465 377.707 437.605 377.969 437.811 378.175C438.016 378.38 438.278 378.52 438.563 378.577C438.848 378.634 439.144 378.605 439.413 378.493C439.681 378.382 439.911 378.194 440.072 377.952C440.234 377.71 440.32 377.426 440.32 377.135C440.32 376.745 440.165 376.372 439.889 376.096C439.614 375.82 439.24 375.665 438.85 375.665V375.665Z" fill="#274B5B"/>
<path d="M438.85 422.265C438.443 422.265 438.044 422.145 437.706 421.918C437.367 421.692 437.103 421.37 436.947 420.994C436.791 420.617 436.75 420.203 436.83 419.803C436.909 419.404 437.105 419.037 437.393 418.749C437.681 418.461 438.049 418.264 438.448 418.185C438.848 418.105 439.262 418.146 439.638 418.302C440.015 418.458 440.336 418.722 440.563 419.061C440.789 419.4 440.91 419.798 440.91 420.205C440.91 420.752 440.693 421.276 440.307 421.662C439.92 422.048 439.396 422.265 438.85 422.265V422.265ZM438.85 419.325C438.676 419.325 438.506 419.377 438.361 419.474C438.216 419.57 438.104 419.708 438.037 419.869C437.97 420.029 437.953 420.206 437.987 420.377C438.021 420.548 438.105 420.705 438.228 420.828C438.351 420.951 438.508 421.034 438.678 421.068C438.849 421.102 439.026 421.085 439.187 421.018C439.348 420.952 439.485 420.839 439.582 420.694C439.678 420.55 439.73 420.379 439.73 420.205C439.725 419.975 439.63 419.757 439.465 419.596C439.301 419.435 439.08 419.345 438.85 419.345V419.325Z" fill="#274B5B"/>
<path opacity="0.2" d="M438.85 424.045C438.094 424.045 437.356 423.821 436.728 423.402C436.1 422.982 435.61 422.385 435.321 421.687C435.032 420.989 434.956 420.221 435.103 419.48C435.251 418.739 435.615 418.058 436.149 417.524C436.683 416.99 437.364 416.626 438.105 416.479C438.846 416.331 439.614 416.407 440.312 416.696C441.01 416.985 441.607 417.475 442.026 418.103C442.446 418.731 442.67 419.47 442.67 420.225C442.67 421.238 442.268 422.21 441.551 422.926C440.835 423.643 439.863 424.045 438.85 424.045V424.045ZM438.85 418.755C438.559 418.755 438.275 418.842 438.033 419.003C437.792 419.165 437.603 419.394 437.492 419.663C437.381 419.931 437.352 420.227 437.408 420.512C437.465 420.797 437.605 421.059 437.811 421.265C438.016 421.47 438.278 421.61 438.563 421.667C438.848 421.724 439.144 421.695 439.413 421.583C439.681 421.472 439.911 421.284 440.072 421.042C440.234 420.8 440.32 420.516 440.32 420.225C440.32 419.835 440.165 419.462 439.889 419.186C439.614 418.91 439.24 418.755 438.85 418.755V418.755Z" fill="#274B5B"/>
<path d="M438.85 465.375C438.443 465.375 438.044 465.254 437.706 465.028C437.367 464.802 437.103 464.48 436.947 464.104C436.791 463.727 436.75 463.313 436.83 462.913C436.909 462.514 437.105 462.147 437.393 461.859C437.681 461.571 438.049 461.374 438.448 461.295C438.848 461.215 439.262 461.256 439.638 461.412C440.015 461.568 440.336 461.832 440.563 462.171C440.789 462.51 440.91 462.908 440.91 463.315C440.91 463.862 440.693 464.386 440.307 464.772C439.92 465.158 439.396 465.375 438.85 465.375ZM438.85 462.435C438.676 462.435 438.506 462.487 438.361 462.584C438.216 462.68 438.104 462.818 438.037 462.979C437.97 463.139 437.953 463.316 437.987 463.487C438.021 463.658 438.105 463.814 438.228 463.938C438.351 464.061 438.508 464.144 438.678 464.178C438.849 464.212 439.026 464.195 439.187 464.128C439.348 464.062 439.485 463.949 439.582 463.804C439.678 463.66 439.73 463.489 439.73 463.315C439.73 463.082 439.637 462.858 439.472 462.693C439.307 462.528 439.083 462.435 438.85 462.435V462.435Z" fill="#274B5B"/>
<path opacity="0.2" d="M438.85 467.135C438.094 467.135 437.356 466.911 436.728 466.492C436.1 466.072 435.61 465.475 435.321 464.777C435.032 464.079 434.956 463.311 435.103 462.57C435.251 461.829 435.615 461.148 436.149 460.614C436.683 460.08 437.364 459.716 438.105 459.569C438.846 459.421 439.614 459.497 440.312 459.786C441.01 460.075 441.607 460.565 442.026 461.193C442.446 461.821 442.67 462.56 442.67 463.315C442.67 464.328 442.268 465.3 441.551 466.016C440.835 466.733 439.863 467.135 438.85 467.135V467.135ZM438.85 461.845C438.559 461.845 438.275 461.932 438.033 462.093C437.792 462.255 437.603 462.484 437.492 462.753C437.381 463.021 437.352 463.317 437.408 463.602C437.465 463.887 437.605 464.149 437.811 464.355C438.016 464.56 438.278 464.7 438.563 464.757C438.848 464.814 439.144 464.785 439.413 464.673C439.681 464.562 439.911 464.374 440.072 464.132C440.234 463.89 440.32 463.606 440.32 463.315C440.32 462.925 440.165 462.552 439.889 462.276C439.614 462 439.24 461.845 438.85 461.845Z" fill="#274B5B"/>
<path d="M438.85 508.455C438.443 508.455 438.044 508.335 437.706 508.108C437.367 507.882 437.103 507.56 436.947 507.184C436.791 506.807 436.75 506.393 436.83 505.993C436.909 505.594 437.105 505.227 437.393 504.939C437.681 504.651 438.049 504.454 438.448 504.375C438.848 504.295 439.262 504.336 439.638 504.492C440.015 504.648 440.336 504.912 440.563 505.251C440.789 505.59 440.91 505.988 440.91 506.395C440.91 506.942 440.693 507.466 440.307 507.852C439.92 508.238 439.396 508.455 438.85 508.455ZM438.85 505.515C438.676 505.515 438.506 505.567 438.361 505.664C438.216 505.76 438.104 505.898 438.037 506.059C437.97 506.219 437.953 506.396 437.987 506.567C438.021 506.738 438.105 506.895 438.228 507.018C438.351 507.141 438.508 507.224 438.678 507.258C438.849 507.292 439.026 507.275 439.187 507.208C439.348 507.142 439.485 507.029 439.582 506.884C439.678 506.74 439.73 506.569 439.73 506.395C439.73 506.162 439.637 505.938 439.472 505.773C439.307 505.608 439.083 505.515 438.85 505.515V505.515Z" fill="#274B5B"/>
<path opacity="0.2" d="M438.85 510.265C438.094 510.265 437.356 510.041 436.728 509.622C436.1 509.202 435.61 508.605 435.321 507.907C435.032 507.209 434.956 506.441 435.103 505.7C435.251 504.959 435.615 504.278 436.149 503.744C436.683 503.21 437.364 502.846 438.105 502.699C438.846 502.551 439.614 502.627 440.312 502.916C441.01 503.205 441.607 503.695 442.026 504.323C442.446 504.951 442.67 505.69 442.67 506.445C442.67 507.458 442.268 508.43 441.551 509.146C440.835 509.863 439.863 510.265 438.85 510.265V510.265ZM438.85 504.975C438.559 504.975 438.275 505.062 438.033 505.223C437.792 505.385 437.603 505.614 437.492 505.883C437.381 506.151 437.352 506.447 437.408 506.732C437.465 507.017 437.605 507.279 437.811 507.485C438.016 507.69 438.278 507.83 438.563 507.887C438.848 507.944 439.144 507.915 439.413 507.803C439.681 507.692 439.911 507.504 440.072 507.262C440.234 507.02 440.32 506.736 440.32 506.445C440.325 506.249 440.291 506.053 440.22 505.87C440.148 505.688 440.041 505.521 439.904 505.38C439.767 505.239 439.603 505.127 439.422 505.051C439.241 504.975 439.046 504.935 438.85 504.935V504.975Z" fill="#274B5B"/>
<path opacity="0.6" d="M452.36 293.405C479.781 293.405 502.01 271.176 502.01 243.755C502.01 216.334 479.781 194.105 452.36 194.105C424.939 194.105 402.71 216.334 402.71 243.755C402.71 271.176 424.939 293.405 452.36 293.405Z" fill="#5C7869"/>
<path d="M452.95 275.195C480.371 275.195 502.6 252.966 502.6 225.545C502.6 198.124 480.371 175.895 452.95 175.895C425.529 175.895 403.3 198.124 403.3 225.545C403.3 252.966 425.529 275.195 452.95 275.195Z" fill="#94E0F7"/>
<path opacity="0.2" d="M452.36 272.265C443.818 272.265 435.467 269.732 428.365 264.986C421.262 260.241 415.727 253.495 412.458 245.603C409.189 237.711 408.333 229.027 410 220.649C411.666 212.271 415.78 204.576 421.82 198.535C427.86 192.495 435.556 188.382 443.934 186.715C452.312 185.049 460.996 185.904 468.888 189.173C476.78 192.442 483.525 197.978 488.271 205.08C493.017 212.183 495.55 220.533 495.55 229.075C495.539 240.527 490.986 251.506 482.888 259.604C474.791 267.701 463.811 272.255 452.36 272.265V272.265ZM452.36 188.835C444.399 188.835 436.617 191.196 429.998 195.619C423.379 200.041 418.22 206.328 415.174 213.682C412.127 221.037 411.33 229.13 412.883 236.938C414.436 244.745 418.27 251.917 423.899 257.546C429.528 263.175 436.7 267.009 444.508 268.562C452.315 270.115 460.408 269.318 467.763 266.271C475.118 263.225 481.404 258.066 485.827 251.447C490.249 244.828 492.61 237.046 492.61 229.085C492.602 218.412 488.359 208.178 480.813 200.629C473.267 193.081 463.033 188.836 452.36 188.825V188.835Z" fill="#274B5B"/>
<path d="M469.56 181.265L441.23 276.415C433.999 274.474 427.303 270.914 421.65 266.005L447.5 179.265C454.91 178.268 462.45 178.952 469.56 181.265V181.265Z" fill="white"/>
<path d="M485.33 189.875L459.12 277.875C457.459 278.045 455.79 278.128 454.12 278.125C452.115 278.127 450.111 278.007 448.12 277.765L476.05 183.935C479.354 185.565 482.467 187.557 485.33 189.875V189.875Z" fill="white"/>
<path opacity="0.8" d="M417.4 239.545C417.119 239.544 416.848 239.442 416.636 239.259C416.423 239.076 416.283 238.823 416.24 238.545C414.544 227.789 416.587 216.777 422.03 207.345C425.11 202.065 428.73 198.895 432.8 197.945C432.955 197.896 433.119 197.879 433.28 197.895C433.442 197.912 433.599 197.962 433.741 198.042C433.882 198.122 434.006 198.231 434.103 198.361C434.201 198.491 434.271 198.64 434.308 198.798C434.345 198.957 434.35 199.121 434.32 199.281C434.291 199.441 434.229 199.594 434.138 199.728C434.047 199.863 433.929 199.978 433.792 200.065C433.655 200.153 433.501 200.21 433.34 200.235C429.93 201.035 426.81 203.835 424.07 208.535C418.9 217.499 416.958 227.964 418.57 238.185C418.594 238.339 418.587 238.496 418.55 238.647C418.512 238.799 418.445 238.941 418.352 239.066C418.259 239.19 418.141 239.295 418.007 239.374C417.873 239.453 417.724 239.505 417.57 239.525L417.4 239.545Z" fill="white"/>
<path d="M486.44 232.265C486.033 232.265 485.634 232.144 485.296 231.918C484.957 231.692 484.693 231.37 484.537 230.994C484.381 230.617 484.34 230.203 484.42 229.803C484.499 229.404 484.695 229.037 484.983 228.749C485.271 228.461 485.639 228.264 486.038 228.185C486.438 228.105 486.852 228.146 487.228 228.302C487.605 228.458 487.926 228.722 488.153 229.061C488.379 229.4 488.5 229.798 488.5 230.205C488.5 230.752 488.283 231.276 487.897 231.662C487.51 232.048 486.986 232.265 486.44 232.265ZM486.44 229.325C486.266 229.325 486.096 229.377 485.951 229.474C485.806 229.57 485.694 229.708 485.627 229.869C485.56 230.029 485.543 230.206 485.577 230.377C485.611 230.548 485.695 230.704 485.818 230.828C485.941 230.951 486.098 231.034 486.268 231.068C486.439 231.102 486.616 231.085 486.777 231.018C486.938 230.952 487.075 230.839 487.172 230.694C487.268 230.55 487.32 230.379 487.32 230.205C487.31 229.979 487.212 229.765 487.049 229.609C486.885 229.452 486.667 229.365 486.44 229.365V229.325Z" fill="#274B5B"/>
<path opacity="0.2" d="M486.44 234.065C485.685 234.065 484.946 233.841 484.318 233.422C483.69 233.002 483.2 232.405 482.911 231.707C482.622 231.009 482.546 230.241 482.693 229.5C482.841 228.759 483.205 228.078 483.739 227.544C484.273 227.01 484.954 226.646 485.695 226.499C486.436 226.351 487.204 226.427 487.902 226.716C488.6 227.005 489.197 227.495 489.616 228.123C490.036 228.751 490.26 229.49 490.26 230.245C490.26 231.258 489.858 232.23 489.141 232.946C488.425 233.663 487.453 234.065 486.44 234.065V234.065ZM486.44 228.775C486.149 228.775 485.865 228.862 485.623 229.023C485.382 229.185 485.193 229.414 485.082 229.683C484.971 229.951 484.942 230.247 484.998 230.532C485.055 230.817 485.195 231.079 485.401 231.285C485.606 231.49 485.868 231.63 486.153 231.687C486.438 231.744 486.734 231.715 487.003 231.603C487.271 231.492 487.501 231.304 487.662 231.062C487.824 230.82 487.91 230.536 487.91 230.245C487.91 230.052 487.872 229.861 487.798 229.683C487.724 229.504 487.616 229.342 487.479 229.206C487.343 229.069 487.181 228.961 487.003 228.887C486.824 228.813 486.633 228.775 486.44 228.775Z" fill="#274B5B"/>
<path d="M452.36 284.885C441.32 284.885 430.528 281.612 421.348 275.478C412.169 269.344 405.014 260.626 400.789 250.427C396.564 240.227 395.459 229.003 397.613 218.175C399.766 207.347 405.083 197.401 412.889 189.595C420.696 181.788 430.642 176.472 441.47 174.318C452.298 172.164 463.522 173.269 473.721 177.494C483.921 181.719 492.639 188.874 498.773 198.053C504.906 207.233 508.18 218.025 508.18 229.065C508.164 243.865 502.278 258.054 491.813 268.518C481.348 278.983 467.16 284.869 452.36 284.885V284.885ZM452.36 185.585C443.76 185.585 435.354 188.135 428.204 192.913C421.054 197.691 415.481 204.481 412.19 212.426C408.899 220.371 408.038 229.114 409.715 237.548C411.393 245.982 415.534 253.73 421.615 259.81C427.696 265.891 435.443 270.032 443.877 271.71C452.312 273.388 461.054 272.526 468.999 269.236C476.944 265.945 483.735 260.372 488.512 253.221C493.29 246.071 495.84 237.665 495.84 229.065C495.824 217.539 491.238 206.49 483.087 198.341C474.936 190.192 463.886 185.609 452.36 185.595V185.585Z" fill="#274B5B"/>
<path d="M420.86 513.155V427.415C420.823 398.416 431.75 370.476 451.45 349.195V349.195C470.789 370.417 481.49 398.104 481.45 426.815V513.045" fill="#ECF2FA"/>
<path d="M455.6 360.665C438.17 380.969 428.591 406.846 428.6 433.605V517.865H421.55V433.605C421.55 405.012 432.495 377.502 452.14 356.725V356.725C453.32 358.019 454.473 359.332 455.6 360.665Z" fill="white"/>
<path d="M475.57 431.945V516.685L451.25 516.735C473.88 471.255 466.7 409.975 462.11 378.735C470.945 395.079 475.571 413.366 475.57 431.945V431.945Z" fill="#8BBACC"/>
<g opacity="0.4">
<path opacity="0.4" d="M397.19 360.945C400.97 354.825 403.65 349.635 404.06 349.815C404.47 349.995 402.3 355.515 398.46 361.725C394.62 367.935 390.67 372.355 390.36 372.105C390.05 371.855 393.44 367.075 397.19 360.945Z" fill="#426270"/>
<path opacity="0.4" d="M403.185 364.824C405.616 360.686 407.298 357.162 406.941 356.952C406.584 356.742 404.323 359.926 401.891 364.064C399.46 368.202 397.778 371.726 398.135 371.936C398.492 372.146 400.753 368.962 403.185 364.824Z" fill="#426270"/>
<path opacity="0.4" d="M398.68 365.005C404.2 367.235 408.81 368.775 408.68 369.185C408.55 369.595 403.68 368.675 398.1 366.395C392.52 364.115 388.33 361.395 388.53 361.075C388.73 360.755 393.15 362.795 398.68 365.005Z" fill="#426270"/>
<path opacity="0.4" d="M403.9 363.515C408.9 365.865 413.13 367.345 413.01 367.755C412.89 368.165 408.39 367.265 403.27 364.875C398.15 362.485 394.56 359.585 394.79 359.285C395.02 358.985 398.9 361.205 403.9 363.515Z" fill="#426270"/>
</g>
<path d="M439.44 406.805C439.033 406.805 438.634 406.685 438.296 406.458C437.957 406.232 437.693 405.91 437.537 405.534C437.381 405.157 437.34 404.743 437.42 404.343C437.499 403.944 437.695 403.577 437.983 403.289C438.271 403.001 438.639 402.804 439.038 402.725C439.438 402.645 439.852 402.686 440.228 402.842C440.605 402.998 440.926 403.262 441.153 403.601C441.379 403.94 441.5 404.338 441.5 404.745C441.5 405.292 441.283 405.816 440.897 406.202C440.51 406.588 439.986 406.805 439.44 406.805V406.805ZM439.44 403.865C439.266 403.865 439.096 403.917 438.951 404.014C438.806 404.11 438.694 404.248 438.627 404.409C438.56 404.569 438.543 404.746 438.577 404.917C438.611 405.088 438.695 405.245 438.818 405.368C438.941 405.491 439.098 405.574 439.268 405.608C439.439 405.642 439.616 405.625 439.777 405.558C439.938 405.492 440.075 405.379 440.172 405.234C440.268 405.09 440.32 404.919 440.32 404.745C440.317 404.514 440.224 404.292 440.059 404.13C439.894 403.967 439.672 403.875 439.44 403.875V403.865Z" fill="#274B5B"/>
<path opacity="0.2" d="M439.44 408.575C438.685 408.575 437.946 408.351 437.318 407.932C436.69 407.512 436.2 406.915 435.911 406.217C435.622 405.519 435.546 404.751 435.693 404.01C435.841 403.269 436.205 402.588 436.739 402.054C437.273 401.52 437.954 401.156 438.695 401.009C439.436 400.861 440.204 400.937 440.902 401.226C441.6 401.515 442.197 402.005 442.616 402.633C443.036 403.261 443.26 404 443.26 404.755C443.26 405.768 442.858 406.74 442.141 407.456C441.425 408.173 440.453 408.575 439.44 408.575V408.575ZM439.44 403.285C439.149 403.285 438.865 403.372 438.623 403.533C438.382 403.695 438.193 403.924 438.082 404.193C437.971 404.461 437.942 404.757 437.998 405.042C438.055 405.327 438.195 405.589 438.401 405.795C438.606 406 438.868 406.14 439.153 406.197C439.438 406.254 439.734 406.225 440.003 406.113C440.271 406.002 440.501 405.814 440.662 405.572C440.824 405.33 440.91 405.046 440.91 404.755C440.913 404.561 440.877 404.367 440.804 404.187C440.731 404.006 440.623 403.842 440.487 403.703C440.35 403.564 440.187 403.454 440.007 403.379C439.828 403.304 439.635 403.265 439.44 403.265V403.285Z" fill="#274B5B"/>
<path d="M439.44 492.595C439.033 492.595 438.634 492.474 438.296 492.248C437.957 492.022 437.693 491.7 437.537 491.324C437.381 490.947 437.34 490.533 437.42 490.133C437.499 489.734 437.695 489.367 437.983 489.079C438.271 488.791 438.639 488.594 439.038 488.515C439.438 488.435 439.852 488.476 440.228 488.632C440.605 488.788 440.926 489.052 441.153 489.391C441.379 489.73 441.5 490.128 441.5 490.535C441.5 491.082 441.283 491.606 440.897 491.992C440.51 492.378 439.986 492.595 439.44 492.595V492.595ZM439.44 489.655C439.266 489.655 439.096 489.707 438.951 489.804C438.806 489.9 438.694 490.038 438.627 490.199C438.56 490.359 438.543 490.536 438.577 490.707C438.611 490.878 438.695 491.034 438.818 491.158C438.941 491.281 439.098 491.364 439.268 491.398C439.439 491.432 439.616 491.415 439.777 491.348C439.938 491.282 440.075 491.169 440.172 491.024C440.268 490.88 440.32 490.709 440.32 490.535C440.32 490.302 440.227 490.078 440.062 489.913C439.897 489.748 439.673 489.655 439.44 489.655V489.655Z" fill="#274B5B"/>
<path opacity="0.2" d="M439.44 494.355C438.685 494.355 437.946 494.131 437.318 493.712C436.69 493.292 436.2 492.695 435.911 491.997C435.622 491.299 435.546 490.531 435.693 489.79C435.841 489.049 436.205 488.368 436.739 487.834C437.273 487.3 437.954 486.936 438.695 486.789C439.436 486.641 440.204 486.717 440.902 487.006C441.6 487.295 442.197 487.785 442.616 488.413C443.036 489.041 443.26 489.78 443.26 490.535C443.26 491.548 442.858 492.52 442.141 493.236C441.425 493.953 440.453 494.355 439.44 494.355V494.355ZM439.44 489.065C439.149 489.065 438.865 489.152 438.623 489.313C438.382 489.475 438.193 489.704 438.082 489.973C437.971 490.241 437.942 490.537 437.998 490.822C438.055 491.107 438.195 491.369 438.401 491.575C438.606 491.78 438.868 491.92 439.153 491.977C439.438 492.034 439.734 492.005 440.003 491.893C440.271 491.782 440.501 491.594 440.662 491.352C440.824 491.11 440.91 490.826 440.91 490.535C440.91 490.145 440.755 489.772 440.479 489.496C440.204 489.22 439.83 489.065 439.44 489.065V489.065Z" fill="#274B5B"/>
<path d="M439.44 449.705C439.033 449.705 438.634 449.585 438.296 449.358C437.957 449.132 437.693 448.81 437.537 448.434C437.381 448.057 437.34 447.643 437.42 447.243C437.499 446.844 437.695 446.477 437.983 446.189C438.271 445.901 438.639 445.704 439.038 445.625C439.438 445.545 439.852 445.586 440.228 445.742C440.605 445.898 440.926 446.162 441.153 446.501C441.379 446.84 441.5 447.238 441.5 447.645C441.5 448.192 441.283 448.716 440.897 449.102C440.51 449.488 439.986 449.705 439.44 449.705V449.705ZM439.44 446.765C439.266 446.765 439.096 446.817 438.951 446.914C438.806 447.01 438.694 447.148 438.627 447.309C438.56 447.469 438.543 447.646 438.577 447.817C438.611 447.988 438.695 448.145 438.818 448.268C438.941 448.391 439.098 448.474 439.268 448.508C439.439 448.542 439.616 448.525 439.777 448.458C439.938 448.392 440.075 448.279 440.172 448.134C440.268 447.99 440.32 447.819 440.32 447.645C440.32 447.412 440.227 447.188 440.062 447.023C439.897 446.858 439.673 446.765 439.44 446.765Z" fill="#274B5B"/>
<path opacity="0.2" d="M439.44 451.465C438.685 451.465 437.946 451.241 437.318 450.822C436.69 450.402 436.2 449.805 435.911 449.107C435.622 448.409 435.546 447.641 435.693 446.9C435.841 446.159 436.205 445.478 436.739 444.944C437.273 444.41 437.954 444.046 438.695 443.899C439.436 443.751 440.204 443.827 440.902 444.116C441.6 444.405 442.197 444.895 442.616 445.523C443.036 446.151 443.26 446.89 443.26 447.645C443.26 448.658 442.858 449.63 442.141 450.346C441.425 451.063 440.453 451.465 439.44 451.465V451.465ZM439.44 446.175C439.149 446.175 438.865 446.262 438.623 446.423C438.382 446.585 438.193 446.814 438.082 447.083C437.971 447.351 437.942 447.647 437.998 447.932C438.055 448.217 438.195 448.479 438.401 448.685C438.606 448.89 438.868 449.03 439.153 449.087C439.438 449.144 439.734 449.115 440.003 449.003C440.271 448.892 440.501 448.704 440.662 448.462C440.824 448.22 440.91 447.936 440.91 447.645C440.91 447.255 440.755 446.882 440.479 446.606C440.204 446.33 439.83 446.175 439.44 446.175V446.175Z" fill="#274B5B"/>
<path d="M458.24 406.805C457.833 406.805 457.434 406.685 457.096 406.458C456.757 406.232 456.493 405.91 456.337 405.534C456.181 405.157 456.14 404.743 456.22 404.343C456.299 403.944 456.495 403.577 456.783 403.289C457.071 403.001 457.439 402.804 457.838 402.725C458.238 402.645 458.652 402.686 459.028 402.842C459.405 402.998 459.726 403.262 459.953 403.601C460.179 403.94 460.3 404.338 460.3 404.745C460.3 405.292 460.083 405.816 459.697 406.202C459.31 406.588 458.786 406.805 458.24 406.805V406.805ZM458.24 403.865C458.066 403.865 457.896 403.917 457.751 404.014C457.606 404.11 457.494 404.248 457.427 404.409C457.36 404.569 457.343 404.746 457.377 404.917C457.411 405.088 457.495 405.245 457.618 405.368C457.741 405.491 457.898 405.574 458.068 405.608C458.239 405.642 458.416 405.625 458.577 405.558C458.738 405.492 458.875 405.379 458.972 405.234C459.068 405.09 459.12 404.919 459.12 404.745C459.117 404.514 459.024 404.292 458.859 404.13C458.694 403.967 458.472 403.875 458.24 403.875V403.865Z" fill="#274B5B"/>
<path opacity="0.2" d="M458.24 408.575C457.485 408.575 456.746 408.351 456.118 407.932C455.49 407.512 455 406.915 454.711 406.217C454.422 405.519 454.346 404.751 454.493 404.01C454.641 403.269 455.005 402.588 455.539 402.054C456.073 401.52 456.754 401.156 457.495 401.009C458.236 400.861 459.004 400.937 459.702 401.226C460.4 401.515 460.996 402.005 461.416 402.633C461.836 403.261 462.06 404 462.06 404.755C462.06 405.768 461.658 406.74 460.941 407.456C460.225 408.173 459.253 408.575 458.24 408.575V408.575ZM458.24 403.285C457.949 403.285 457.665 403.372 457.423 403.533C457.182 403.695 456.993 403.924 456.882 404.193C456.771 404.461 456.742 404.757 456.798 405.042C456.855 405.327 456.995 405.589 457.201 405.795C457.406 406 457.668 406.14 457.953 406.197C458.238 406.254 458.534 406.225 458.803 406.113C459.071 406.002 459.301 405.814 459.462 405.572C459.624 405.33 459.71 405.046 459.71 404.755C459.713 404.561 459.677 404.367 459.604 404.187C459.531 404.006 459.423 403.842 459.287 403.703C459.15 403.564 458.987 403.454 458.807 403.379C458.628 403.304 458.435 403.265 458.24 403.265V403.285Z" fill="#274B5B"/>
<path d="M458.24 492.595C457.833 492.595 457.434 492.474 457.096 492.248C456.757 492.022 456.493 491.7 456.337 491.324C456.181 490.947 456.14 490.533 456.22 490.133C456.299 489.734 456.495 489.367 456.783 489.079C457.071 488.791 457.439 488.594 457.838 488.515C458.238 488.435 458.652 488.476 459.028 488.632C459.405 488.788 459.726 489.052 459.953 489.391C460.179 489.73 460.3 490.128 460.3 490.535C460.3 491.082 460.083 491.606 459.697 491.992C459.31 492.378 458.786 492.595 458.24 492.595V492.595ZM458.24 489.655C458.066 489.655 457.896 489.707 457.751 489.804C457.606 489.9 457.494 490.038 457.427 490.199C457.36 490.359 457.343 490.536 457.377 490.707C457.411 490.878 457.495 491.034 457.618 491.158C457.741 491.281 457.898 491.364 458.068 491.398C458.239 491.432 458.416 491.415 458.577 491.348C458.738 491.282 458.875 491.169 458.972 491.024C459.068 490.88 459.12 490.709 459.12 490.535C459.12 490.302 459.027 490.078 458.862 489.913C458.697 489.748 458.473 489.655 458.24 489.655V489.655Z" fill="#274B5B"/>
<path opacity="0.2" d="M458.24 494.355C457.485 494.355 456.746 494.131 456.118 493.712C455.49 493.292 455 492.695 454.711 491.997C454.422 491.299 454.346 490.531 454.493 489.79C454.641 489.049 455.005 488.368 455.539 487.834C456.073 487.3 456.754 486.936 457.495 486.789C458.236 486.641 459.004 486.717 459.702 487.006C460.4 487.295 460.996 487.785 461.416 488.413C461.836 489.041 462.06 489.78 462.06 490.535C462.06 491.548 461.658 492.52 460.941 493.236C460.225 493.953 459.253 494.355 458.24 494.355V494.355ZM458.24 489.065C457.949 489.065 457.665 489.152 457.423 489.313C457.182 489.475 456.993 489.704 456.882 489.973C456.771 490.241 456.742 490.537 456.798 490.822C456.855 491.107 456.995 491.369 457.201 491.575C457.406 491.78 457.668 491.92 457.953 491.977C458.238 492.034 458.534 492.005 458.803 491.893C459.071 491.782 459.301 491.594 459.462 491.352C459.624 491.11 459.71 490.826 459.71 490.535C459.71 490.342 459.672 490.151 459.598 489.973C459.524 489.794 459.416 489.632 459.279 489.496C459.143 489.359 458.981 489.251 458.803 489.177C458.624 489.103 458.433 489.065 458.24 489.065V489.065Z" fill="#274B5B"/>
<path d="M458.24 449.705C457.833 449.705 457.434 449.585 457.096 449.358C456.757 449.132 456.493 448.81 456.337 448.434C456.181 448.057 456.14 447.643 456.22 447.243C456.299 446.844 456.495 446.477 456.783 446.189C457.071 445.901 457.439 445.704 457.838 445.625C458.238 445.545 458.652 445.586 459.028 445.742C459.405 445.898 459.726 446.162 459.953 446.501C460.179 446.84 460.3 447.238 460.3 447.645C460.3 448.192 460.083 448.716 459.697 449.102C459.31 449.488 458.786 449.705 458.24 449.705V449.705ZM458.24 446.765C458.066 446.765 457.896 446.817 457.751 446.914C457.606 447.01 457.494 447.148 457.427 447.309C457.36 447.469 457.343 447.646 457.377 447.817C457.411 447.988 457.495 448.145 457.618 448.268C457.741 448.391 457.898 448.474 458.068 448.508C458.239 448.542 458.416 448.525 458.577 448.458C458.738 448.392 458.875 448.279 458.972 448.134C459.068 447.99 459.12 447.819 459.12 447.645C459.12 447.412 459.027 447.188 458.862 447.023C458.697 446.858 458.473 446.765 458.24 446.765Z" fill="#274B5B"/>
<path opacity="0.2" d="M458.24 451.465C457.485 451.465 456.746 451.241 456.118 450.822C455.49 450.402 455 449.805 454.711 449.107C454.422 448.409 454.346 447.641 454.493 446.9C454.641 446.159 455.005 445.478 455.539 444.944C456.073 444.41 456.754 444.046 457.495 443.899C458.236 443.751 459.004 443.827 459.702 444.116C460.4 444.405 460.996 444.895 461.416 445.523C461.836 446.151 462.06 446.89 462.06 447.645C462.06 448.658 461.658 449.63 460.941 450.346C460.225 451.063 459.253 451.465 458.24 451.465V451.465ZM458.24 446.175C457.949 446.175 457.665 446.262 457.423 446.423C457.182 446.585 456.993 446.814 456.882 447.083C456.771 447.351 456.742 447.647 456.798 447.932C456.855 448.217 456.995 448.479 457.201 448.685C457.406 448.89 457.668 449.03 457.953 449.087C458.238 449.144 458.534 449.115 458.803 449.003C459.071 448.892 459.301 448.704 459.462 448.462C459.624 448.22 459.71 447.936 459.71 447.645C459.71 447.452 459.672 447.261 459.598 447.083C459.524 446.904 459.416 446.742 459.279 446.606C459.143 446.469 458.981 446.361 458.803 446.287C458.624 446.213 458.433 446.175 458.24 446.175V446.175Z" fill="#274B5B"/>
<path d="M450.31 355.105H447.96V514.335H450.31V355.105Z" fill="#274B5B"/>
<path opacity="0.2" d="M448.54 360.975H446.19V512.565H448.54V360.975Z" fill="#274B5B"/>
<path opacity="0.8" d="M453.24 360.975H450.89V511.975H453.24V360.975Z" fill="white"/>
<path d="M486.15 549.875H411.53C403.351 549.867 395.508 546.615 389.725 540.831C383.941 535.047 380.688 527.205 380.68 519.025V514.615H517V519.025C516.992 527.205 513.739 535.047 507.956 540.831C502.172 546.615 494.33 549.867 486.15 549.875V549.875ZM389.94 523.435C390.962 528.409 393.667 532.879 397.6 536.09C401.533 539.302 406.452 541.059 411.53 541.065H486.15C491.228 541.059 496.148 539.302 500.08 536.09C504.013 532.879 506.719 528.409 507.74 523.435H389.94Z" fill="#274B5B"/>
<path opacity="0.15" d="M511.52 157.185C515.62 156.198 519.945 156.879 523.543 159.078C527.141 161.278 529.719 164.816 530.71 168.915L534.49 184.575C535.478 188.675 534.797 193 532.597 196.598C530.398 200.197 526.859 202.775 522.76 203.765C518.66 204.753 514.335 204.072 510.737 201.872C507.139 199.673 504.561 196.135 503.57 192.035L499.79 176.375C498.803 172.275 499.483 167.951 501.683 164.352C503.882 160.754 507.421 158.176 511.52 157.185V157.185Z" fill="white"/>
<path opacity="0.15" d="M497.4 150.265C500.893 147.901 505.183 147.02 509.325 147.817C513.467 148.614 517.124 151.023 519.49 154.515V154.515C521.855 158.008 522.736 162.298 521.939 166.44C521.142 170.583 518.732 174.239 515.24 176.605V176.605C511.747 178.97 507.457 179.851 503.315 179.054C499.173 178.257 495.516 175.847 493.15 172.355V172.355C490.785 168.862 489.905 164.573 490.701 160.43C491.498 156.288 493.908 152.632 497.4 150.265V150.265Z" fill="white"/>
<g opacity="0.4">
<path opacity="0.4" d="M510.59 271.045C514.37 264.925 517.05 259.735 517.46 259.915C517.87 260.095 515.7 265.615 511.86 271.825C508.02 278.035 504.07 282.455 503.76 282.205C503.45 281.955 506.84 277.185 510.59 271.045Z" fill="#426270"/>
<path opacity="0.4" d="M516.582 274.932C519.014 270.794 520.696 267.27 520.338 267.06C519.981 266.85 517.721 270.034 515.289 274.172C512.858 278.31 511.176 281.834 511.533 282.044C511.89 282.254 514.151 279.07 516.582 274.932Z" fill="#426270"/>
<path opacity="0.4" d="M512.05 275.115C517.57 277.345 522.18 278.885 522.05 279.295C521.92 279.705 517.05 278.785 511.47 276.505C505.89 274.225 501.7 271.505 501.9 271.185C502.1 270.865 506.55 272.895 512.05 275.115Z" fill="#426270"/>
<path opacity="0.4" d="M517.3 273.615C522.3 275.965 526.53 277.445 526.41 277.855C526.29 278.265 521.79 277.365 516.67 274.975C511.55 272.585 507.96 269.685 508.19 269.385C508.42 269.085 512.3 271.265 517.3 273.615Z" fill="#426270"/>
</g>
<g opacity="0.4">
<path opacity="0.4" d="M463 90.0753C466.78 83.9553 469.46 78.7653 469.87 78.9453C470.28 79.1253 468.11 84.6453 464.27 90.8553C460.43 97.0653 456.48 101.485 456.17 101.235C455.86 100.985 459.24 96.2153 463 90.0753Z" fill="#426270"/>
<path opacity="0.4" d="M468.985 93.9714C471.417 89.8336 473.098 86.3091 472.741 86.0993C472.384 85.8894 470.123 89.0737 467.692 93.2115C465.26 97.3493 463.579 100.874 463.936 101.084C464.293 101.293 466.554 98.1092 468.985 93.9714Z" fill="#426270"/>
<path opacity="0.4" d="M464.48 94.1453C470 96.3753 474.61 97.9153 474.48 98.3253C474.35 98.7353 469.48 97.8153 463.9 95.5353C458.32 93.2553 454.13 90.5353 454.33 90.2153C454.53 89.8953 458.96 91.9253 464.48 94.1453Z" fill="#426270"/>
<path opacity="0.4" d="M469.71 92.6453C474.71 94.9953 478.94 96.4753 478.82 96.8853C478.7 97.2953 474.2 96.3953 469.08 94.0053C463.96 91.6153 460.37 88.7153 460.6 88.4153C460.83 88.1153 464.71 90.3353 469.71 92.6453Z" fill="#426270"/>
</g>
<path d="M518.17 118.025H371.28V120.965H518.17V118.025Z" fill="#8BBACC"/>
<path d="M531.22 128.785H367.12L369.12 119.975H530.22L531.22 128.785Z" fill="#274B5B"/>
<path d="M509.4 519.915H387.29C379.66 519.915 372.82 516.525 369.44 511.065C356.51 490.065 326.44 426.165 326.44 285.765C326.44 148.165 398.93 47.4153 430.1 10.4853C432.343 7.82709 435.138 5.69054 438.292 4.22493C441.446 2.75933 444.882 2 448.36 2C451.838 2 455.274 2.75933 458.428 4.22493C461.582 5.69054 464.377 7.82709 466.62 10.4853C497.78 47.4153 570.28 148.165 570.25 285.765C570.25 426.135 540.18 490.085 527.25 511.065C523.92 516.515 517.05 519.915 509.4 519.915ZM448.33 10.8153C444.778 10.813 441.341 12.0709 438.63 14.3653C437.98 14.9136 437.378 15.5157 436.83 16.1653C406.29 52.3553 335.25 151.065 335.25 285.765C335.25 345.975 340.83 398.425 351.83 441.665C360.9 477.305 371.45 497.545 376.94 506.435C378.66 509.225 382.83 511.095 387.29 511.095H509.4C513.89 511.095 518.04 509.225 519.74 506.445C525.23 497.535 535.74 477.285 544.86 441.655C555.86 398.415 561.44 345.965 561.44 285.755C561.44 151.065 490.44 52.3553 459.88 16.1653C458.606 14.649 457.044 13.3999 455.285 12.4902C453.526 11.5806 451.604 11.0283 449.63 10.8653C449.197 10.832 448.763 10.8153 448.33 10.8153Z" fill="#274B5B"/>
<path d="M422.91 514.445H414.1V430.185C414.048 400.453 425.43 371.839 445.89 350.265L449.12 346.855L452.32 350.285C472.415 371.793 483.577 400.14 483.54 429.575V514.315H474.73V429.595C474.758 404.043 465.65 379.322 449.05 359.895C432.137 379.399 422.846 404.36 422.89 430.175L422.91 514.445Z" fill="#274B5B"/>
<path d="M594.55 466.735C594.143 466.735 593.744 466.615 593.406 466.388C593.067 466.162 592.803 465.84 592.647 465.464C592.491 465.087 592.45 464.673 592.53 464.273C592.609 463.874 592.805 463.507 593.093 463.219C593.381 462.931 593.749 462.734 594.148 462.655C594.548 462.575 594.962 462.616 595.338 462.772C595.715 462.928 596.036 463.192 596.263 463.531C596.489 463.87 596.61 464.268 596.61 464.675C596.61 465.222 596.393 465.746 596.007 466.132C595.62 466.518 595.096 466.735 594.55 466.735V466.735ZM594.55 463.795C594.376 463.795 594.206 463.847 594.061 463.944C593.916 464.04 593.804 464.178 593.737 464.339C593.67 464.499 593.653 464.676 593.687 464.847C593.721 465.018 593.805 465.175 593.928 465.298C594.051 465.421 594.208 465.504 594.378 465.538C594.549 465.572 594.726 465.555 594.887 465.488C595.048 465.422 595.185 465.309 595.282 465.164C595.378 465.02 595.43 464.849 595.43 464.675C595.427 464.444 595.334 464.222 595.169 464.06C595.004 463.897 594.782 463.805 594.55 463.805V463.795Z" fill="#274B5B"/>
<path opacity="0.2" d="M594.55 468.505C593.794 468.505 593.056 468.281 592.428 467.862C591.8 467.442 591.31 466.845 591.021 466.147C590.732 465.449 590.656 464.681 590.803 463.94C590.951 463.199 591.315 462.518 591.849 461.984C592.383 461.45 593.064 461.086 593.805 460.939C594.546 460.791 595.314 460.867 596.012 461.156C596.71 461.445 597.306 461.935 597.726 462.563C598.146 463.191 598.37 463.93 598.37 464.685C598.37 465.698 597.968 466.67 597.251 467.386C596.535 468.103 595.563 468.505 594.55 468.505V468.505ZM594.55 463.215C594.259 463.215 593.975 463.302 593.733 463.463C593.492 463.625 593.303 463.854 593.192 464.123C593.081 464.391 593.052 464.687 593.108 464.972C593.165 465.257 593.305 465.519 593.511 465.725C593.716 465.93 593.978 466.07 594.263 466.127C594.548 466.184 594.844 466.155 595.113 466.043C595.381 465.932 595.611 465.744 595.772 465.502C595.934 465.26 596.02 464.976 596.02 464.685C596.02 464.295 595.865 463.922 595.589 463.646C595.314 463.37 594.94 463.215 594.55 463.215V463.215Z" fill="#274B5B"/>
<defs>
<linearGradient id="paint0_linear" x1="97.05" y1="272.565" x2="852.94" y2="272.565" gradientUnits="userSpaceOnUse">
<stop stop-color="#C3F6EE"/>
<stop offset="0.38" stop-color="#C6EBFD"/>
</linearGradient>
</defs>
</svg>
