<svg width="974" height="588" viewBox="0 0 974 588" fill="none" xmlns="http://www.w3.org/2000/svg">
<g clip-path="url(#clip0)">
<path d="M561.877 471.613C559.605 471.613 557.383 472.287 555.494 473.549C553.604 474.812 552.132 476.606 551.262 478.706C550.392 480.806 550.165 483.116 550.608 485.345C551.052 487.573 552.146 489.621 553.753 491.228C555.36 492.835 557.407 493.929 559.636 494.372C561.865 494.816 564.175 494.588 566.274 493.718C568.374 492.849 570.169 491.376 571.431 489.487C572.694 487.597 573.367 485.376 573.367 483.103C573.367 480.056 572.157 477.133 570.002 474.978C567.847 472.824 564.925 471.613 561.877 471.613ZM561.877 490.174C560.479 490.174 559.112 489.759 557.949 488.982C556.786 488.205 555.88 487.101 555.345 485.809C554.809 484.517 554.669 483.095 554.942 481.724C555.215 480.352 555.889 479.092 556.878 478.103C557.866 477.114 559.126 476.441 560.498 476.168C561.87 475.895 563.291 476.035 564.583 476.57C565.875 477.105 566.98 478.012 567.757 479.175C568.534 480.337 568.948 481.705 568.948 483.103V483.103C568.948 484.978 568.203 486.777 566.877 488.103C565.551 489.429 563.753 490.174 561.877 490.174Z" fill="#E4E4E4"/>
<path d="M517.684 462.774H561.877V506.513C561.877 508.04 561.271 509.504 560.191 510.584C559.112 511.663 557.647 512.27 556.12 512.27H523.441C521.914 512.27 520.45 511.663 519.37 510.584C518.291 509.504 517.684 508.04 517.684 506.513V462.774Z" fill="#E4E4E4"/>
<path d="M932.22 160H345V162H932.22V160Z" fill="black"/>
<path d="M842 161.362C841.735 161.362 841.48 161.257 841.293 161.069C841.105 160.882 841 160.628 841 160.362V111C841.002 109.674 841.529 108.404 842.466 107.466C843.404 106.529 844.674 106.002 846 106H894.675C894.94 106 895.194 106.105 895.382 106.293C895.569 106.48 895.675 106.735 895.675 107C895.675 107.265 895.569 107.52 895.382 107.707C895.194 107.895 894.94 108 894.675 108H846C845.205 108.001 844.442 108.317 843.88 108.88C843.317 109.442 843.001 110.205 843 111V160.362C843 160.628 842.895 160.882 842.707 161.069C842.52 161.257 842.265 161.362 842 161.362Z" fill="black"/>
<path d="M753.921 213H500.079C498.732 212.998 497.442 212.465 496.489 211.518C495.537 210.57 495.002 209.286 495 207.946V160.333H497.032V207.946C497.032 208.75 497.354 209.52 497.925 210.089C498.496 210.658 499.271 210.977 500.079 210.978H753.921C754.729 210.977 755.504 210.658 756.075 210.089C756.646 209.52 756.967 208.75 756.968 207.946V160H759V207.946C758.998 209.286 758.463 210.57 757.511 211.518C756.559 212.465 755.268 212.998 753.921 213Z" fill="black"/>
<path d="M420 161.362C419.735 161.362 419.48 161.257 419.293 161.069C419.105 160.882 419 160.628 419 160.362V111C419.002 109.674 419.529 108.404 420.466 107.466C421.404 106.529 422.674 106.002 424 106H472.675C472.94 106 473.194 106.105 473.382 106.293C473.569 106.48 473.675 106.735 473.675 107C473.675 107.265 473.569 107.52 473.382 107.707C473.194 107.895 472.94 108 472.675 108H424C423.205 108.001 422.442 108.317 421.88 108.88C421.317 109.442 421.001 110.205 421 111V160.362C421 160.628 420.895 160.882 420.707 161.069C420.52 161.257 420.265 161.362 420 161.362Z" fill="black"/>
<rect x="399" y="160" width="2" height="80" fill="black"/>
<path d="M665.133 513.271H0.896408C0.650074 513.244 0.422388 513.127 0.256989 512.942C0.0915894 512.758 0.00012207 512.519 0.00012207 512.271C0.00012207 512.023 0.0915894 511.784 0.256989 511.6C0.422388 511.415 0.650074 511.298 0.896408 511.271H665.133C665.38 511.298 665.607 511.415 665.773 511.6C665.938 511.784 666.03 512.023 666.03 512.271C666.03 512.519 665.938 512.758 665.773 512.942C665.607 513.127 665.38 513.244 665.133 513.271Z" fill="#CACACA"/>
<path d="M89.41 494.381L85.302 514.694L161.695 540.208L167.759 510.228L89.41 494.381Z" fill="#FFB6B6"/>
<path d="M97.0903 490.542L88.9991 530.545L88.9988 530.546C87.6307 537.307 83.633 543.248 77.8852 547.061C72.1373 550.875 65.1101 552.249 58.349 550.882L57.5206 550.714L70.7685 485.218L97.0903 490.542Z" fill="#4C566A"/>
<path d="M175.979 214.584C204.627 214.584 227.85 191.361 227.85 162.713C227.85 134.065 204.627 110.842 175.979 110.842C147.332 110.842 124.108 134.065 124.108 162.713C124.108 191.361 147.332 214.584 175.979 214.584Z" fill="#FEB8B8"/>
<path d="M224.427 117.963C216.672 105.37 204.533 96.0904 190.346 91.911L183.978 96.558V90.524C180.571 90.0025 177.123 89.8016 173.678 89.924L168.184 94.895V90.337C160.05 91.3478 152.213 94.0331 145.168 98.2235C138.124 102.414 132.023 108.019 127.252 114.684C115.321 131.884 113.307 155.813 125.042 173.151C128.263 163.251 132.173 153.962 135.395 144.063C137.927 144.408 140.493 144.421 143.028 144.1L146.947 134.955L148.042 143.713C160.19 142.655 178.208 140.331 189.724 138.202L188.604 131.483L195.304 137.066C198.832 136.254 200.927 135.517 200.754 134.954C209.319 148.762 219.801 157.581 228.365 171.389C231.618 151.919 235.362 135.73 224.427 117.963Z" fill="black"/>
<path d="M192.856 502.146C266.62 502.146 326.416 485.42 326.416 464.787C326.416 444.154 266.62 427.428 192.856 427.428C119.093 427.428 59.2964 444.154 59.2964 464.787C59.2964 485.42 119.093 502.146 192.856 502.146Z" fill="#4C566A"/>
<path d="M192.856 502.146C266.62 502.146 326.416 485.42 326.416 464.787C326.416 444.154 266.62 427.428 192.856 427.428C119.093 427.428 59.2964 444.154 59.2964 464.787C59.2964 485.42 119.093 502.146 192.856 502.146Z" fill="black" fill-opacity="0.1"/>
<path d="M287.539 296.101C285.756 285.37 283.916 274.433 278.928 264.766C275.651 258.434 270.447 252.4 263.433 251.148C262.052 251.025 260.694 250.711 259.399 250.214C257.343 249.224 229.725 233.458 225.336 230.712C221.567 228.355 215.617 223.99 212.617 223.99C209.599 223.923 198.026 226.617 152.857 223.086C145.259 226.136 137.901 229.753 130.846 233.908C130.701 233.812 83.9645 258.909 82.2086 258.843C78.8834 258.703 75.7926 260.832 73.8864 263.513C71.9806 266.194 71.0866 269.513 70.1505 272.722C80.3585 295.455 89.6984 318.217 99.9073 340.95C100.385 341.806 100.639 342.769 100.646 343.75C100.44 344.768 100.006 345.725 99.3756 346.55C94.3693 354.592 94.5285 364.707 95.0753 374.159C95.6227 383.611 96.2995 393.595 92.0753 402.067C90.9264 404.393 89.4323 406.522 88.3395 408.848C85.7804 414.116 84.8556 430.965 86.3502 436.625L273.617 441.99C269.59 430.922 287.539 296.101 287.539 296.101Z" fill="#EBCB8B"/>
<path d="M53.9633 341.958C53.5897 344.661 53.552 347.4 53.8513 350.112L56.5353 388.658C56.7873 392.291 57.0353 395.915 57.3763 399.539C58.0203 406.572 58.9823 413.549 60.1763 420.516C60.2033 421.505 60.6216 422.443 61.3395 423.124C62.0573 423.806 63.0161 424.174 64.0053 424.149C75.8203 426.649 88.0273 426.549 100.085 425.868C118.485 424.841 165.559 422.898 168.435 419.162C171.311 415.426 169.635 409.383 165.885 406.362C162.135 403.341 100.014 395.976 100.014 395.976C100.621 391.166 102.452 386.636 104.189 382.069C107.309 373.969 110.223 365.603 110.279 356.926C110.335 348.249 107.066 339.126 99.9583 334.155C94.1113 330.074 86.5833 329.317 79.4583 329.485C74.2743 329.634 65.3173 328.392 60.5823 330.419C56.8353 332.069 54.6633 338.289 53.9633 341.958Z" fill="#FBBEBE"/>
<path d="M287.871 429.091C290.981 427.905 294.409 428.334 297.743 428.783C308.475 430.249 319.365 431.753 329.312 436.04C333.982 438.04 338.428 440.71 341.585 444.64C344.385 448.18 346.021 452.514 347.572 456.782L351.159 466.608C352.684 470.299 353.736 474.169 354.288 478.124C355.409 489.883 347.367 500.969 337.252 507.078C327.137 513.187 315.229 515.362 303.628 517.641C292.027 519.92 280.381 522.441 268.828 525.113C263.44 526.511 257.972 527.587 252.455 528.335C240.089 529.735 227.163 527.672 215.413 531.763C210.743 533.398 206.157 535.826 201.313 536.956C198.093 537.633 194.838 538.129 191.562 538.441L169.324 540.981C164.802 541.586 160.25 541.935 155.688 542.027C145.975 542.027 136.42 539.727 126.988 537.427C125.986 537.251 125.032 536.866 124.188 536.297C122.694 535.12 122.367 533.037 122.152 531.151C121.2 522.801 120.366 514.442 119.652 506.074C119.428 503.356 119.26 500.414 120.745 498.126C122.613 495.326 126.256 494.446 129.581 493.904C143.681 491.597 157.964 490.606 172.246 490.943C177.672 485.517 186.62 485.489 193.728 482.537C196.343 481.336 198.874 479.96 201.303 478.418C214.017 471 228.226 466.511 242.893 465.277C245.766 465.189 248.62 464.782 251.402 464.063C256.902 462.354 261.919 457.702 267.569 458.842C268.269 456.909 268.755 454.321 270.369 452.995C271.169 452.313 272.162 451.856 272.9 451.127C274.46 449.549 274.6 447.064 274.366 444.86C274.132 442.656 273.609 440.396 274.179 438.247C274.416 437.434 274.765 436.657 275.216 435.94C278.008 431.108 282.239 428.624 287.871 429.091Z" fill="#4C566A"/>
<path d="M69.6104 273.414C68.7007 274.367 67.9953 275.495 67.5374 276.73C59.9878 293.745 55.5285 311.968 54.3684 330.546C54.3887 331.452 54.1799 332.348 53.7614 333.152C53.3486 333.687 52.8891 334.184 52.3884 334.637C51.9518 335.155 51.6214 335.753 51.4161 336.398C51.2109 337.043 51.1347 337.723 51.1919 338.397C51.2492 339.072 51.4388 339.729 51.7499 340.33C52.0609 340.932 52.4874 341.466 53.005 341.903C53.0899 341.974 53.177 342.043 53.2664 342.109C54.8074 339.209 58.4964 338.261 61.7754 338.009C77.4754 336.767 92.8114 344.071 108.558 343.52C107.447 339.681 105.849 335.992 104.943 332.107C100.936 314.856 110.93 296.074 104.803 279.458C103.579 276.133 101.534 272.864 98.3124 271.407C96.9782 270.869 95.5821 270.499 94.1564 270.307C90.1774 269.588 82.2564 266.515 78.4094 267.748C76.9894 268.206 76.4294 269.541 75.2524 270.348C73.4644 271.49 71.0924 271.91 69.6104 273.414Z" fill="#EBCB8B"/>
<path d="M287.651 330.419C282.916 328.392 273.959 329.634 268.775 329.485C261.65 329.317 254.122 330.074 248.275 334.155C241.167 339.126 237.898 348.249 237.954 356.926C238.01 365.603 240.924 373.969 244.044 382.069C245.781 386.636 247.612 391.166 248.219 395.976C248.219 395.976 186.098 403.341 182.348 406.362C178.598 409.383 176.922 415.426 179.798 419.162C182.674 422.898 272.413 426.649 284.228 424.149C285.218 424.174 286.176 423.806 286.894 423.124C287.612 422.443 288.03 421.505 288.057 420.516C289.251 413.549 290.213 406.572 290.857 399.539C291.198 395.915 291.446 392.291 291.698 388.658L294.382 350.112C294.682 347.4 294.644 344.661 294.27 341.958C293.57 338.289 291.398 332.069 287.651 330.419Z" fill="#FBBEBE"/>
<path d="M272.981 270.348C271.804 269.541 271.244 268.206 269.824 267.748C265.977 266.515 258.056 269.588 254.077 270.307C252.652 270.499 251.255 270.869 249.921 271.407C246.699 272.864 244.654 276.133 243.43 279.458C237.303 296.074 247.297 314.856 243.29 332.107C242.384 335.992 240.786 339.681 239.675 343.52C255.422 344.071 270.758 336.767 286.458 338.009C289.737 338.261 293.426 339.209 294.967 342.109C295.057 342.043 295.144 341.974 295.229 341.903C295.746 341.466 296.173 340.932 296.484 340.33C296.795 339.729 296.984 339.072 297.042 338.397C297.099 337.723 297.023 337.043 296.818 336.398C296.612 335.753 296.282 335.155 295.845 334.637C295.345 334.184 294.885 333.687 294.472 333.152C294.054 332.348 293.845 331.452 293.865 330.546C292.705 311.968 288.246 293.745 280.696 276.73C280.238 275.495 279.533 274.367 278.623 273.414C277.141 271.91 274.769 271.49 272.981 270.348Z" fill="#EBCB8B"/>
<path d="M299.243 523.378L296.513 543.921L215.975 543.166L220.005 512.846L299.243 523.378Z" fill="#FFB6B6"/>
<path d="M319.853 520.785L311.049 587.025L310.211 586.914C303.374 586.005 297.177 582.417 292.984 576.939C288.792 571.462 286.947 564.543 287.855 557.705L287.855 557.704L293.232 517.247L319.853 520.785Z" fill="#4C566A"/>
<path d="M109.769 439.487C109.769 440.421 108.303 439.487 108.169 438.487C107.142 430.931 101.145 424.701 94.1594 421.675C87.1734 418.649 79.2154 418.49 71.6504 419.209C60.2094 420.292 47.3664 424.673 43.1824 435.367C42.1924 437.867 32.9184 460.127 33.8234 465.133C36.2614 478.489 45.3954 489.912 56.4634 497.823C67.5314 505.734 80.4634 510.46 93.3634 514.723C127.47 525.971 162.462 534.329 197.97 539.707C203.723 540.576 209.533 541.379 215.043 543.228C219.974 544.881 224.588 547.356 229.408 549.299C240.616 553.799 252.674 555.407 264.619 556.986C266.655 557.248 268.99 557.434 270.494 556.052C272.437 554.252 271.794 551.111 271.241 548.524C269.214 538.687 270.915 528.448 276.014 519.795C278.014 516.433 280.614 512.986 280.236 509.095C279.788 504.556 275.267 501.343 270.765 500.614C266.263 499.885 261.687 500.96 257.165 501.548C255.616 501.904 253.992 501.743 252.542 501.09C251.871 500.636 251.261 500.097 250.73 499.484C247.616 496.48 243.631 494.539 239.345 493.94C235.06 493.341 230.695 494.115 226.876 496.15C225.204 497.084 222.676 495.001 220.936 494.217L201.294 485.325C178.729 475.117 156.052 464.861 132.179 458.398C130.275 458.023 128.464 457.271 126.855 456.184C125.669 455.25 124.819 453.984 123.726 452.943C121.344 450.692 118.026 449.795 115.171 448.198C112.316 446.601 109.115 442.69 109.769 439.487Z" fill="#4C566A"/>
<path d="M160.617 425.99C168.349 425.99 174.617 419.722 174.617 411.99C174.617 404.258 168.349 397.99 160.617 397.99C152.885 397.99 146.617 404.258 146.617 411.99C146.617 419.722 152.885 425.99 160.617 425.99Z" fill="#FBBEBE"/>
<path d="M191.617 425.99C199.349 425.99 205.617 419.722 205.617 411.99C205.617 404.258 199.349 397.99 191.617 397.99C183.885 397.99 177.617 404.258 177.617 411.99C177.617 419.722 183.885 425.99 191.617 425.99Z" fill="#FBBEBE"/>
<path d="M278.035 443.537H85.6965C83.451 443.534 81.2981 442.641 79.7102 441.053C78.1223 439.466 77.229 437.313 77.2263 435.067V318.381C77.229 316.135 78.1223 313.982 79.7102 312.395C81.2981 310.807 83.451 309.914 85.6965 309.911H278.035C280.281 309.914 282.434 310.807 284.022 312.395C285.61 313.982 286.503 316.135 286.506 318.381V435.067C286.503 437.313 285.61 439.466 284.022 441.053C282.434 442.641 280.281 443.534 278.035 443.537Z" fill="#D8DEE9"/>
<path d="M181.399 382.328C184.494 382.328 187.003 379.819 187.003 376.724C187.003 373.629 184.494 371.12 181.399 371.12C178.304 371.12 175.795 373.629 175.795 376.724C175.795 379.819 178.304 382.328 181.399 382.328Z" fill="#ECEFF4"/>
<path d="M680.446 0H648.539V21.9898H680.446V0Z" fill="#4C566A"/>
<path d="M788.906 0H757V21.9898H788.906V0Z" fill="#88C0D0"/>
<path d="M387.519 0H355.612V21.9898H387.519V0Z" fill="#EBCB8B"/>
<path d="M495.591 0H463.685V21.9898H495.591V0Z" fill="#D8DEE9"/>
<path d="M344.5 191C361.345 191 375 177.345 375 160.5C375 143.655 361.345 130 344.5 130C327.655 130 314 143.655 314 160.5C314 177.345 327.655 191 344.5 191Z" fill="#EBCB8B"/>
<path d="M333.084 140.457H334.852V142.204H336.47V140.457H338.238V145.745H336.47V143.975H334.852V145.745H333.086V140.457H333.084Z" fill="black"/>
<path d="M340.561 142.21H339.006V140.457H343.886V142.21H342.329V145.745H340.561V142.21Z" fill="black"/>
<path d="M344.661 140.457H346.504L347.638 142.315L348.77 140.457H350.613V145.745H348.853V143.124L347.638 145.004H347.607L346.389 143.125V145.745H344.661V140.457Z" fill="black"/>
<path d="M351.492 140.457H353.262V143.998H355.745V145.746H351.492V140.457Z" fill="black"/>
<path fill-rule="evenodd" clip-rule="evenodd" d="M333.029 176.521L329.686 148.165H359.097L355.752 176.518L344.375 179.672L333.029 176.521ZM339.788 160.999L339.471 157.437H352.78L353.09 153.96H335.673L336.61 164.478H348.664L348.26 168.987L344.381 170.036H344.378L340.506 168.991L340.257 166.218H336.764L337.251 171.678L344.375 173.655L351.51 171.678L352.379 161.934L352.464 161.001H339.788V160.999Z" fill="black"/>
<path d="M470 129C482.15 129 492 119.15 492 107C492 94.8497 482.15 85 470 85C457.85 85 448 94.8497 448 107C448 119.15 457.85 129 470 129Z" fill="#88C0D0"/>
<path d="M459.314 96.3143H480.686V117.686H459.314V96.3143ZM478.934 112.589C478.779 111.614 478.144 110.795 476.261 110.03C475.605 109.723 474.877 109.51 474.659 109.016C474.578 108.722 474.566 108.563 474.619 108.388C474.753 107.813 475.434 107.641 475.969 107.8C476.316 107.907 476.637 108.174 476.838 108.603C477.758 108.001 477.758 108.001 478.4 107.601C478.159 107.228 478.039 107.065 477.879 106.905C477.317 106.278 476.569 105.958 475.355 105.985L474.728 106.064C474.126 106.212 473.551 106.533 473.205 106.96C472.189 108.109 472.483 110.112 473.712 110.942C474.926 111.85 476.705 112.05 476.932 112.904C477.145 113.947 476.157 114.281 475.18 114.161C474.46 113.999 474.058 113.639 473.618 112.971L471.989 113.907C472.175 114.333 472.389 114.52 472.709 114.894C474.259 116.457 478.133 116.377 478.828 113.999C478.853 113.92 479.041 113.372 478.894 112.53L478.934 112.589ZM470.936 106.137H468.934C468.934 107.862 468.926 109.578 468.926 111.306C468.926 112.403 468.981 113.41 468.802 113.72C468.509 114.334 467.75 114.256 467.407 114.146C467.054 113.973 466.875 113.732 466.667 113.385C466.611 113.293 466.57 113.212 466.554 113.212L464.93 114.214C465.202 114.776 465.599 115.258 466.11 115.564C466.872 116.019 467.894 116.166 468.965 115.926C469.663 115.724 470.265 115.31 470.577 114.669C471.033 113.841 470.936 112.825 470.932 111.69C470.942 109.86 470.932 108.029 470.932 106.187L470.936 106.137Z" fill="black"/>
<path d="M399.5 270C416.345 270 430 256.345 430 239.5C430 222.655 416.345 209 399.5 209C382.655 209 369 222.655 369 239.5C369 256.345 382.655 270 399.5 270Z" fill="#D8DEE9"/>
<path fill-rule="evenodd" clip-rule="evenodd" d="M399.5 222.943C402.775 222.943 405.976 223.914 408.699 225.733C411.421 227.553 413.544 230.138 414.797 233.164C416.05 236.189 416.378 239.518 415.739 242.73C415.1 245.942 413.523 248.892 411.208 251.208C408.892 253.523 405.942 255.1 402.73 255.739C399.518 256.378 396.189 256.05 393.164 254.797C390.138 253.544 387.552 251.421 385.733 248.699C383.914 245.976 382.943 242.775 382.943 239.5C382.943 235.109 384.687 230.897 387.792 227.792C390.897 224.687 395.109 222.943 399.5 222.943Z" fill="black"/>
<path d="M409.886 230.029C409.136 227.089 404.26 226.127 399.645 227.761C396.755 228.732 394.085 230.264 391.788 232.268C389.246 234.645 388.841 236.715 389.008 237.579C389.599 240.631 393.777 242.625 395.496 244.104V244.112C394.989 244.362 391.281 246.241 390.41 248.157C389.495 250.182 390.556 251.634 391.259 251.829C392.316 252.084 393.425 252.001 394.432 251.593C395.439 251.184 396.293 250.471 396.875 249.553C397.355 248.809 397.655 247.963 397.752 247.083C397.849 246.203 397.74 245.312 397.433 244.481C398.26 244.271 399.121 244.222 399.967 244.336C402.872 244.675 403.442 246.488 403.333 247.248C403.282 247.518 403.173 247.774 403.014 247.998C402.855 248.223 402.65 248.411 402.412 248.549C402.208 248.675 402.146 248.718 402.163 248.812C402.188 248.948 402.282 248.944 402.455 248.914C402.892 248.777 403.277 248.51 403.559 248.15C403.841 247.789 404.007 247.352 404.035 246.895C404.105 245.121 402.401 243.127 399.383 243.178C398.506 243.153 397.632 243.273 396.794 243.533C396.752 243.485 396.71 243.438 396.666 243.391C394.8 241.401 391.352 239.992 391.497 237.316C391.55 236.342 391.888 233.781 398.12 230.673C403.229 228.127 407.319 228.828 408.026 230.381C409.036 232.599 405.84 236.721 400.535 237.316C399.948 237.435 399.343 237.42 398.763 237.273C398.183 237.126 397.643 236.851 397.184 236.467C396.905 236.159 396.864 236.146 396.76 236.203C396.591 236.296 396.698 236.568 396.76 236.729C396.963 237.095 397.237 237.417 397.566 237.676C397.896 237.935 398.273 238.125 398.677 238.236C400.763 238.689 402.939 238.474 404.895 237.621C408.113 236.38 410.623 232.921 409.886 230.029ZM396.21 245.015C396.445 245.825 396.433 246.686 396.176 247.489C396.148 247.573 396.118 247.655 396.084 247.737C396.051 247.819 396.016 247.898 395.977 247.974C395.778 248.381 395.52 248.757 395.212 249.089C394.25 250.138 392.906 250.535 392.33 250.201C391.707 249.84 392.019 248.361 393.134 247.181C393.991 246.334 394.979 245.63 396.06 245.098L396.21 245.015Z" fill="#D8DEE9"/>
<path d="M594 191C610.569 191 624 177.569 624 161C624 144.431 610.569 131 594 131C577.431 131 564 144.431 564 161C564 177.569 577.431 191 594 191Z" fill="#EBCB8B"/>
<path d="M590.598 179.169L580.286 173.261C578.259 172.1 577 169.932 577 167.604V154.896C577 152.547 578.198 150.409 580.205 149.175L590.343 142.945C591.322 142.342 592.448 142.016 593.6 142.001C594.752 141.985 595.886 142.282 596.881 142.86L608.163 149.391C609.902 150.398 611 152.268 611 154.271V167.662C611 169.839 609.799 171.854 607.893 172.922L596.696 179.198C594.668 180.279 592.635 180.265 590.598 179.169V179.169ZM591.492 178.066C592.855 178.809 594.287 178.891 595.813 178.086L607.398 171.593C608.738 170.841 609.571 169.424 609.571 167.893V154.037C609.571 152.675 608.836 151.403 607.653 150.718L595.942 143.939C594.344 143.133 592.782 143.157 591.299 144.01L580.792 150.466C579.312 151.376 578.429 152.953 578.429 154.684V167.833C578.429 169.529 579.346 171.107 580.822 171.953L591.492 178.066ZM592.054 145.29L581.575 151.729C580.539 152.367 579.92 153.471 579.92 154.684V167.833C579.92 168.999 580.551 170.085 581.566 170.667L592.235 176.779C593.111 177.281 594.201 177.286 595.081 176.793L606.667 170.299C607.095 170.059 607.452 169.709 607.7 169.286C607.948 168.863 608.079 168.383 608.08 167.893V154.037C608.08 153.201 607.629 152.421 606.903 152.001L595.249 145.254C594.124 144.693 593.079 144.704 592.054 145.29ZM586.173 171.17V150.83H590.448V158.239H597.54V150.83H601.827V171.17H597.54V162.276H590.448V171.17H586.173Z" fill="black"/>
<path d="M532 234C544.15 234 554 224.15 554 212C554 199.85 544.15 190 532 190C519.85 190 510 199.85 510 212C510 224.15 519.85 234 532 234Z" fill="#D8DEE9"/>
<path d="M543.292 202.711H520.708C519.655 202.711 518.8 203.596 518.8 204.686V220.29C518.8 221.38 519.655 222.267 520.708 222.267H543.292C544.343 222.267 545.2 221.38 545.2 220.29V204.686C545.2 203.596 544.345 202.711 543.292 202.711ZM533.65 218.193H530.35V212.489L527.875 215.748L525.4 212.489V218.193H522.1V206.785H525.4L527.875 210.859L530.35 206.785H533.65V218.193ZM538.6 218.193L534.475 212.489H536.953L536.95 206.785H540.25V212.489H542.725L538.6 218.193Z" fill="black"/>
<path d="M758 191C774.569 191 788 177.569 788 161C788 144.431 774.569 131 758 131C741.431 131 728 144.431 728 161C728 177.569 741.431 191 758 191Z" fill="#EBCB8B"/>
<path fill-rule="evenodd" clip-rule="evenodd" d="M757.943 143C748.029 143 740 151.029 740 160.943C740 168.882 745.136 175.588 752.268 177.966C753.165 178.123 753.502 177.584 753.502 177.113C753.502 176.687 753.479 175.274 753.479 173.772C748.971 174.601 747.805 172.673 747.446 171.663C747.244 171.148 746.37 169.555 745.607 169.129C744.979 168.793 744.082 167.963 745.585 167.94C746.998 167.918 748.007 169.241 748.343 169.779C749.958 172.493 752.537 171.731 753.569 171.26C753.726 170.093 754.197 169.308 754.713 168.86C750.721 168.411 746.549 166.864 746.549 160.001C746.549 158.049 747.244 156.435 748.388 155.179C748.209 154.73 747.581 152.891 748.568 150.424C748.568 150.424 750.07 149.953 753.502 152.263C754.937 151.859 756.462 151.657 757.987 151.657C759.513 151.657 761.038 151.859 762.473 152.263C765.905 149.93 767.407 150.424 767.407 150.424C768.394 152.891 767.766 154.73 767.587 155.179C768.731 156.435 769.426 158.027 769.426 160.001C769.426 166.886 765.232 168.411 761.24 168.86C761.89 169.421 762.451 170.497 762.451 172.179C762.451 174.579 762.428 176.508 762.428 177.113C762.428 177.584 762.765 178.145 763.662 177.966C767.224 176.763 770.319 174.474 772.512 171.42C774.704 168.366 775.884 164.702 775.885 160.943C775.885 151.029 767.856 143 757.943 143Z" fill="black"/>
<path d="M943 191C959.569 191 973 177.569 973 161C973 144.431 959.569 131 943 131C926.431 131 913 144.431 913 161C913 177.569 926.431 191 943 191Z" fill="#EBCB8B"/>
<path d="M887 129C899.15 129 909 119.15 909 107C909 94.8497 899.15 85 887 85C874.85 85 865 94.8497 865 107C865 119.15 874.85 129 887 129Z" fill="#D8DEE9"/>
<path d="M892.947 102.686C893.075 102.752 893.193 102.84 893.29 102.947L895.945 101.76L893.468 99.2962L892.911 102.65L892.947 102.686ZM887.434 100.448C887.567 100.643 887.646 100.864 887.673 101.099L891.625 102.779C891.744 102.686 891.881 102.619 892.026 102.579L892.675 98.551L890.268 96.0168L887.433 100.385L887.434 100.448ZM900.926 106.673L896.691 102.424L893.806 103.607L900.892 106.629C900.892 106.629 900.954 106.673 900.926 106.673ZM900.22 107.365L893.419 104.449C893.324 104.574 893.206 104.68 893.07 104.759C892.934 104.838 892.784 104.889 892.628 104.909L891.899 109.398C892.116 109.619 892.239 109.916 892.239 110.226L896.346 111.09L900.114 107.337V107.266L900.22 107.365ZM891.21 103.514L887.518 101.936C887.391 102.132 887.216 102.292 887.009 102.399C886.803 102.507 886.572 102.56 886.339 102.552H886.114L883.054 107.288L891.224 103.739V103.749C891.22 103.685 891.22 103.622 891.224 103.558C891.228 103.544 891.224 103.527 891.211 103.514H891.21ZM895.698 111.805L892.085 111.055C891.951 111.232 891.77 111.367 891.563 111.446L890.702 116.802L895.72 111.813C895.72 111.813 895.71 111.84 895.697 111.84L895.698 111.805ZM890.644 111.435C890.473 111.365 890.321 111.256 890.2 111.116C890.078 110.975 889.992 110.809 889.946 110.629L883.22 109.243L883.122 109.399L889.227 118.255L889.594 117.892L890.631 111.458C890.631 111.458 890.666 111.485 890.644 111.472V111.435ZM883.361 108.427L890.009 109.801C890.104 109.634 890.239 109.492 890.402 109.389C890.564 109.285 890.749 109.223 890.941 109.208L891.661 104.795L891.506 104.662L883.243 108.216C883.287 108.281 883.327 108.353 883.361 108.427ZM880.574 109.539L880.432 109.399L877.566 110.58L878.957 111.968L880.538 109.504L880.574 109.539ZM882.465 109.992C882.265 110.082 882.049 110.13 881.83 110.134C881.653 110.134 881.485 110.107 881.317 110.05L879.572 112.597L887.222 120.2L888.569 118.857L882.465 109.992ZM881.391 106.997C881.506 106.984 881.626 106.984 881.744 106.997C881.873 106.98 882.005 106.98 882.133 106.997L885.225 102.176C884.984 101.924 884.849 101.589 884.849 101.241C884.836 101.138 884.836 101.034 884.849 100.931L881.095 99.1899L878.073 102.14L881.391 106.997ZM881.732 98.6003L885.393 100.165C885.658 99.9432 885.995 99.828 886.339 99.8415C886.489 99.8457 886.638 99.8678 886.784 99.9121L889.643 95.4375L887.279 93.0667L881.732 98.5289C881.732 98.5289 881.723 98.5867 881.732 98.6003ZM880.363 107.861C880.437 107.724 880.53 107.595 880.637 107.48L877.505 102.792L873.8 106.403L880.363 107.861ZM880.067 108.654L874.4 107.466L876.89 110.001L880.031 108.663L880.067 108.654Z" fill="black"/>
<path d="M944.883 177.983L942.167 171.6C944.783 170.633 947.233 169.333 949.5 167.817L944.883 177.983ZM932.4 161.833L926.017 159.117L936.183 154.5C934.667 156.767 933.367 159.217 932.4 161.833ZM955.033 147.667C955.5 147.667 955.917 147.667 956.267 147.75C956.55 150.067 956.233 154.833 950.767 160.3C947.933 163.15 944.55 165.333 940.75 166.783L937.167 163.283C938.7 159.433 940.883 156.05 943.7 153.233C948.3 148.633 952.4 147.667 955.033 147.667ZM955.033 144.333C951.733 144.333 946.733 145.483 941.333 150.883C937.683 154.533 935.5 158.55 934.083 162.067C933.617 163.317 933.933 164.683 934.85 165.617L938.4 169.15C939.033 169.783 939.883 170.167 940.767 170.167C941.15 170.167 941.55 170.067 941.933 169.917C946.131 168.316 949.942 165.845 953.117 162.667C962.55 153.233 959.017 144.983 959.017 144.983C959.017 144.983 957.5 144.333 955.033 144.333ZM947.233 156.767C945.933 155.467 945.933 153.35 947.233 152.05C948.533 150.75 950.65 150.75 951.95 152.05C953.233 153.35 953.25 155.467 951.95 156.767C950.65 158.067 948.533 158.067 947.233 156.767ZM937.8 168.55L935.45 166.2L937.8 168.55ZM933.4 177.667L939.467 171.6C938.9 171.45 938.35 171.2 937.85 170.85L931.05 177.667H933.4ZM926.333 177.667H928.683L936.633 169.733L934.267 167.383L926.333 175.317V177.667ZM926.333 172.95L933.15 166.15C932.8 165.65 932.55 165.117 932.4 164.533L926.333 170.6V172.95Z" fill="black"/>
<path d="M668 234C680.15 234 690 224.15 690 212C690 199.85 680.15 190 668 190C655.85 190 646 199.85 646 212C646 224.15 655.85 234 668 234Z" fill="#88C0D0"/>
<path fill-rule="evenodd" clip-rule="evenodd" d="M664.333 202.804V201H664.168C663.595 201 663.039 201.114 662.502 201.339C661.967 201.563 661.484 201.894 661.081 202.311C660.689 202.705 660.381 203.175 660.177 203.691V203.693C659.995 204.184 659.873 204.695 659.814 205.215V205.219C659.762 205.744 659.747 206.273 659.77 206.801C659.792 207.332 659.803 207.864 659.803 208.394C659.803 208.766 659.73 209.114 659.589 209.443V209.444C659.32 210.085 658.819 210.6 658.186 210.887C657.864 211.028 657.515 211.1 657.163 211.098H657V212.902H657.165C657.522 212.902 657.862 212.975 658.184 213.124L658.186 213.126C658.513 213.269 658.789 213.463 659.02 213.709L659.024 213.712C659.262 213.951 659.451 214.235 659.587 214.565L659.589 214.569C659.732 214.899 659.803 215.243 659.803 215.606C659.803 216.138 659.792 216.67 659.77 217.199C659.748 217.742 659.763 218.272 659.814 218.794V218.796C659.875 219.315 659.996 219.819 660.175 220.307V220.309C660.37 220.809 660.672 221.269 661.081 221.689C661.49 222.111 661.965 222.435 662.502 222.661C663.039 222.886 663.594 223 664.17 223H664.333V221.196H664.168C663.802 221.196 663.459 221.126 663.136 220.985C662.825 220.84 662.541 220.641 662.298 220.399C662.062 220.147 661.871 219.858 661.732 219.542C661.596 219.212 661.53 218.864 661.53 218.492C661.53 218.074 661.536 217.661 661.55 217.26C661.565 216.842 661.565 216.435 661.55 216.041C661.544 215.648 661.51 215.256 661.45 214.867C661.391 214.484 661.288 214.11 661.141 213.751C660.856 213.057 660.389 212.452 659.79 212C660.39 211.548 660.857 210.944 661.143 210.249C661.29 209.897 661.391 209.529 661.451 209.146C661.512 208.761 661.545 208.37 661.552 207.972C661.567 207.569 661.567 207.162 661.552 206.751C661.537 206.341 661.53 205.926 661.53 205.508C661.527 204.983 661.677 204.468 661.963 204.027C662.249 203.586 662.657 203.238 663.138 203.026C663.462 202.877 663.814 202.802 664.17 202.804H664.333ZM671.667 221.196V223H671.832C672.406 223 672.961 222.886 673.498 222.661C674.035 222.435 674.51 222.111 674.919 221.689C675.328 221.267 675.63 220.809 675.823 220.309V220.307C676.006 219.819 676.125 219.311 676.186 218.785V218.782C676.237 218.268 676.252 217.742 676.23 217.199C676.208 216.668 676.197 216.136 676.197 215.606C676.197 215.234 676.27 214.886 676.411 214.558V214.556C676.68 213.915 677.181 213.4 677.814 213.113C678.136 212.972 678.485 212.9 678.837 212.902H679V211.098H678.835C678.476 211.098 678.136 211.025 677.814 210.876L677.812 210.874C677.497 210.739 677.213 210.54 676.978 210.291L676.974 210.288C676.732 210.044 676.541 209.754 676.411 209.435V209.432C676.268 209.104 676.194 208.751 676.195 208.394C676.195 207.862 676.206 207.331 676.228 206.801C676.251 206.269 676.236 205.736 676.184 205.206V205.204C676.125 204.688 676.003 204.18 675.823 203.693V203.691C675.618 203.174 675.31 202.705 674.917 202.311C674.514 201.894 674.031 201.563 673.496 201.339C672.969 201.115 672.401 201 671.828 201H671.667V202.804H671.832C672.198 202.804 672.541 202.874 672.862 203.015C673.181 203.165 673.46 203.36 673.7 203.602C673.933 203.847 674.122 204.133 674.266 204.458C674.402 204.788 674.468 205.136 674.468 205.508C674.468 205.926 674.463 206.337 674.448 206.74C674.433 207.158 674.433 207.565 674.448 207.959C674.455 208.366 674.488 208.757 674.549 209.133C674.609 209.525 674.712 209.895 674.857 210.249C675.143 210.943 675.61 211.548 676.21 212C675.61 212.452 675.143 213.057 674.857 213.751C674.711 214.106 674.608 214.476 674.549 214.855C674.488 215.24 674.455 215.63 674.448 216.028C674.433 216.435 674.433 216.842 674.448 217.249C674.463 217.66 674.47 218.074 674.47 218.492C674.473 219.017 674.322 219.532 674.037 219.973C673.751 220.414 673.343 220.762 672.862 220.974C672.538 221.123 672.186 221.198 671.83 221.196H671.667Z" fill="black"/>
</g>
<defs>
<clipPath id="clip0">
<rect width="973.461" height="587.025" fill="white"/>
</clipPath>
</defs>
</svg>
