<svg width="851" height="747" viewBox="0 0 851 747" fill="none" xmlns="http://www.w3.org/2000/svg">
<g clip-path="url(#clip0)">
<path d="M474.5 746.054C644.88 746.054 783 721.654 783 691.554C783 661.455 644.88 637.054 474.5 637.054C304.12 637.054 166 661.455 166 691.554C166 721.654 304.12 746.054 474.5 746.054Z" fill="#4C566A"/>
<path d="M311.786 301.898C331.395 272.75 339.91 237.54 335.785 202.653C331.66 167.766 315.17 135.512 289.305 111.74C263.439 87.9688 229.911 74.2536 194.801 73.0818C159.69 71.91 125.322 83.3593 97.9294 105.353C70.5365 127.348 51.9324 158.43 45.4909 192.964C39.0494 227.499 45.1971 263.198 62.8189 293.589C80.4408 323.979 108.37 347.048 141.542 358.613C174.714 370.177 210.932 369.471 243.628 356.623C245.748 364.189 249.71 371.111 255.161 376.77C260.612 382.429 267.382 386.648 274.863 389.049C282.344 391.45 290.304 391.958 298.03 390.529C305.757 389.099 313.008 385.776 319.134 380.856C325.261 375.937 330.072 369.575 333.137 362.341C336.203 355.106 337.426 347.224 336.698 339.401C335.97 331.577 333.313 324.056 328.966 317.512C324.618 310.967 318.716 305.602 311.786 301.898V301.898Z" fill="#EBCB8B"/>
<path d="M521.116 239.898C501.507 210.75 492.993 175.54 497.117 140.653C501.242 105.766 517.732 73.512 543.598 49.7404C569.463 25.9689 602.991 12.2536 638.102 11.0818C673.212 9.91002 707.58 21.3593 734.973 43.3534C762.366 65.3476 780.97 96.4301 787.411 130.964C793.853 165.499 787.705 201.198 770.083 231.589C752.462 261.979 724.532 285.048 691.36 296.613C658.188 308.177 621.97 307.472 589.274 294.623C587.155 302.189 583.192 309.111 577.741 314.77C572.29 320.429 565.521 324.648 558.039 327.049C550.558 329.45 542.598 329.958 534.872 328.529C527.146 327.099 519.895 323.776 513.768 318.856C507.641 313.937 502.83 307.575 499.765 300.341C496.7 293.106 495.476 285.224 496.204 277.401C496.932 269.577 499.589 262.056 503.937 255.512C508.284 248.967 514.187 243.602 521.116 239.898V239.898Z" fill="#EBCB8B"/>
<path d="M326.713 631.491C315.765 615.218 311.012 595.561 313.315 576.084C315.618 556.607 324.824 538.6 339.264 525.329C353.705 512.058 372.423 504.401 392.025 503.746C411.626 503.092 430.813 509.484 446.106 521.763C461.4 534.042 471.786 551.395 475.382 570.675C478.978 589.955 475.546 609.886 465.708 626.852C455.87 643.819 440.278 656.698 421.758 663.155C403.239 669.611 383.019 669.217 364.765 662.044C363.582 666.268 361.369 670.132 358.326 673.291C355.283 676.451 351.504 678.806 347.327 680.146C343.15 681.487 338.706 681.771 334.393 680.973C330.079 680.174 326.031 678.319 322.611 675.573C319.19 672.826 316.504 669.275 314.793 665.236C313.082 661.197 312.399 656.796 312.805 652.429C313.212 648.061 314.695 643.862 317.122 640.208C319.549 636.554 322.844 633.559 326.713 631.491V631.491Z" fill="#EBCB8B"/>
<path d="M362.551 593.331C367.793 593.331 372.042 589.082 372.042 583.84C372.042 578.599 367.793 574.349 362.551 574.349C357.309 574.349 353.06 578.599 353.06 583.84C353.06 589.082 357.309 593.331 362.551 593.331Z" fill="white"/>
<path d="M394.932 593.331C400.173 593.331 404.423 589.082 404.423 583.84C404.423 578.599 400.173 574.349 394.932 574.349C389.69 574.349 385.441 578.599 385.441 583.84C385.441 589.082 389.69 593.331 394.932 593.331Z" fill="white"/>
<path d="M427.312 593.331C432.554 593.331 436.803 589.082 436.803 583.84C436.803 578.599 432.554 574.349 427.312 574.349C422.071 574.349 417.822 578.599 417.822 583.84C417.822 589.082 422.071 593.331 427.312 593.331Z" fill="white"/>
<path d="M404.436 289.408C404.436 289.408 446.783 290.559 453.776 293.104C460.77 295.648 463.897 313.843 463.897 313.843L431.018 324.178L406.426 322.785L387.918 324.092L398.253 297.027L404.436 289.408Z" fill="#2F2E41"/>
<path d="M406.263 275.513C406.263 275.513 409.049 286.273 402.865 293.893C396.682 301.512 429.447 328.662 429.447 328.662L446.733 325.691C446.733 325.691 442.923 292.627 448.04 284.255C453.158 275.882 406.263 275.513 406.263 275.513Z" fill="#FEB8B8"/>
<path opacity="0.1" d="M406.263 275.513C406.263 275.513 409.049 286.273 402.865 293.893C396.682 301.512 429.447 328.662 429.447 328.662L446.733 325.691C446.733 325.691 442.923 292.627 448.04 284.255C453.158 275.882 406.263 275.513 406.263 275.513Z" fill="black"/>
<path d="M521.22 590.132L483.081 640.709L509.109 655.905L544.931 597.296L521.22 590.132Z" fill="#FEB8B8"/>
<path d="M494.468 641.562C494.468 641.562 480.423 625.243 481.049 628.882C481.674 632.521 471.056 663.382 480.935 666.367C490.814 669.352 575.536 677.27 576.701 667.703C577.867 658.136 551.427 651.441 551.427 651.441C551.427 651.441 535.719 636.345 532.237 637.88C528.754 639.415 494.468 641.562 494.468 641.562Z" fill="#2F2E41"/>
<path d="M512.663 638.435L543.126 690.333L566.125 677.014L535.407 634.525L512.663 638.435Z" fill="#FEB8B8"/>
<path d="M560.752 514.963L551.711 527.757C551.711 527.757 508.611 587.616 513.189 592.449C517.766 597.282 536.828 615.549 546.523 612.009C556.217 608.469 590.66 547.288 590.66 547.288L581.676 511.367L560.752 514.963Z" fill="#2F2E41"/>
<path d="M375.09 502.853C375.09 502.853 384.742 520.863 409.206 526.961C433.67 533.059 459.228 545.526 460.138 545.369C461.048 545.213 463.621 543.834 464.246 547.473C464.872 551.112 471.581 557.452 471.581 557.452C471.581 557.452 498.604 649.281 508.924 649.38C519.244 649.48 540.453 642.088 540.894 639.202C541.334 636.317 509.294 542.54 508.981 540.721L505.228 518.887C505.228 518.887 547.603 525.653 551.555 526.847C555.506 528.041 590.66 547.288 590.66 547.288C590.66 547.288 626.496 521.459 592.977 495.375C559.458 469.291 501.845 450.158 501.845 450.158L481.176 444.344L463.163 443.268L460.51 433.098L417.848 435.559L373.327 454.451L375.09 502.853Z" fill="#2F2E41"/>
<path d="M431.395 296.932C449.748 296.932 464.626 282.053 464.626 263.7C464.626 245.347 449.748 230.469 431.395 230.469C413.042 230.469 398.163 245.347 398.163 263.7C398.163 282.053 413.042 296.932 431.395 296.932Z" fill="#FEB8B8"/>
<path d="M401.33 290.41L405.327 289.723C405.327 289.723 412.546 317.518 434.878 322.109C434.878 322.109 445.897 308.909 445.426 306.682C444.956 304.454 454.153 292.571 459.043 299.223C463.933 305.876 457.849 423.064 461.957 425.168C466.066 427.271 474.879 429.503 467.786 437.279C460.692 445.054 432.518 455.517 426.278 451.906C420.038 448.296 407.287 417.705 401.771 407.413C396.256 397.122 387.428 362.11 387.428 362.11C387.428 362.11 376.156 323.773 383.092 315.087C390.029 306.402 401.33 290.41 401.33 290.41Z" fill="#D0CDE1"/>
<path d="M433.135 434.681C432.392 442.844 431.12 450.95 429.328 458.949C427.698 465.457 425.801 469.386 423.635 469.219C418.109 468.806 415.598 476.91 414.303 486.253C412.919 496.166 412.919 507.474 412.16 511.47C411.155 516.75 404.725 520.78 391.877 519.597C384.225 518.726 376.715 516.884 369.529 514.116C352.181 507.809 352.695 456.66 355.597 418.707C357.372 395.443 360.04 377.125 360.04 377.125C360.04 377.125 354.771 361.408 353.086 350.635C352.75 348.67 352.582 346.679 352.583 344.686C352.84 335.275 370.02 309.846 380.401 294.006C390.794 278.166 404.971 289.787 404.971 289.787L400.037 304.678C400.037 304.678 407.683 316.477 407.739 327.707C407.795 338.937 426.046 347.041 432.599 352.477C436.718 355.893 436.617 401.493 433.135 434.681Z" fill="#2F2E41"/>
<path d="M447.564 295.108C447.564 295.108 448.762 296.523 454.245 295.833C460.822 295.005 469.864 297.28 471.964 303.559C475.817 315.073 486.677 361.911 486.677 361.911C486.677 361.911 491.198 415.459 493.23 427.286C495.263 439.112 494.254 449.589 496.258 455.801C498.263 462.013 476.471 444.216 468.439 446.533C460.408 448.85 455.248 418.828 456.257 408.351C457.266 397.875 458.119 386.489 455.333 375.728C452.547 364.967 457.487 336.488 457.302 329.963C457.117 323.438 439.592 306.994 447.564 295.108Z" fill="#2F2E41"/>
<path d="M471.078 461.534C471.078 461.534 506.264 480.729 509.631 508.051C512.999 535.373 462.569 481.597 462.569 481.597L471.078 461.534Z" fill="#FEB8B8"/>
<path d="M491.164 442.159C491.164 442.159 501.945 496.504 518.741 493.617C535.536 490.73 509.359 439.031 509.359 439.031L491.164 442.159Z" fill="#FEB8B8"/>
<path d="M548.684 679.075C548.684 679.075 540.083 688.983 537.951 687.476C535.819 685.969 530.915 706.482 535.336 710.405C539.757 714.328 556.786 720.768 556.971 727.292C557.156 733.817 602.828 732.523 604.463 725.686C606.098 718.848 598.734 703.255 593.56 700.398C588.386 697.54 569.254 671.243 569.254 671.243C569.254 671.243 554.27 673.432 548.684 679.075Z" fill="#2F2E41"/>
<path opacity="0.1" d="M465.473 494.77C457.313 489.01 434.53 487.581 414.303 486.253C405.428 485.684 397.045 485.126 390.604 484.221C384.397 483.362 378.816 477.691 373.86 469.241C366.347 456.437 360.274 437.237 355.597 418.707C357.372 395.443 360.04 377.125 360.04 377.125C360.04 377.125 354.771 361.407 353.086 350.635C354.274 348.982 355.804 347.603 357.573 346.594C379.028 337.385 399.512 428.016 402.113 442.238C402.158 442.472 402.191 442.696 402.225 442.885C403.486 450.208 417.116 456.471 429.328 458.949C436.852 460.478 443.851 460.578 447.077 458.591C455.55 453.39 481.604 474.208 483.58 474.8C485.555 475.403 477.194 503.064 465.473 494.77Z" fill="black"/>
<path d="M357.577 341.015C357.577 341.015 341.983 348.379 348.835 382.793C355.686 417.208 369.489 475.716 390.598 478.645C411.708 481.573 453.741 480.905 465.469 489.192C477.196 497.479 485.554 469.817 483.578 469.22C481.603 468.623 455.546 447.812 447.074 453.015C438.602 458.217 404.259 449.134 402.226 437.307C400.193 425.48 379.382 331.648 357.577 341.015Z" fill="#2F2E41"/>
<path d="M469.946 324.511L487.084 364.279C487.084 364.279 488.809 363.418 490.814 369.63C492.818 375.842 493.756 381.3 497.267 385.38C500.778 389.46 516.401 447.656 516.87 450.385C517.339 453.114 495.293 462.523 490.367 454.94C485.441 447.357 469.946 324.511 469.946 324.511Z" fill="#2F2E41"/>
<path d="M412.488 263.237C413.762 262.897 413.949 261.206 413.992 259.889C414.22 252.834 418.469 245.594 425.222 243.54C427.814 242.829 430.527 242.68 433.181 243.102C436.969 243.607 440.627 244.827 443.959 246.698C445.718 247.687 447.444 248.878 449.439 249.18C450.757 249.379 456.462 251.038 457.774 251.272C460.659 251.785 463.34 254.366 466.108 253.405C468.756 252.487 469.342 249.058 469.406 246.255C469.552 239.871 464.705 231.034 460.436 226.284C457.197 222.68 452.319 221.016 447.55 220.151C441.98 219.256 436.335 218.913 430.698 219.126C423.067 219.262 415.224 219.851 408.343 223.153C401.462 226.455 395.682 233.026 395.352 240.652C395.283 242.24 395.447 243.835 395.313 245.419C394.988 249.284 392.935 252.775 391.973 256.532C391.284 259.289 391.181 262.159 391.67 264.958C392.16 267.757 393.23 270.423 394.812 272.783C397.366 276.541 401.38 279.94 401.232 284.481L406.77 278.745C407.597 278.113 408.182 277.217 408.428 276.206C408.674 275.195 408.566 274.13 408.122 273.189L406.162 265.544C405.658 264.179 405.599 262.69 405.992 261.289C408.093 256.097 410.365 263.804 412.488 263.237Z" fill="#2F2E41"/>
<path d="M664.146 645.576C663.917 645.201 658.506 636.166 656.63 617.404C654.909 600.191 656.016 571.177 671.062 530.706C699.568 454.035 664.493 392.172 664.135 391.556L665.865 390.552C665.956 390.708 675.007 406.481 680.353 431.596C687.418 464.894 684.846 499.515 672.937 531.403C644.48 607.943 665.637 644.176 665.853 644.534L664.146 645.576Z" fill="#3F3D56"/>
<path d="M653 387.054C660.18 387.054 666 381.234 666 374.054C666 366.874 660.18 361.054 653 361.054C645.82 361.054 640 366.874 640 374.054C640 381.234 645.82 387.054 653 387.054Z" fill="#EBCB8B"/>
<path d="M694 435.054C701.18 435.054 707 429.234 707 422.054C707 414.874 701.18 409.054 694 409.054C686.82 409.054 681 414.874 681 422.054C681 429.234 686.82 435.054 694 435.054Z" fill="#3F3D56"/>
<path d="M666 467.054C673.18 467.054 679 461.234 679 454.054C679 446.874 673.18 441.054 666 441.054C658.82 441.054 653 446.874 653 454.054C653 461.234 658.82 467.054 666 467.054Z" fill="#EBCB8B"/>
<path d="M700 494.054C707.18 494.054 713 488.234 713 481.054C713 473.874 707.18 468.054 700 468.054C692.82 468.054 687 473.874 687 481.054C687 488.234 692.82 494.054 700 494.054Z" fill="#EBCB8B"/>
<path d="M656 536.054C663.18 536.054 669 530.234 669 523.054C669 515.874 663.18 510.054 656 510.054C648.82 510.054 643 515.874 643 523.054C643 530.234 648.82 536.054 656 536.054Z" fill="#3F3D56"/>
<path d="M672 646.054C672 646.054 659 614.054 698 590.054L672 646.054Z" fill="#3F3D56"/>
<path d="M656.012 645.474C656.012 645.474 650.096 611.444 604.303 611.736L656.012 645.474Z" fill="#3F3D56"/>
<path d="M123.671 264.899C124.229 268.086 123.498 271.364 121.64 274.012C119.781 276.66 116.947 278.461 113.761 279.019C110.574 279.577 107.296 278.847 104.648 276.989C102 275.13 100.199 272.296 99.6407 269.109L90.1686 215.042C89.6104 211.855 90.3408 208.578 92.1993 205.93C94.0578 203.282 96.8921 201.48 100.079 200.922C103.265 200.364 106.543 201.094 109.191 202.953C111.839 204.811 113.64 207.646 114.199 210.832L123.671 264.899Z" fill="white"/>
<path d="M291.88 235.431C292.438 238.617 291.708 241.895 289.849 244.543C287.991 247.191 285.156 248.992 281.97 249.551C278.783 250.109 275.505 249.378 272.857 247.52C270.21 245.661 268.408 242.827 267.85 239.641L258.378 185.573C257.82 182.387 258.55 179.109 260.409 176.461C262.267 173.813 265.101 172.012 268.288 171.453C271.475 170.895 274.752 171.626 277.4 173.484C280.048 175.343 281.85 178.177 282.408 181.364L291.88 235.431Z" fill="white"/>
<path d="M195.321 320.451C195.879 323.638 195.149 326.916 193.29 329.564C191.432 332.211 188.598 334.013 185.411 334.571C182.225 335.129 178.947 334.399 176.299 332.54C173.651 330.682 171.85 327.847 171.291 324.661L161.819 270.594C161.261 267.407 161.991 264.129 163.85 261.481C165.708 258.833 168.543 257.032 171.729 256.474C174.916 255.916 178.194 256.646 180.842 258.505C183.49 260.363 185.291 263.197 185.849 266.384L195.321 320.451Z" fill="white"/>
<path d="M243.381 312.032C243.939 315.218 243.209 318.496 241.35 321.144C239.492 323.792 236.658 325.593 233.471 326.151C230.284 326.71 227.007 325.979 224.359 324.121C221.711 322.262 219.909 319.428 219.351 316.241L209.879 262.174C209.321 258.988 210.051 255.71 211.91 253.062C213.768 250.414 216.603 248.613 219.789 248.054C222.976 247.496 226.253 248.226 228.901 250.085C231.549 251.943 233.351 254.778 233.909 257.964L243.381 312.032Z" fill="white"/>
<path d="M124.109 196.712L139.894 286.818C140.452 290.005 142.254 292.839 144.902 294.698C147.55 296.556 150.827 297.287 154.014 296.728L250.134 279.889C253.32 279.331 256.154 277.53 258.013 274.882C259.871 272.234 260.602 268.956 260.044 265.769L244.258 175.663L124.109 196.712Z" fill="white"/>
<path d="M173.658 126.107C137.613 132.422 119.492 158.166 122.003 184.691L242.152 163.642C235.49 137.844 209.703 119.792 173.658 126.107ZM155.52 163.947C153.926 164.226 152.287 163.861 150.963 162.931C149.639 162.002 148.739 160.585 148.46 158.992C148.181 157.398 148.546 155.76 149.475 154.436C150.404 153.112 151.821 152.211 153.415 151.932C155.008 151.653 156.647 152.018 157.971 152.947C159.295 153.876 160.195 155.294 160.475 156.887C160.754 158.48 160.388 160.119 159.459 161.443C158.53 162.767 157.113 163.668 155.52 163.947ZM203.579 155.527C201.986 155.806 200.347 155.441 199.023 154.512C197.699 153.583 196.799 152.165 196.519 150.572C196.24 148.979 196.606 147.34 197.535 146.016C198.464 144.692 199.881 143.791 201.474 143.512C203.068 143.233 204.707 143.598 206.031 144.528C207.355 145.457 208.255 146.874 208.534 148.467C208.814 150.06 208.448 151.699 207.519 153.023C206.59 154.347 205.173 155.248 203.579 155.527Z" fill="white"/>
<path d="M208.65 113.785L201.272 130.551" stroke="white" stroke-width="2" stroke-linecap="round"/>
<path d="M136.561 126.414L146.76 137.519" stroke="white" stroke-width="2" stroke-linecap="round"/>
<path d="M698.243 163.529C699.695 146.501 708.585 134.379 725.037 126.343C717.456 113.071 704.89 105.006 687.622 102.098C671.276 99.2984 652.27 108.536 645.675 107.934C638.704 107.298 623.597 96.7117 611.055 95.5679C585.136 93.6068 555.785 111.311 552.035 152.435C550.926 164.588 552.005 177.342 555.274 190.674C559.668 208.235 577.301 251.888 599.723 253.253C611.441 254.045 620.441 246.789 635.656 248.176C650.422 249.523 657.311 258.505 670.353 259.694C692.943 261.427 715.787 225.29 722.99 208.736C694.034 191.729 698.164 164.402 698.243 163.529V163.529ZM678.926 85.025C692.963 71.1579 693.061 57.3783 693.134 52.4282C681.882 52.0563 668.306 57.8383 660.155 65.7253C651.197 74.1679 645.39 85.0867 645.247 97.9815C657.255 100.008 668.865 94.8011 678.926 85.025V85.025Z" fill="white"/>
</g>
<defs>
<clipPath id="clip0">
<rect width="851" height="746.054" fill="white"/>
</clipPath>
</defs>
</svg>
